<?xml version="1.0" standalone="no"?>
<!DOCTYPE svg PUBLIC "-//W3C//DTD SVG 1.1//EN" "http://www.w3.org/Graphics/SVG/1.1/DTD/svg11.dtd">
<svg xmlns="http://www.w3.org/2000/svg"><metadata>This SVG WebFont was generated by YouWorkForThem.
Copyright (c) 2007 by Juan Pablo De Gregorio, Letritas. All rights reserved.</metadata><defs><font horiz-adv-x="1302" id="ywftsvg"><font-face ascent="1536" bbox="-803 -621 13201 2060" cap-height="1450" descent="-512" font-family="" font-stretch="normal" font-weight="400" panose-1="2 0 0 0 0 0 0 0 0 0" underline-position="0" underline-thickness="0" unicode-range="U+0020-FB03" units-per-em="2048" x-height="1061"/><missing-glyph horiz-adv-x="512"/><glyph glyph-name=".notdef" horiz-adv-x="512" unicode="ffi"/><glyph d="M563 -152q0 -68 35 -67q59 0 105 177q47 176 47 366t-41 290q-13 -68 -53 -242t-66 -314q-26 -142 -27 -210zM1948 1356q0 -126 -85 -184t-225 -58q-281 0 -280 217q0 129 91 189t218 59q281 0 281 -223zM465 -512q-465 0 -465 387q0 115 68 401t134 600q66 316 66 498 q0 59 -4 86q139 31 240 31q160 0 240 -68t79 -194q0 -27 -6 -69l-10 -70l-6 -27q127 -10 387 -10l454 10q111 0 170 -46t60 -161q0 -39 -56 -297t-57 -422q0 -68 8 -123q-137 -31 -241 -30q-317 0 -318 299q0 108 42 276t50 211q-151 -33 -335 -20q195 -139 194 -463 q0 -375 -178 -587t-516 -212z" glyph-name="uniFB01" horiz-adv-x="1765" unicode="fi"/><glyph d="M1985 256q66 0 99 114q34 114 34 184t-31 71q-88 0 -125 -367q8 -2 23 -2zM731 426q57 0 99 116t42 267q0 66 -47 65q-49 0 -84 -78q-59 -132 -59 -288q0 -46 10 -64t39 -18zM1751 1495q183 0 287 -57t104 -210t-108 -435q188 268 426 268q262 0 262 -320 q0 -258 -119 -450q-119 -191 -401 -266q-152 -41 -362 -41t-318 82t-109 208q0 90 65 372q64 282 64 348t-32 108q-32 43 -86 43t-103 -45t-78 -119q186 -96 187 -332q0 -174 -180 -293t-472 -118q-178 0 -305 28q-12 -12 -12 -26q0 -46 92 -66t222 -28t261 -26 q132 -19 224 -86q92 -68 92 -178q0 -218 -222 -296q-196 -72 -523 -72t-487 54t-161 182q0 104 96 163t253 59t306 -75q-57 -49 -57 -111q0 -34 16 -56t48 -22t58 32q26 30 26 86q0 103 -197 146q-82 16 -165 36t-140 66t-58 122q0 102 134 172q-152 100 -152 307 q0 174 181 294t470 120q199 0 332 -35q62 215 220 338t396 129h25z" glyph-name="g_b.liga" horiz-adv-x="2654" unicode="gb"/><glyph d="M731 426q57 0 99 116t42 267q0 66 -47 65q-49 0 -84 -78q-59 -132 -59 -288q0 -46 10 -64t39 -18zM1882 -159q0 -61 35 -60q59 0 105 177q46 176 46 366t-40 290q-14 -68 -63 -285t-66 -322t-17 -166zM2478 287q0 -375 -178 -587t-516 -212q-465 0 -465 387 q0 137 112 590t111 557q0 123 -123 123q-49 0 -98 -45t-78 -119q88 -35 137 -118t50 -185q0 -203 -178 -322t-474 -118q-178 0 -305 28q-12 -12 -12 -26q0 -46 85 -66t206 -28q122 -8 242 -26q120 -19 205 -86q85 -68 85 -178q0 -216 -216 -296q-186 -72 -487 -72t-461 54 t-161 182q0 104 96 163t253 59t306 -75q-57 -49 -57 -111q0 -34 16 -56t48 -22t58 32q26 30 26 86q0 103 -197 146q-82 16 -165 36t-140 66t-58 122q0 106 131 172q-47 24 -98 101q-51 78 -51 188q0 193 179 313t472 119q199 0 334 -35q33 117 94 204t127 136t171 88t247 39 q215 0 305 -68t90 -198q0 -47 -26 -174q364 -27 518 12q16 -59 16 -117q0 -227 -289 -227q-33 0 -51 2q164 -145 164 -438z" glyph-name="g_f.liga" horiz-adv-x="2484" unicode="gf"/><glyph d="M731 426q57 0 99 116t42 267q0 66 -47 65q-49 0 -84 -78q-59 -132 -59 -288q0 -46 10 -64t39 -18zM2091 426q57 0 99 116t42 267q0 66 -47 65q-49 0 -84 -78q-59 -132 -59 -288q0 -46 10 -64t39 -18zM461 240q0 -48 89 -66t215 -24t252 -24t215 -87q89 -67 89 -179 q1 -112 -63 -187q-107 -127 -399 -169q-118 -16 -255 -16q-324 0 -484 54t-161 182q0 104 96 163t253 59t306 -75q-57 -49 -57 -111q0 -34 16 -56t48 -22t58 32q26 30 26 86q0 103 -197 146q-82 16 -165 36t-140 66t-58 122q0 102 134 172q-152 100 -152 307q0 174 181 294 t470 120q387 0 529 -123q67 -59 95 -129t28 -162q0 -174 -180 -293t-472 -118q-178 -1 -305 28q-12 -12 -12 -26zM1821 240q0 -46 92 -66t222 -28t261 -26q131 -19 223 -86q93 -68 93 -178q1 -217 -222 -296q-196 -72 -519 -72q-324 0 -472 54q-147 54 -147 182 q0 104 89 163t237 59t296 -75q-57 -49 -57 -111q0 -34 16 -56t48 -22t58 32q25 30 25 86q-1 103 -196 146q-82 16 -165 36t-140 66t-58 122q0 102 133 172q-152 100 -151 307q0 174 181 294t470 120q201 0 344 -37q39 194 140 306t266 112q116 0 194 -55t78 -135t-54 -128 q-54 -49 -163 -49q-8 0 -61 4q-34 63 -94 63q-118 1 -171 -171q172 -96 172 -324q0 -174 -180 -293t-471 -118q-178 -1 -305 28q-12 -12 -12 -26z" glyph-name="g_g.liga" horiz-adv-x="2678" unicode="gg"/><glyph d="M731 426q57 0 99 116t42 267q0 66 -47 65q-49 0 -84 -78q-59 -132 -59 -288q0 -46 10 -64t39 -18zM2068 289q0 84 23 188t23 119q0 31 -25 31q-61 0 -96 -159t-35 -275t12 -179q-137 -31 -241 -30q-317 0 -318 299q0 98 65 355t64 361q0 145 -121 146q-49 0 -98 -45 t-78 -119q186 -96 187 -332q0 -174 -180 -293t-472 -118q-178 0 -305 28q-12 -12 -12 -26q0 -46 92 -66t222 -28t261 -26q132 -19 224 -86q92 -68 92 -178q0 -218 -222 -296q-196 -72 -523 -72t-487 54t-161 182q0 104 96 163t253 59t306 -75q-57 -49 -57 -111q0 -34 16 -56 t48 -22t58 32q26 30 26 86q0 103 -197 146q-82 16 -165 36t-140 66t-58 122q0 102 134 172q-152 100 -152 307q0 174 181 294t470 120q199 0 332 -35q63 221 228 344t413 123q199 0 297 -63t98 -203q0 -72 -35 -208t-90 -263q215 305 457 305q116 0 182 -57q66 -58 66 -160 t-54 -326t-54 -332q0 -109 10 -168q-125 -37 -232 -36q-156 0 -242 78t-86 227z" glyph-name="g_h.liga" horiz-adv-x="2619" unicode="gh"/><glyph d="M731 426q57 0 99 116t42 267q0 66 -47 65q-49 0 -84 -78q-59 -132 -59 -288q0 -46 10 -64t39 -18zM1526 993v35q176 33 296 33q254 0 253 -205q-1 -39 -57 -297t-56 -422q0 -68 8 -123q-137 -31 -241 -30q-317 0 -318 299q-1 105 57 337t58 373zM1442 1223 q-60 0 -120 -70t-81 -172q188 -96 189 -332q0 -174 -180 -293t-472 -118q-178 0 -305 28q-12 -12 -12 -26q0 -46 92 -66t222 -28t261 -26q132 -19 224 -86q92 -68 92 -178q0 -218 -222 -296q-196 -72 -523 -72t-487 54t-161 182q0 104 96 163t253 59t306 -75 q-57 -49 -57 -111q0 -34 16 -56t48 -22t58 32q26 30 26 86q0 103 -197 146q-82 16 -165 36t-140 66t-58 122q0 102 134 172q-152 100 -152 307q0 174 181 294t470 120q190 0 328 -33q58 223 244 390t462 167q342 0 342 -231q0 -135 -107 -198q-107 -62 -263 -62t-262 45 q-20 82 -80 82z" glyph-name="g_i.liga" horiz-adv-x="1968" unicode="gi"/><glyph d="M731 426q57 0 99 116t42 267q0 66 -47 65q-49 0 -84 -78q-59 -132 -59 -288q0 -46 10 -64t39 -18zM592 -512q-312 0 -472 54t-161 182q0 104 89 163q88 59 238 59t300 -75q-57 -49 -58 -111q0 -34 16 -56t49 -22q31 0 57 32q26 30 26 86q0 104 -188 146q-78 16 -156 36 t-132 66t-55 122q0 102 134 172q-152 100 -152 307q0 174 181 294t470 120q190 0 328 -33q58 223 244 390t462 167q342 0 342 -231q0 -135 -107 -198q-107 -62 -263 -62t-262 45q-20 82 -80 82t-120 -70t-81 -172q188 -96 189 -332q0 -174 -180 -293t-472 -118 q-178 0 -305 28q-12 -12 -12 -26q0 -47 77 -70q78 -23 186 -33q108 -11 216 -31t186 -83q76 -63 76 -162t-31 -162q49 33 84 92t49 109q58 203 131 535q73 331 84 411t11 122t-6 60q162 35 274 35q274 0 275 -203q0 -47 -193 -989q-40 -193 -162 -334q-64 -74 -166 -116 t-228 -42q-126 1 -198 55t-75 140q-147 -86 -459 -86z" glyph-name="g_j.liga" horiz-adv-x="1953" unicode="gj"/><glyph d="M731 426q57 0 99 116t42 267q0 66 -47 65q-49 0 -84 -78q-59 -132 -59 -288q0 -46 10 -64t39 -18zM2613 268q0 -133 -80 -214t-221 -81q-90 0 -156 37q-66 36 -101 100q-64 120 -64 283q0 66 10 133q-45 -204 -45 -322t14 -190q-137 -31 -241 -30q-317 0 -318 299 q0 98 65 356t64 360q0 145 -121 146q-49 0 -98 -45t-78 -119q186 -96 187 -332q0 -174 -180 -293t-472 -118q-178 0 -305 28q-12 -12 -12 -26q0 -46 92 -66t222 -28t261 -26q132 -19 224 -86q92 -68 92 -178q0 -218 -222 -296q-196 -72 -523 -72t-487 54t-161 182 q0 104 96 163t253 59t306 -75q-57 -49 -57 -111q0 -34 16 -56t48 -22t58 32q26 30 26 86q0 103 -197 146q-82 16 -165 36t-140 66t-58 122q0 102 134 172q-152 100 -152 307q0 174 181 294t470 120q199 0 332 -35q63 221 228 344q164 123 400 123t326 -68q90 -69 90 -217 t-137 -555q174 150 174 289q0 41 -14 78q139 41 262 41t215 -54t92 -155q0 -160 -140 -238t-370 -81q94 -92 238 -93q45 1 102 15q37 -100 37 -189z" glyph-name="g_k.liga" horiz-adv-x="2615" unicode="gk"/><glyph d="M731 426q57 0 99 116t42 267q0 66 -47 65q-49 0 -84 -78q-59 -132 -59 -288q0 -46 10 -64t39 -18zM461 240q0 -46 92 -66t222 -28t261 -26q132 -19 224 -86q92 -68 92 -178q0 -218 -222 -296q-196 -72 -523 -72t-487 54t-161 182q0 104 96 163t253 59t306 -75 q-57 -49 -57 -111q0 -34 16 -56t48 -22t58 32q26 30 26 86q0 103 -197 146q-82 16 -165 36t-140 66t-58 122q0 102 134 172q-152 100 -152 307q0 174 181 294t470 120q199 0 332 -35q63 221 228 344t413 123q199 0 297 -63t98 -203q0 -105 -93 -507t-93 -585q0 -62 10 -123 q-137 -31 -241 -30q-317 0 -318 299q0 109 65 365t64 351q0 145 -121 146q-49 0 -98 -45t-78 -119q186 -96 187 -332q0 -174 -180 -293t-472 -118q-178 0 -305 28q-12 -12 -12 -26z" glyph-name="g_l.liga" horiz-adv-x="1966" unicode="gl"/><glyph d="M731 426q57 0 99 116t42 267q0 66 -47 65q-49 0 -84 -78q-59 -132 -59 -288q0 -46 10 -64t39 -18zM2276 557q60 0 110 -41q49 -41 49 -106q0 -182 -174 -314t-453 -133q-199 0 -298 81t-99 206t65 396t64 333q0 166 -121 166q-49 0 -98 -45t-78 -119q186 -96 187 -332 q0 -174 -180 -293t-472 -118q-178 0 -305 28q-12 -12 -12 -26q0 -46 92 -66t222 -28t261 -26q132 -19 224 -86q92 -68 92 -178q0 -218 -222 -296q-196 -72 -523 -72t-487 54t-161 182q0 104 96 163t253 59t306 -75q-57 -49 -57 -111q0 -34 16 -56t48 -22t58 32q26 30 26 86 q0 103 -197 146q-82 16 -165 36t-140 66t-58 122q0 102 134 172q-152 100 -152 307q0 174 181 294t470 120q201 0 334 -35q139 467 660 467q375 0 374 -250q0 -78 -26 -217q174 0 290 12q27 -54 27 -118t-53 -117t-170 -53q-59 0 -150 22q-30 -117 -58 -259t-28 -183t40 -41 q40 -1 86 63t69 189q43 14 103 14z" glyph-name="g_t.liga" horiz-adv-x="2379" unicode="gt"/><glyph d="M731 426q57 0 99 116t42 267q0 66 -47 65q-49 0 -84 -78q-59 -132 -59 -288q0 -46 10 -64t39 -18zM2054 1346q0 -117 -79 -171t-210 -55q-264 0 -264 203q0 123 85 178t206 55q262 1 262 -210zM2666 1346q0 -117 -78 -171t-210 -55q-264 0 -264 203q0 123 85 178t205 55 q262 1 262 -210zM2615 57v-34q-160 -37 -270 -37q-268 0 -268 198q0 35 4 56q-190 -256 -422 -256q-248 0 -248 299q0 109 41 273t53 226q-25 -6 -59 -6t-51 4q35 -59 35 -118q0 -184 -180 -304t-472 -120q-178 0 -305 28q-12 -12 -12 -26q0 -46 92 -66t222 -28t261 -26 q132 -19 224 -86q92 -68 92 -178q0 -218 -222 -296q-196 -72 -523 -72t-487 54t-161 182q0 104 96 163t253 59t306 -75q-57 -49 -57 -111q0 -34 16 -56t48 -22t58 32q26 30 26 86q0 103 -197 146q-82 16 -165 36t-140 66t-58 122q0 102 134 172q-152 100 -152 307 q0 174 181 294t470 120h25q154 -3 337 -21q182 -18 248 -18t200 18t186 19q156 0 226 -76t68 -227q0 -66 -22 -172t-23 -136q0 -30 25 -30q47 0 78 108q49 172 49 371q0 72 -8 127q145 35 248 35q311 0 311 -303q0 -106 -56 -333t-55 -368z" glyph-name="g_udieresis.liga" horiz-adv-x="2615" unicode="gü"/><glyph d="M563 -148q0 -72 35 -71q59 0 105 177q47 176 47 366t-41 290q-16 -90 -81 -371t-65 -391zM465 -512q-465 0 -465 387q0 119 68 406t134 599q67 312 66 494q0 59 -4 86q139 31 240 31q160 0 240 -68t79 -194q0 -49 -22 -166q211 -10 387 -10l454 10q111 0 170 -46t60 -161 q0 -39 -56 -297t-57 -422q0 -68 8 -123q-137 -31 -241 -30q-317 0 -318 299q0 108 42 276t50 211q-151 -33 -335 -20q195 -139 194 -463q0 -375 -178 -587t-516 -212zM2085 1459q0 -97 -82 -179t-191 -119t-197 -37q-89 0 -141 20t-71 42l-19 20q258 158 258 355l-2 30 q102 57 206 57t172 -45q67 -46 67 -144z" glyph-name="f_iacute.liga" horiz-adv-x="1765" unicode="fí"/><glyph d="M563 -148q0 -72 35 -71q59 0 105 177q47 176 47 366t-41 290q-16 -90 -81 -371t-65 -391zM465 -512q-465 0 -465 387q0 119 68 406t134 599q67 312 66 494q0 59 -4 86q139 31 240 31q160 0 240 -68t79 -194q0 -49 -22 -166q211 -10 387 -10l454 10q111 0 170 -46t60 -161 q0 -39 -56 -297t-57 -422q0 -68 8 -123q-137 -31 -241 -30q-317 0 -318 299q0 108 42 276t50 211q-151 -33 -335 -20q195 -139 194 -463q0 -375 -178 -587t-516 -212zM1237 1434q0 100 71 151q70 51 178 51t197 -51q-37 -45 -36 -110q0 -168 217 -328q-102 -18 -191 -19 q-197 0 -317 82t-119 224z" glyph-name="f_igrave.liga" horiz-adv-x="1763" unicode="fì"/><glyph d="M2206 1346q0 -117 -79 -171t-210 -55q-264 0 -264 203q0 123 85 178t206 55q262 1 262 -210zM1593 1346q0 -117 -79 -171t-209 -55q-264 0 -265 203q0 123 85 178t206 55q262 1 262 -210zM563 -148q0 -72 35 -71q59 0 105 177q47 176 47 366t-41 290q-16 -90 -81 -371 t-65 -391zM465 -512q-465 0 -465 387q0 119 68 406t134 599q67 312 66 494q0 59 -4 86q139 31 240 31q160 0 240 -68t79 -194q0 -49 -22 -166q211 -10 387 -10l454 10q111 0 170 -46t60 -161q0 -39 -56 -297t-57 -422q0 -68 8 -123q-137 -31 -241 -30q-317 0 -318 299 q0 108 42 276t50 211q-151 -33 -335 -20q195 -139 194 -463q0 -375 -178 -587t-516 -212z" glyph-name="f_idieresis.liga" horiz-adv-x="1765" unicode="fï"/><glyph d="M1834 1126q-100 0 -141 67q-40 67 -40 148l4 52q-160 -55 -160 -183q0 -14 4 -39q-59 -39 -148 -39t-146 35q-56 35 -56 111t43 136t108 94q136 71 318 83q76 6 160 6l188 -8q-2 -25 -2 -63q0 -197 84 -258q0 -62 -58 -102t-158 -40zM563 -148q0 -72 35 -71q59 0 105 177 q47 176 47 366t-41 290q-16 -90 -81 -371t-65 -391zM465 -512q-465 0 -465 387q0 119 68 406t134 599q67 312 66 494q0 59 -4 86q139 31 240 31q160 0 240 -68t79 -194q0 -49 -22 -166q211 -10 387 -10l454 10q111 0 170 -46t60 -161q0 -39 -56 -297t-57 -422q0 -68 8 -123 q-137 -31 -241 -30q-317 0 -318 299q0 108 42 276t50 211q-151 -33 -335 -20q195 -139 194 -463q0 -375 -178 -587t-516 -212z" glyph-name="f_icircumflex.liga" horiz-adv-x="1765" unicode="fî"/><glyph d="M2861 1346q0 -117 -79 -171t-210 -55q-264 0 -264 203q0 123 85 178t206 55q262 1 262 -210zM2249 1346q0 -117 -79 -171t-210 -55q-264 0 -264 203q0 123 85 178t206 55q262 1 262 -210zM2167 768q-66 0 -107 -111t-41 -192q0 -45 35 -45q54 0 93 151q23 93 46 191 q-12 6 -26 6zM2124 231q0 31 2 48q-197 -295 -447 -295q-262 0 -262 319q0 259 113 441q124 201 407 278q152 41 350 41t441 -31l86 -10q-8 -31 -35 -132q-125 -468 -125 -710q0 -86 12 -162q-139 -35 -249 -34q-293 0 -293 247zM731 426q57 0 99 116t42 267q0 66 -47 65 q-49 0 -84 -78q-59 -132 -59 -288q0 -46 10 -64t39 -18zM461 240q0 -46 92 -66t222 -28t261 -26q132 -19 224 -86q92 -68 92 -178q0 -218 -222 -296q-196 -72 -523 -72t-487 54t-161 182q0 104 96 163t253 59t306 -75q-57 -49 -57 -111q0 -34 16 -56t48 -22t58 32 q26 30 26 86q0 103 -197 146q-82 16 -165 36t-140 66t-58 122q0 102 134 172q-152 100 -152 307q0 174 181 294t470 120q387 0 529 -123q67 -59 95 -129t28 -162q0 -174 -180 -293t-472 -118q-178 -1 -305 28q-12 -12 -12 -26z" glyph-name="g_adieresis.liga" horiz-adv-x="2662" unicode="gä"/><glyph d="M2710 1346q0 -117 -79 -171t-210 -55q-264 0 -264 203q0 123 85 178t205 55q263 1 263 -210zM2097 1346q0 -117 -79 -171t-210 -55q-264 0 -264 203q0 123 85 178t206 55q262 1 262 -210zM2198 688q0 58 -52 57q-43 1 -67 -41t-49 -157q84 4 126 44q42 39 42 97z M2671 283q-1 -104 -97 -174q-175 -127 -532 -125q-266 0 -423 110t-157 320q0 649 785 649q252 0 388 -86t136 -223q0 -113 -94 -193q-178 -151 -498 -149q-74 0 -160 14q14 -139 189 -139q96 -1 193 29t147 61l49 29q74 -45 74 -123zM731 426q57 0 99 116t42 267 q0 66 -47 65q-49 0 -84 -78q-59 -132 -59 -288q0 -46 10 -64t39 -18zM461 240q0 -46 92 -66t222 -28t261 -26q132 -19 224 -86q92 -68 92 -178q0 -218 -222 -296q-196 -72 -523 -72t-487 54t-161 182q0 104 96 163t253 59t306 -75q-57 -49 -57 -111q0 -34 16 -56t48 -22 t58 32q26 30 26 86q0 103 -197 146q-82 16 -165 36t-140 66t-58 122q0 102 134 172q-152 100 -152 307q0 174 181 294t470 120q387 0 529 -123q67 -59 95 -129t28 -162q0 -174 -180 -293t-472 -118q-178 -1 -305 28q-12 -12 -12 -26z" glyph-name="g_edieresis.liga" horiz-adv-x="2627" unicode="gë"/><glyph d="M1528 993v35q176 33 296 33q254 0 253 -205q-1 -39 -57 -297t-56 -422q0 -68 8 -123q-137 -31 -241 -30q-317 0 -318 299q-1 105 57 337t58 373zM2427 1346q0 -117 -79 -171t-210 -55q-264 0 -264 203q0 123 85 178t206 55q262 1 262 -210zM1815 1346q0 -117 -79 -171 t-210 -55q-264 0 -264 203q0 123 85 178t205 55q263 1 263 -210zM731 426q57 0 99 116t42 267q0 66 -47 65q-49 0 -84 -78q-59 -132 -59 -288q0 -46 10 -64t39 -18zM461 240q0 -46 92 -66t222 -28t261 -26q132 -19 224 -86q92 -68 92 -178q0 -218 -222 -296 q-196 -72 -523 -72t-487 54t-161 182q0 104 96 163t253 59t306 -75q-57 -49 -57 -111q0 -34 16 -56t48 -22t58 32q26 30 26 86q0 103 -197 146q-82 16 -165 36t-140 66t-58 122q0 102 134 172q-152 100 -152 307q0 174 181 294t470 120q387 0 529 -123q67 -59 95 -129 t28 -162q0 -174 -180 -293t-472 -118q-178 -1 -305 28q-12 -12 -12 -26z" glyph-name="g_idieresis.liga" horiz-adv-x="1966" unicode="gï"/><glyph d="M2777 1346q0 -117 -79 -171t-210 -55q-264 0 -264 203q0 123 85 178t206 55q262 1 262 -210zM2165 1346q0 -117 -79 -171t-210 -55q-264 0 -264 203q0 123 85 178t206 55q262 1 262 -210zM2003 347q0 -54 46 -54t75 48q29 49 52 165q24 116 24 178t-52 61q-42 0 -68 -46 t-52 -172t-25 -180zM2736 631q0 -311 -169 -479t-564 -168q-254 0 -396 108t-143 322q0 311 169 480t565 169q250 -1 394 -111t144 -321zM731 426q57 0 99 116t42 267q0 66 -47 65q-49 0 -84 -78q-59 -132 -59 -288q0 -46 10 -64t39 -18zM461 240q0 -46 92 -66t222 -28 t261 -26q132 -19 224 -86q92 -68 92 -178q0 -218 -222 -296q-196 -72 -523 -72t-487 54t-161 182q0 104 96 163t253 59t306 -75q-57 -49 -57 -111q0 -34 16 -56t48 -22t58 32q26 30 26 86q0 103 -197 146q-82 16 -165 36t-140 66t-58 122q0 102 134 172q-152 100 -152 307 q0 174 181 294t470 120q387 0 529 -123q67 -59 95 -129t28 -162q0 -174 -180 -293t-472 -118q-178 -1 -305 28q-12 -12 -12 -26z" glyph-name="g_odieresis.liga" horiz-adv-x="2709" unicode="gö"/><glyph d="M563 -148q0 -72 35 -71q59 0 105 177q47 176 47 366t-41 290q-16 -90 -81 -371t-65 -391zM465 -512q-465 0 -465 387q0 119 68 406t134 599q67 312 66 494q0 59 -4 86q139 31 240 31q160 0 240 -68t79 -194q0 -49 -22 -166q211 -10 387 -10l454 10q111 0 170 -46t60 -161 q0 -39 -56 -297t-57 -422q0 -68 8 -123q-137 -31 -241 -30q-317 0 -318 299q0 108 42 276t50 211q-151 -33 -335 -20q195 -139 194 -463q0 -375 -178 -587t-516 -212z" glyph-name="f_dotlessi.liga" horiz-adv-x="1765" unicode="fı"/><glyph d="M991 211q0 -120 10 -197q-145 -31 -249 -30q-166 0 -250 68t-84 191q0 124 60 366q60 241 77 323q-45 4 -98 4t-119 -12l-23 -4q-57 102 -57 222t92 214t260 94q113 0 322 -15t292 -15q84 0 290 21q206 22 255 21q250 0 250 -227q0 -70 -36 -210t-87 -263 q211 301 455 301q115 0 181 -57q66 -58 67 -160q0 -102 -54 -326q-55 -224 -55 -332t11 -168q-125 -37 -232 -36q-155 0 -241 78t-86 227q0 84 22 188q23 104 23 119q0 31 -25 31q-47 0 -79 -114q-50 -178 -50 -366q0 -61 10 -127q-139 -31 -241 -30q-317 0 -318 299 q0 113 56 344q56 230 73 305q-85 -33 -237 -33l-37 2q-14 -70 -81 -323t-67 -373z" glyph-name="T_h.liga" horiz-adv-x="2492" unicode="Th"/><glyph d="M2120 289q0 84 22 188q23 104 23 119q0 31 -25 31q-47 0 -79 -114q-50 -178 -50 -366q0 -61 10 -127q-137 -31 -241 -30q-317 0 -318 299q-225 -305 -653 -305q-263 0 -444 134q-93 68 -149 190t-56 290t48 318q107 336 415 462q169 70 397 70t380 -96t152 -257 t-120 -244t-276 -83q-154 0 -247 49q78 139 78 221t-53 80q-58 0 -108 -134t-50 -280t58 -227q58 -82 215 -82q159 -1 279 97t186 248q132 300 133 608q0 68 -9 118q137 31 240 31q160 1 240 -67t80 -195q0 -70 -36 -210t-87 -263q211 301 454 301q115 0 182 -57 q67 -58 67 -160t-55 -326q-54 -224 -54 -332q0 -109 10 -168q-127 -37 -232 -36q-155 0 -241 78t-86 227z" glyph-name="C_h.liga" horiz-adv-x="2670" unicode="Ch"/><glyph d="M3468 723q-40 0 -77 -58t-36 -143q0 -31 2 -45q152 98 151 197q0 49 -40 49zM9122 903q-88 0 -150 -119t-61 -215q0 -49 29 -49q39 0 71 63t125 320h-14zM10320 -49q0 -111 130 -111q62 0 120 45q92 72 137 259q17 67 25 137q-412 -92 -412 -330zM7166 1317 q0 -158 -108 -232t-281 -73q-354 0 -354 274q0 114 61 186q107 128 328 125q354 1 354 -280zM10826 1235q435 0 530 -686q391 25 905 25t850 139q35 -28 63 -80q28 -51 27 -98q0 -248 -456 -248q-53 1 -503 29t-757 28h-119q-6 -172 -65 -318q-107 -264 -368 -412 q-233 -132 -484 -132q-250 0 -406 99t-155 274q0 463 852 620q-6 231 -94 473q-72 -168 -210 -338t-312 -309t-388 -227q-213 -88 -414 -88q-371 0 -370 245q0 59 22 134q-227 -272 -467 -273q-225 0 -225 236q0 35 8 106q-489 -467 -1093 -467q-160 -1 -234 63t-74 176 t84 245t195 239t265 268q155 162 251 295q-256 0 -371 -12q-25 66 -24 123q0 110 89 176t239 66q68 0 243 -27q43 117 58 227q152 70 312 70t263 -86q104 -86 105 -236q88 -2 112 -2q336 0 576 113q47 -78 47 -160q0 -131 -130 -220t-423 -89q-117 0 -285 14 q-78 -139 -211 -283q-133 -145 -247 -237q-113 -92 -199 -166t-86 -94q0 -33 28 -33q127 0 326 110t342 296t386 282q244 97 492 97t451 -52q-23 -70 -81 -215q-134 -335 -134 -439t90 -105q144 1 356 119t380 308t167 363q155 74 271 74zM6742 948q276 0 276 -205 q0 -239 -208 -475t-540 -386q-333 -150 -671 -150q-264 0 -383 79t-119 232q0 76 77 175q77 100 188 188q220 176 405 286l78 47q-31 -6 -57 -6t-72 8q-283 -240 -694 -478q-221 -128 -460 -212t-425 -84q-121 0 -207 53t-98 160q-125 -88 -283 -144q-157 -56 -321 -56 t-269 108q-455 -342 -1177 -342q-516 0 -930 223q-143 -29 -291 -28q-492 0 -491 239q0 108 100 182t248 74t284 -43q211 108 437 368q94 109 195 227q215 252 470 423q255 172 637 172q80 0 121 -4q320 -25 454 -115t134 -245q0 -99 -52 -203t-148 -192t-251 -144 q-157 -55 -319 -55t-230 49t-67 123q0 109 102 192q27 -16 66 -16q74 1 132 69t58 121t-47 56q-68 0 -144 -70q-76 -71 -163 -187q-86 -116 -181 -246q-94 -130 -234 -276t-290 -250q348 -86 641 -86q489 0 844 158q-12 54 -12 142t51 204q117 264 413 375q165 61 354 61 t273 -66t84 -159q0 -179 -219 -292q-194 -101 -422 -152q41 -63 129 -63q153 -1 306 90q61 38 136 105t193 194t183 196q-139 -4 -234 -12q-25 66 -24 123q0 110 89 176t238 65q86 0 215 -43q139 178 140 297q0 18 -2 29q137 31 249 31q175 0 273 -69t98 -194 q0 -96 -53 -202q76 2 139 16q33 -55 33 -106q0 -84 -83 -140t-239 -57q-55 0 -84 2q-83 -74 -203 -163t-185 -140t-64 -76q0 -39 49 -39q111 0 333 91t548 329q-59 59 -59 141t58 142q60 60 151 59q91 0 140 -50t49 -124q0 -37 -12 -70q116 -51 238 -51t274 27q2 -12 2 -35 q0 -78 -57 -157t-139 -139t-165 -112q-198 -123 -198 -165q0 -33 39 -33t132 53q242 138 367 336q74 118 74 233l-2 29q143 49 281 49z" glyph-name="L_e_t_r_i_t_a_s.liga" horiz-adv-x="13127" unicode="Letritas"/><glyph d="M731 426q57 0 99 116t42 267q0 66 -47 65q-49 0 -84 -78q-59 -132 -59 -288q0 -46 10 -64t39 -18zM461 240q0 -46 92 -66t222 -28t261 -26q132 -19 224 -86q92 -68 92 -178q0 -218 -222 -296q-196 -72 -523 -72t-487 54t-161 182q0 104 96 163t253 59t306 -75 q-57 -49 -57 -111q0 -34 16 -56t48 -22t58 32q26 30 26 86q0 103 -197 146q-82 16 -165 36t-140 66t-58 122q0 102 134 172q-152 100 -152 307q0 174 181 294t470 120q188 0 326 -33q41 188 150 301q110 113 274 113q116 0 194 -55t78 -135t-54 -128q-54 -49 -163 -49 q-14 0 -55 4q-42 63 -100 63t-107 -44q-49 -45 -78 -119q186 -96 187 -332q0 -174 -180 -293t-472 -118q-178 -1 -305 28q-12 -12 -12 -26zM1747 -16q-139 0 -226 63t-87 167t56 328q56 222 56 322t-14 162q113 33 217 33q164 0 260 -85t96 -237q1 -102 -33 -217t-34 -119 q0 -18 20 -18q57 0 101 130q43 131 43 279t-39 234q145 35 252 35q334 0 333 -303q0 -141 -59 -357q-14 -55 -42 -163t-44 -172q-67 -270 -269 -424t-511 -154q-219 0 -323 70q-103 70 -103 180q0 51 24 91q25 40 49 56l25 15q9 -12 29 -30t86 -46q66 -29 139 -29 q163 0 267 119t159 414q-131 -344 -428 -344z" glyph-name="g_y.liga" horiz-adv-x="2648" unicode="gy"/><glyph glyph-name="glyph1" horiz-adv-x="0"/><glyph glyph-name="glyph2" horiz-adv-x="681"/><glyph glyph-name="space" horiz-adv-x="512" unicode=" "/><glyph d="M584 141q0 -117 -82 -170t-197 -53q-254 0 -254 201q0 113 76 166t203 53q254 0 254 -197zM375 436q-238 0 -238 205q0 35 44 289t44 389t-12 225q137 31 242 31q317 0 317 -299q0 -120 -94 -410t-100 -405q-127 -25 -203 -25z" glyph-name="exclam" horiz-adv-x="569" unicode="!"/><glyph d="M800 807q-72 0 -116 39q-43 39 -43 125q0 31 19 141q38 219 -5 375q83 49 177 49t150 -45t56 -129t-57 -250t-57 -260q-52 -45 -124 -45zM386 807q-72 0 -116 39q-43 39 -43 125q-1 31 19 141t20 198q0 86 -24 177q82 49 176 49t150 -45t56 -129t-56 -250 q-58 -166 -58 -260q-52 -45 -124 -45z" glyph-name="quotedbl" horiz-adv-x="800" unicode="&quot;"/><glyph d="M1030 422l111 229q-207 25 -330 33l-109 -231q11 0 328 -31zM1706 316q0 -73 -49 -128t-144 -83t-303 -11q-82 -217 -84 -338q-57 -4 -65 -4q-98 0 -163 39q-64 39 -64 113t61 221q-176 16 -326 22q-102 -260 -104 -391q-57 -4 -66 -4q-227 0 -227 178q0 71 49 166l15 33 q-98 -20 -142 -37q-37 53 -37 146q0 180 144 217q68 16 192 16q12 27 52 111t61 131q-38 4 -146 4t-188 -33q-20 43 -20 92q0 117 73 180q74 63 207 64q68 0 195 -21q74 201 82 326q37 6 75 6q205 0 205 -157q0 -78 -55 -209q264 -25 330 -29q98 244 106 389q37 6 76 6 q205 0 205 -157q0 -76 -66 -236q113 10 189 39q35 -82 34 -143q1 -203 -327 -207h-37l-103 -221q244 0 320 59q45 -76 45 -149z" glyph-name="numbersign" horiz-adv-x="1658" unicode="#"/><glyph d="M1325 825q0 -170 -288 -170q-138 0 -230 54q16 29 16 51t-15 38q-15 15 -40 15q-63 0 -63 -55q0 -41 55 -70q55 -30 133 -52t157 -52t134 -85q55 -56 55 -139q0 -345 -573 -372q-25 -92 -25 -179t31 -159q-66 -45 -154 -45t-152 52t-65 146q0 94 70 193q-145 23 -233 81 q-87 58 -87 152q0 95 79 145t209 50t239 -57q-35 -69 -5 -106q14 -17 37 -17q74 0 74 75q0 43 -56 73t-136 52t-160 55t-136 99t-57 162q-1 133 141 208t390 91q48 196 -8 330q66 45 154 45t152 -52t64 -144q0 -91 -63 -183q356 -37 356 -230z" glyph-name="dollar" horiz-adv-x="1204" unicode="$"/><glyph d="M1452 160q27 0 43 28q15 28 29 94t14 101t-27 35t-42 -27t-29 -103t-15 -93q0 -35 27 -35zM1841 352q0 -178 -96 -273t-320 -95q-143 0 -224 61t-81 184q0 175 96 271t320 96q141 0 223 -62t82 -182zM477 627q27 -1 43 27t30 94t13 102q-1 35 -27 35t-41 -27 q-15 -26 -29 -102t-16 -102q0 -26 27 -27zM866 819q0 -178 -96 -273t-319 -95q-143 0 -225 61q-81 61 -81 184q1 176 97 272t319 95q141 -1 223 -63t82 -181zM672 -256q-104 0 -162 47q-57 47 -57 132q0 150 249 488q104 140 210 283q256 348 270 549q41 4 55 4 q203 0 203 -168q0 -151 -247 -496q-103 -143 -207 -291t-181 -296q-76 -148 -82 -250q-18 -2 -51 -2z" glyph-name="percent" horiz-adv-x="1798" unicode="%"/><glyph d="M686 513q0 -50 34 -77t87 -26q201 0 248 270q-59 0 -94 -1q-183 -5 -247 -83q-28 -33 -28 -83zM1784 557q60 0 110 -41q49 -41 50 -106q0 -186 -152 -316t-424 -131q-107 0 -209 57q-51 29 -84 82t-33 123q0 20 2 31q-92 -141 -225 -212t-272 -71q-186 0 -320 112 q-133 112 -133 281q0 168 100 294t279 153q-131 12 -203 88t-71 186q0 225 200 370q201 144 566 145q272 0 449 -74t177 -188t-98 -168q-97 -54 -223 -54t-203 27q-16 69 -60 103t-106 34q-61 0 -111 -44t-51 -118q0 -120 85 -156t261 -36q0 76 -4 112q86 31 197 31 q112 0 188 -36t76 -103q256 0 369 43q20 -63 20 -131q0 -217 -305 -217q-29 0 -90 4q-2 -6 -26 -116q-24 -109 -24 -167t40 -57q41 0 87 63q45 64 68 189q43 14 103 14z" glyph-name="ampersand" horiz-adv-x="1882" unicode="&amp;"/><glyph d="M367 807q-72 0 -115 39t-43 125q0 31 19 141q38 219 -5 375q83 49 177 49t150 -45t56 -129t-57 -250t-57 -260q-53 -45 -125 -45z" glyph-name="quotesingle" horiz-adv-x="368" unicode="'"/><glyph d="M578 -514q-201 0 -338 219t-138 617q0 231 50 433q87 360 303 569q216 210 440 210q150 0 254 -100q-217 -221 -349 -543t-132 -668t157 -647q-121 -90 -247 -90z" glyph-name="parenleft" horiz-adv-x="802" unicode="("/><glyph d="M264 801q0 346 -158 647q121 90 248 90q201 0 338 -219t137 -617q0 -231 -49 -433t-131 -342q-168 -286 -398 -389q-110 -48 -214 -48q-150 0 -254 100q217 221 349 543t132 668z" glyph-name="parenright" horiz-adv-x="751" unicode=")"/><glyph d="M688 1190v24q-82 -117 -82 -181t35 -93q-31 -63 -101 -63q-70 1 -110 37q-39 36 -39 106t66 142t182 106q-78 18 -141 18q-102 0 -129 -57q-39 6 -70 40t-31 88t46 97t110 43t136 -46t122 -124q-20 236 -121 248l-2 16q0 45 32 80q31 35 97 35t111 -48t45 -118 q0 -115 -90 -231q199 76 198 174q0 12 -2 18q25 10 67 10q42 -1 75 -35q32 -34 32 -103t-60 -116t-144 -47t-166 27q123 -141 202 -141q20 0 41 10q39 -39 39 -91t-41 -87t-92 -35q-83 0 -149 78t-66 219z" glyph-name="asterisk" horiz-adv-x="858" unicode="*"/><glyph d="M547 98q-168 0 -168 170q0 74 22 160q-117 -4 -225 -33q-55 53 -55 134t57 139t166 57l125 -8q6 47 6 98l-12 141q72 29 145 29q166 0 166 -180q0 -49 -10 -111q113 6 205 39q43 -67 43 -147t-58 -134t-176 -55l-84 4q-14 -73 -14 -161t8 -115q-80 -27 -141 -27z" glyph-name="plus" horiz-adv-x="894" unicode="+"/><glyph d="M33 195q0 141 98 204t236 64q303 0 303 -301q0 -212 -114 -356t-271 -144q-101 1 -191 62q66 59 106 119t46 91l8 33q-102 9 -162 67t-59 161z" glyph-name="comma" horiz-adv-x="636" unicode=","/><glyph d="M156 546q0 98 59 158t153 60t201 -14t153 -14t105 20q66 -51 66 -166q0 -215 -225 -215l-283 14q-78 0 -178 -20q-51 79 -51 177z" glyph-name="hyphen" horiz-adv-x="802" unicode="-"/><glyph d="M686 221q0 -133 -91 -196t-243 -64q-303 0 -303 234q0 141 98 204t236 64q303 0 303 -242z" glyph-name="period" horiz-adv-x="636" unicode="."/><glyph d="M721 1532q205 0 205 -158q0 -142 -317 -797q-118 -245 -217 -498t-99 -366q-37 -4 -66 -4q-99 0 -163 39t-64 120t100 312t223 473q122 242 222 496t100 377q37 6 76 6z" glyph-name="slash" horiz-adv-x="677" unicode="/"/><glyph d="M637 347q0 -54 46 -54t75 48q29 49 52 165q24 116 24 178t-52 61q-42 0 -68 -46t-52 -172t-25 -180zM1370 631q0 -311 -169 -479t-564 -168q-254 0 -396 108t-143 322q0 311 169 480t564 169q251 -1 395 -111t144 -321z" glyph-name="zero" unicode="0"/><glyph d="M279 285q0 125 63 358l-133 -27l-21 18t-35 65q-22 52 -22 128t41 126q90 110 483 110q147 0 217 -48t70 -159q0 -39 -56 -297t-56 -374t8 -171q-137 -31 -242 -30q-317 0 -317 301z" glyph-name="one" horiz-adv-x="825" unicode="1"/><glyph d="M624 6q-252 0 -479 -20q-49 78 -49 187t54 177t137 100q143 56 344 98t203 146q0 86 -86 86q-35 0 -59 -26q-23 -26 -23 -68q0 -41 34 -70q-88 -82 -223 -82t-223 55q-88 54 -88 146q0 158 153 243q154 85 433 85q618 0 618 -275q0 -90 -62 -162t-164 -115 q-172 -74 -337 -116q-166 -41 -201 -57q221 55 371 55q291 0 291 -225q0 -66 -16 -113t-33 -63l-17 -15q-326 29 -578 29z" glyph-name="two" horiz-adv-x="1247" unicode="2"/><glyph d="M684 549v-29q-125 -37 -255 -37t-207 68t-77 158q0 354 699 354q252 -1 395 -105t143 -305q0 -79 -30 -149t-72 -113q-91 -91 -158 -117l-28 -12q122 -61 173 -183q22 -50 21 -106q0 -213 -164 -333t-559 -121q-289 0 -437 85t-148 224q0 70 25 125q26 55 52 76l25 20 q49 -43 168 -74q118 -31 232 -31t171 40q57 39 57 81t-20 68q-44 -14 -114 -14t-125 42q-55 41 -55 107t30 127q262 0 344 74q70 65 72 185q1 92 -56 91q-42 0 -72 -50t-30 -146z" glyph-name="three" horiz-adv-x="1294" unicode="3"/><glyph d="M748 362q43 94 107 204q65 110 71 126q-254 -180 -314 -338q97 4 136 8zM971 -510q-348 0 -348 348q0 84 12 162q-262 -4 -512 -29q-78 117 -78 253q0 235 227 407q96 72 194 135q243 157 273 281q170 18 277 18q196 0 306 -68t110 -239q0 -113 -115 -389 q168 -41 168 -187t-90 -231q-127 20 -183 24q-43 -243 -6 -454q-125 -31 -235 -31z" glyph-name="four" horiz-adv-x="1439" unicode="4"/><glyph d="M725 453q302 0 455 -168q82 -90 82 -217q0 -244 -193 -377t-532 -133q-158 0 -283 28t-212 100t-87 192t95 189t244 69t294 -87q-61 -47 -62 -119q0 -72 74 -71q51 0 80 47q29 46 29 112q0 169 -298 218q-75 12 -151 12h-154q27 92 78 240t81 270t48 297q486 -43 1057 8 q23 -11 44 -68t22 -123q0 -283 -402 -282q-151 0 -266 28l-41 9l-53 -174h51z" glyph-name="five" horiz-adv-x="1294" unicode="5"/><glyph d="M717 301q41 0 69 46t29 111q0 65 -39 114t-117 53q-25 -113 -24 -185q0 -139 82 -139zM1380 444q0 -461 -680 -460q-311 0 -445 133t-134 381q0 323 109 574q60 138 152 238t240 164q148 62 334 62q285 0 422 -84t138 -225q0 -70 -26 -125t-52 -76l-25 -20 q-39 32 -121 62t-153 30q-152 0 -257 -64t-173 -241q123 35 223 34q204 -1 326 -113t122 -270z" glyph-name="six" horiz-adv-x="1331" unicode="6"/><glyph d="M573 -510q-178 0 -266 85t-88 230q0 100 59 211q58 111 141 197q179 185 306 270l59 39q-136 27 -296 27t-265 -47q-86 98 -86 239t95 243t276 103q102 1 274 -31t268 -32t199 31q9 -9 25 -27t42 -93t26 -170t-58 -206q-57 -111 -140 -216t-165 -215t-139 -236t-57 -216 t18 -157q-121 -29 -228 -29z" glyph-name="seven" horiz-adv-x="1204" unicode="7"/><glyph d="M909 1032q0 100 -71 101q-35 0 -61 -34t-25 -91q-1 -90 77 -162q80 86 80 186zM594 408q0 -47 20 -77t58 -30t62 35q26 34 26 106t-84 142q-82 -80 -82 -176zM629 -16q-262 0 -411 96q-148 96 -148 260q0 291 352 395q-102 63 -160 137q-57 74 -57 181q0 397 669 397 q256 0 413 -96t157 -277q0 -152 -108 -249t-269 -130q113 -66 175 -136t63 -181q0 -201 -161 -299t-515 -98z" glyph-name="eight" horiz-adv-x="1265" unicode="8"/><glyph d="M778 745q-44 0 -72 -46q-28 -47 -28 -111t39 -113t119 -53q23 102 22 182q0 141 -80 141zM561 217q-203 0 -325 112t-121 271q0 246 170 354q169 108 495 109q326 0 460 -133q134 -134 134 -364t-44 -408q-160 -647 -791 -647q-285 -1 -422 83t-137 226q0 70 25 125 q26 55 52 75l25 21q41 -34 122 -63q81 -30 152 -29q152 -1 256 63t172 240q-123 -35 -223 -35z" glyph-name="nine" horiz-adv-x="1312" unicode="9"/><glyph d="M844 821q0 -133 -91 -196t-243 -64q-303 0 -303 234q0 141 98 204t236 64q303 0 303 -242zM711 221q0 -133 -91 -196t-243 -64q-303 0 -303 234q0 141 98 204t236 64q303 0 303 -242z" glyph-name="colon" horiz-adv-x="684" unicode=":"/><glyph d="M846 821q0 -133 -91 -196t-243 -64q-303 0 -303 234q0 141 98 204t236 64q303 0 303 -242zM76 195q0 141 98 204t236 64q303 0 303 -301q0 -212 -114 -356t-271 -144q-101 1 -191 62q66 59 106 119t48 91l6 33q-101 9 -161 67t-60 161z" glyph-name="semicolon" horiz-adv-x="716" unicode=";"/><glyph d="M750 1047q72 1 124 -45t56 -113q-141 -35 -275 -117t-290 -272q61 -92 193 -198t241 -109q-45 -145 -209 -146q-109 0 -210 96t-274 367q188 297 338 417t306 120z" glyph-name="less" horiz-adv-x="788" unicode="&lt;"/><glyph d="M950 778q0 -82 -53 -135t-147 -53t-214 24q-122 24 -196 23q-74 0 -158 -31q-51 51 -51 128t59 132q59 56 164 56t209 -22q105 -22 169 -22t173 37q45 -55 45 -137zM958 438q0 -82 -59 -137t-186 -55q-55 0 -181 19q-228 34 -368 1q-51 51 -51 128t59 132q60 56 164 56 t227 -22t191 -22t149 37q55 -55 55 -137z" glyph-name="equal" horiz-adv-x="845" unicode="="/><glyph d="M188 47q-72 0 -125 45t-55 113q142 35 276 117t289 272q-61 92 -193 198t-241 109q45 145 209 146q109 -1 210 -97t273 -366q-187 -297 -337 -417t-306 -120z" glyph-name="greater" horiz-adv-x="729" unicode=">"/><glyph d="M631 -63q0 -121 -83 -179t-218 -57q-272 0 -273 211q0 127 88 184t213 58q273 0 273 -217zM480 231q-108 0 -187 65q-78 65 -78 164q0 173 207 318q86 60 173 118q206 136 208 247q0 74 -66 74q-96 0 -96 -158l4 -68q-86 -31 -162 -30q-127 1 -207 73t-79 187 q0 153 173 233t435 80q500 0 500 -328q-1 -117 -47 -214t-127 -169t-286 -226q-69 -50 -115 -124t-46 -160q0 -29 2 -43q-98 -39 -206 -39z" glyph-name="question" horiz-adv-x="1044" unicode="?"/><glyph d="M1327 709q-47 0 -79 -79q-32 -78 -32 -134t25 -56q49 0 94 211q9 36 13 54q-8 4 -21 4zM1417 936q170 0 344 -23l66 -8q-107 -401 -107 -495t76 -95q94 0 163 117t69 295q0 336 -562 336q-208 0 -366 -54t-247 -133q-89 -80 -145 -182q-90 -164 -91 -346t95 -269t234 -87 q92 0 180 35t131 88q109 -81 109 -229t-128 -254t-388 -107q-344 0 -552 189t-208 509q0 211 82 388t221 300t325 209q358 166 816 166q459 0 707 -144t247 -409q0 -301 -220 -493t-585 -193q-180 0 -284 67t-105 181q0 25 2 37q-150 -228 -348 -228t-198 247t147 416 q146 169 520 169z" glyph-name="at" horiz-adv-x="2379" unicode="@"/><glyph d="M1022 988q0 28 -29 28q-55 0 -130 -146t-120 -340q82 0 131 -2q20 92 58 196t64 170t26 94zM848 293v41h-137q-6 -60 -6 -150t30 -172q-133 -31 -248 -30q-190 0 -299 89t-108 269q0 123 56 250t137 231q81 103 163 199t145 188q62 92 70 164q301 78 588 78 q211 0 295 -74t84 -231q0 -92 -49 -265t-99 -371q-50 -199 -51 -311q0 -112 13 -184q-154 -31 -254 -30q-330 0 -330 309z" glyph-name="A" horiz-adv-x="1433" unicode="A"/><glyph d="M874 1110q-30 0 -40 -2q-16 -106 -80 -356q96 14 154 85t58 145t-30 101q-32 27 -62 27zM881 525q0 105 -119 106q-23 0 -37 -2q-49 -215 -66 -367q84 6 153 82t69 181zM1452 432q0 -92 -52 -176t-137 -135q-228 -137 -747 -137q-110 0 -180 9t-133 39q-123 59 -123 249 q0 106 91 465t91 548q0 70 -8 125q266 29 465 29q762 0 762 -375q0 -92 -35 -163q-35 -72 -81 -108t-124 -67t-160 -35q99 -8 210 -47q161 -56 161 -221z" glyph-name="B" horiz-adv-x="1359" unicode="B"/><glyph d="M1432 326q0 -138 -148 -240t-475 -102q-263 0 -444 134q-93 68 -149 190t-56 290t48 318q107 336 415 462q169 70 397 70t380 -96t152 -257t-120 -244t-276 -83q-154 0 -247 49q78 139 78 221t-53 80q-58 0 -108 -134t-50 -282q0 -307 254 -307q88 0 171 26t122 52l39 27 q70 -66 70 -174z" glyph-name="C" horiz-adv-x="1390" unicode="C"/><glyph d="M834 1110q-16 -92 -78 -360t-90 -441q102 0 172 117t118 405q36 199 -17 248q-31 31 -105 31zM695 1450q211 0 359 -36t230 -89t128 -135t58 -152t13 -161q0 -420 -240 -657t-727 -236q-110 0 -180 9t-133 39q-123 59 -123 249q0 106 91 465t91 548q0 70 -8 125 q231 31 441 31z" glyph-name="D" horiz-adv-x="1378" unicode="D"/><glyph d="M1085 758q0 -221 -286 -221q-29 0 -90 4q-3 -21 -11 -55t-10 -44q66 -6 168 -6t207 27l35 8q49 -63 49 -165q0 -173 -92 -249q-72 -58 -271 -69q-74 -4 -238 -4t-278 34q-112 34 -150 94t-38 168t91 466q91 359 91 548q0 70 -8 125q143 31 360 31l428 -12q115 0 215 16 q49 -64 49 -164q1 -171 -83 -238q-85 -68 -250 -80q-68 -5 -164 -5l-18 -88q164 0 253 24q41 -43 41 -145z" glyph-name="E" horiz-adv-x="1122" unicode="E"/><glyph d="M1266 1268q0 -170 -91 -237t-278 -66q-59 0 -90 2q-14 -68 -21 -90q156 -11 273 14q23 -27 23 -149t-93 -182q-92 -58 -233 -58q-39 0 -58 2q-67 -328 -34 -492q-143 -31 -252 -30q-332 0 -332 299q0 106 91 465t91 548q0 70 -8 125q100 31 305 31l459 -12q131 0 199 16 q49 -63 49 -186z" glyph-name="F" horiz-adv-x="1024" unicode="F"/><glyph d="M1026 1448q236 0 405 -87t169 -211t-124 -190q-122 -66 -272 -65q-150 0 -237 45q27 53 27 116t-40 62q-70 0 -120 -156t-52 -302q-1 -295 113 -293q47 -1 81 35t44 73l10 35q-44 4 -70 4t-65 -6q-14 57 -14 110q0 176 190 177q66 1 160 -11q93 -12 165 -12t173 19 q-94 -444 -94 -658q0 -74 8 -121q-106 -27 -191 -26q-213 0 -213 198q-147 -201 -407 -200q-201 0 -357 158t-155 450q0 174 48 324q106 336 414 462q168 70 404 70z" glyph-name="G" horiz-adv-x="1472" unicode="G"/><glyph d="M850 281q0 109 57 333h-184q-72 -301 -72 -471q0 -74 13 -131q-143 -31 -252 -30q-332 0 -332 299q0 106 91 465t91 548q0 70 -8 125q145 31 250 31q166 0 250 -68t84 -180t-66 -393h184q76 299 76 487q0 72 -8 123q145 31 250 31q166 0 250 -68t84 -184t-94 -498 t-93 -561q1 -70 13 -127q-143 -31 -252 -30q-332 0 -332 299z" glyph-name="H" horiz-adv-x="1423" unicode="H"/><glyph d="M80 281q0 106 91 465t91 548q0 70 -8 125q145 31 250 31q166 0 250 -68t84 -184t-94 -498t-93 -561q1 -70 13 -127q-143 -31 -252 -30q-332 0 -332 299z" glyph-name="I" horiz-adv-x="653" unicode="I"/><glyph d="M-272 -57q141 1 198 69t119 271q4 14 47 152q132 425 162 655q14 110 14 194t-8 135q145 31 250 31q166 0 250 -68t84 -194t-89 -490q-89 -362 -182 -655q-145 -457 -548 -457q-166 0 -254 67t-88 173q-1 56 24 117h21z" glyph-name="J" horiz-adv-x="659" unicode="J"/><glyph d="M80 281q0 106 91 465t91 548q0 70 -8 125q145 31 250 31q166 0 250 -68t84 -180t-64 -377q190 109 191 361q0 90 -27 196q131 53 246 54q156 0 248 -102t92 -253t-122 -243t-341 -101q336 -6 336 -291l-15 -217q0 -126 41 -192q-139 -51 -278 -51q-317 0 -318 276l13 225 q0 150 -99 199q-90 -365 -90 -545q1 -72 13 -129q-143 -31 -252 -30q-332 0 -332 299z" glyph-name="K" horiz-adv-x="1368" unicode="K"/><glyph d="M688 442q66 -6 166 -6t184 27l29 8q49 -63 49 -167t-22 -158q-22 -56 -60 -89q-37 -33 -128 -53t-308 -20q-403 0 -480 128q-38 60 -38 168t91 466q91 359 91 548q0 70 -8 125q145 31 250 31q166 0 250 -68t84 -184t-67 -396t-83 -360z" glyph-name="L" horiz-adv-x="1081" unicode="L"/><glyph d="M1292 281q0 59 24 155t48 162l22 68q-68 -106 -112 -236t-45 -226q0 -96 26 -155q-80 -66 -243 -65q-303 0 -303 372q0 145 45 332q-6 -20 -30 -95q-77 -241 -77 -362q0 -122 51 -194q-96 -55 -274 -55t-262 72q-82 72 -82 227q0 106 91 465t91 548q0 70 -8 125 q140 31 274 31t242 -43t162 -124t74 -168t20 -171t-4 -143t-9 -129t-7 -105q297 395 297 768q0 29 -5 66q199 49 408 49q344 0 344 -262q0 -106 -93 -488t-93 -561q0 -70 12 -127q-143 -31 -252 -30q-332 0 -332 299z" glyph-name="M" horiz-adv-x="1871" unicode="M"/><glyph d="M653 135q0 -51 11 -123q-143 -31 -252 -30q-332 0 -332 299q0 106 91 465t91 548q0 70 -8 125q131 29 246 29q114 0 196 -42t129 -106q116 -156 129 -573q98 336 99 578q0 68 -11 114q143 31 250 31q166 0 250 -68t84 -184t-93 -498t-93 -561q0 -70 12 -127 q-176 -29 -235 -28q-262 0 -375 160t-117 470q-9 -56 -23 -111t-23 -106t-13 -85t-8 -80t-5 -97z" glyph-name="N" horiz-adv-x="1441" unicode="N"/><glyph d="M791 311q41 1 75 89t74 312q41 224 41 315t-45 91t-76 -83t-73 -316t-42 -321t46 -87zM758 -16q-281 0 -440 150t-158 444q0 422 230 646t593 224q279 0 441 -144t161 -419q0 -437 -222 -669t-605 -232z" glyph-name="O" horiz-adv-x="1480" unicode="O"/><glyph d="M942 953q0 105 -90 106l-27 -2q-39 -205 -94 -412q99 11 155 107t56 201zM80 281q0 106 91 465t91 548q0 70 -8 125q262 31 477 31q786 0 787 -457q0 -311 -236 -491t-616 -185q-14 -109 -14 -179t12 -126q-143 -31 -252 -30q-332 0 -332 299z" glyph-name="P" horiz-adv-x="1374" unicode="P"/><glyph d="M791 311q41 1 75 89t74 312q41 224 41 315t-45 91t-76 -83t-73 -316t-42 -321t46 -87zM1358 -512q-201 0 -325 99q-144 117 -210 299q-16 44 -20 73l-6 27q-27 -2 -39 -2q-281 0 -440 150t-158 444q0 422 230 646t593 224q279 0 441 -144t161 -419q0 -342 -136 -558 t-384 -298q115 -170 328 -170q59 -1 115 21t81 42l27 23q55 -47 66 -125q10 -78 -20 -152t-114 -127t-190 -53z" glyph-name="Q" horiz-adv-x="1480" unicode="Q"/><glyph d="M942 947q0 111 -90 112l-27 -2q-33 -182 -90 -391q90 0 149 85q58 85 58 196zM651 174q0 -102 13 -162q-143 -31 -252 -30q-332 0 -332 299q0 106 91 465t91 548q0 70 -8 125q262 31 477 31q786 0 787 -457q0 -205 -98 -325t-279 -158q27 -76 91 -121t157 -45q43 0 77 8 q37 -59 37 -146q-1 -87 -69 -155q-68 -67 -214 -67t-264 79q-217 149 -262 424q-43 -211 -43 -313z" glyph-name="R" horiz-adv-x="1433" unicode="R"/><glyph d="M804 1163q-60 0 -60 -73t125 -150q126 -77 234 -171q54 -48 90 -122t36 -162q0 -502 -656 -501q-289 0 -431 85t-142 226q0 113 99 173t231 60t215 -45q-29 -43 -29 -79t18 -56t41 -20q70 0 70 86q0 49 -49 90t-120 80q-70 39 -140 90t-119 141t-49 211q0 208 169 316 t455 108t430 -72t144 -186t-87 -162q-87 -49 -221 -49t-216 45q23 39 22 76q0 61 -60 61z" glyph-name="S" horiz-adv-x="1153" unicode="S"/><glyph d="M991 211q0 -120 10 -197q-145 -31 -249 -30q-166 0 -250 68t-84 191q0 124 60 366q60 241 77 323q-45 4 -98 4t-119 -12l-23 -4q-57 102 -57 222t92 214t260 94q113 0 322 -15q208 -15 320 -15t210 22q62 -66 62 -202t-84 -236t-264 -99l-37 2q-14 -70 -81 -323t-67 -373 z" glyph-name="T" horiz-adv-x="1325" unicode="T"/><glyph d="M1268 1450q166 0 250 -68t84 -194q0 -88 -24 -198t-51 -214q-26 -104 -42 -175q-15 -71 -33 -131t-50 -132t-70 -120q-97 -123 -246 -178q-149 -56 -405 -56q-255 0 -412 116t-156 351q0 94 70 395q71 301 71 467q0 55 -6 106q145 31 250 31q166 0 250 -68t84 -192 t-74 -410t-74 -356t43 -70q71 0 143 182t115 409q43 225 43 331t-10 143q145 31 250 31z" glyph-name="U" horiz-adv-x="1409" unicode="U"/><glyph d="M1257 1450q336 0 336 -299q0 -336 -196 -634q-217 -332 -570 -462q-195 -72 -415 -71q-150 0 -232 78t-82 227q0 92 49 265t100 371q50 199 50 311t-12 183q150 31 250 31q334 0 333 -276q0 -255 -130 -583q-44 -113 -44 -143t29 -30q55 0 126 131t122 339t51 398 q0 76 -8 133q137 31 243 31z" glyph-name="V" horiz-adv-x="1411" unicode="V"/><glyph d="M1237 1450q338 0 338 -285q0 -147 -50 -318q-49 -171 -99 -288t-50 -147t31 -31q57 0 133 145q76 144 132 366t57 415q0 57 -7 112q137 31 248 31q350 0 350 -299q0 -339 -169 -634q-189 -332 -509 -462q-176 -71 -390 -71t-214 145l2 25q-246 -170 -581 -170 q-184 0 -282 69q-97 70 -97 250q0 74 50 242q50 167 99 369q74 303 37 505q129 31 246 31q338 0 338 -262q0 -209 -120 -593q-40 -128 -40 -171t31 -43q53 -1 120 149t113 367q47 217 47 395q0 76 -8 127q135 31 244 31z" glyph-name="W" horiz-adv-x="2136" unicode="W"/><glyph d="M1372 202q0 -120 12 -179q-104 -39 -279 -39t-267 116t-92 272t63 287q-70 -71 -119 -201t-49 -241t18 -194q-109 -39 -258 -39t-237 88t-88 230t121 275q121 132 331 156q-197 49 -244 233q-24 93 -24 214v108q0 88 -12 123q114 39 284 39t262 -116t93 -287 q0 -115 -41 -226q68 97 104 225t37 221q0 93 -12 144q131 39 246 39q168 0 253 -75t85 -189q-1 -156 -137 -301t-349 -180q272 -48 295 -334q4 -49 4 -169z" glyph-name="X" horiz-adv-x="1366" unicode="X"/><glyph d="M383 234q0 118 45 223q-254 47 -254 276q0 68 47 228t47 265t-12 193q150 31 250 31q334 0 334 -276q0 -109 -30 -222t-30 -118q0 -27 35 -27q45 0 84 125t39 267t-53 220q139 31 243 31q336 0 336 -299q0 -250 -126 -412t-353 -235q-65 -254 -18 -490q-131 -30 -267 -30 t-227 66q-90 66 -90 184z" glyph-name="Y" horiz-adv-x="1271" unicode="Y"/><glyph d="M683 4q-245 0 -587 -18q-39 118 -39 226t45 203t111 159q172 168 539 290q-57 -4 -84 -4q-221 0 -329 97t-108 235t72 272q203 -37 498 -37t536 19l76 6q29 -100 29 -209t-47 -212t-117 -176q-181 -189 -616 -345q96 18 176 18q202 0 310 -99t108 -231t-82 -223 q-246 29 -491 29z" glyph-name="Z" horiz-adv-x="1226" unicode="Z"/><glyph d="M1104 1329q0 -131 -92 -191t-217 -61q-37 0 -54 2q-7 -41 -117 -501t-143 -646q23 4 62 5q115 0 176 -67q61 -66 61 -176t-86 -190q-159 17 -286 6q-127 -12 -154 -12q-129 0 -191 67q-61 67 -61 212q0 86 32 254q32 167 122 541t94 393q74 323 154 443t237 120l225 -12 q90 0 189 22q49 -119 49 -209z" glyph-name="bracketleft" horiz-adv-x="876" unicode="["/><glyph d="M407 1731q73 0 148 -33q-6 -63 -6 -103q0 -182 71 -529q72 -347 142 -659q70 -313 70 -407q-1 -176 -179 -176q-55 0 -125 20l-20 9q8 45 8 102q0 174 -69 518q-69 345 -137 661t-68 413t46 141t119 43z" glyph-name="backslash" horiz-adv-x="831" unicode="\"/><glyph d="M2 -293q0 131 92 191t217 61q37 0 54 -2q8 41 117 502q110 461 143 645q-23 -4 -62 -4q-115 0 -176 66t-61 176t86 190q92 -10 158 -10t161 8q94 8 121 8q129 0 190 -67t62 -211q0 -86 -32 -254t-122 -542t-94 -392q-74 -322 -154 -443t-237 -121l-225 13q-91 0 -189 -23 q-49 119 -49 209z" glyph-name="bracketright" horiz-adv-x="909" unicode="]"/><glyph d="M297 727q-63 0 -97 36t-34 95q0 134 180 322t442 366q218 -231 306 -367t88 -284q0 -80 -43 -128t-107 -48q-29 0 -53 8q6 39 6 80q0 207 -217 481q-355 -330 -457 -561h-14z" glyph-name="asciicircum" horiz-adv-x="1015" unicode="^"/><glyph d="M1270 139q0 -84 -65 -143t-201 -59q-56 -1 -314 23t-408 24t-231 -27q-53 53 -53 128t69 128t201 53t378 -24q245 -24 365 -23q120 0 210 31q49 -27 49 -111z" glyph-name="underscore" horiz-adv-x="1271" unicode="_"/><glyph d="M276 1434q0 100 71 151t179 51t197 -51q-37 -45 -37 -110q0 -168 217 -328q-100 -18 -190 -19q-197 0 -317 82t-120 224z" glyph-name="grave" horiz-adv-x="538" unicode="`"/><glyph d="M848 768q-66 0 -107 -111t-41 -192q0 -45 35 -45q54 0 93 151q23 93 46 191q-12 6 -26 6zM805 231q0 31 2 48q-197 -295 -447 -295q-262 0 -262 319q0 259 113 441q124 201 407 278q152 41 350 41t441 -31l86 -10q-8 -31 -35 -132q-125 -468 -125 -710q1 -86 13 -162 q-139 -35 -250 -34q-293 0 -293 247z" glyph-name="a" horiz-adv-x="1343" unicode="a"/><glyph d="M653 274q61 0 103 104t41 174q0 72 -31 73q-88 -1 -123 -349q4 -2 10 -2zM1141 1061q262 0 262 -320q0 -258 -113 -440q-126 -202 -407 -276q-152 -41 -331 -41t-407 26l-69 8q-8 39 -8 97q0 153 101 603t101 640q0 57 -6 106q139 31 240 31q160 0 240 -68 q80 -67 80 -209t-109 -425q188 268 426 268z" glyph-name="b" horiz-adv-x="1335" unicode="b"/><glyph d="M678 -16q-580 0 -580 430q0 154 38 268t125 202q175 179 622 179q252 0 388 -86t136 -222t-122 -208t-267 -72t-232 45q48 98 48 162t-52 63q-57 0 -93 -98t-36 -192q0 -168 191 -168q96 1 186 33t133 65l41 31q41 -8 69 -42t27 -81q0 -141 -176 -225t-446 -84z" glyph-name="c" horiz-adv-x="1288" unicode="c"/><glyph d="M848 768q-66 0 -107 -111t-41 -192q0 -45 35 -45q25 0 38 16t21 28t16 36q7 23 13 40t14 48q7 30 12 52t13 60t15 62q-12 6 -29 6zM803 229q0 31 2 47q-193 -293 -445 -292q-262 0 -262 319q0 409 264 603q94 69 242 112t336 45q31 184 31 269t-6 132q137 31 239 31 q317 0 318 -262q0 -115 -94 -511t-93 -583q0 -72 8 -121q-139 -35 -249 -34q-291 0 -291 245z" glyph-name="d" horiz-adv-x="1339" unicode="d"/><glyph d="M834 688q0 58 -52 57q-43 1 -67 -41t-49 -157q84 4 126 44q42 39 42 97zM1307 283q-1 -104 -97 -174q-175 -127 -532 -125q-266 0 -423 110t-157 320q0 649 785 649q252 0 388 -86t136 -223q0 -113 -94 -193q-178 -151 -498 -149q-74 0 -160 14q14 -139 189 -139 q96 -1 193 29t147 61l49 29q74 -45 74 -123z" glyph-name="e" unicode="e"/><glyph d="M571 -152q0 -68 35 -67q59 0 106 177q46 176 46 366t-41 290q-12 -70 -79 -366t-67 -400zM473 -512q-465 0 -465 387q0 119 68 406t134 599q67 312 66 494q0 59 -4 86q137 31 240 31q160 0 240 -68t79 -194q0 -51 -22 -174q364 -27 518 12q16 -59 16 -115 q0 -231 -290 -231q-31 0 -49 2q164 -145 163 -436q0 -375 -178 -587t-516 -212z" glyph-name="f" horiz-adv-x="1173" unicode="f"/><glyph d="M731 426q57 0 99 116t42 267q0 66 -47 65q-49 0 -84 -78q-59 -132 -59 -288q0 -46 10 -64t39 -18zM461 240q0 -46 92 -66t222 -28t261 -26q132 -19 224 -86q92 -68 92 -178q0 -218 -222 -296q-196 -72 -523 -72t-487 54t-161 182q0 104 96 163t253 59t306 -75 q-57 -49 -57 -111q0 -34 16 -56t48 -22t58 32q26 30 26 86q0 103 -197 146q-82 16 -165 36t-140 66t-58 122q0 102 134 172q-152 100 -152 307q0 174 181 294t470 120q188 0 326 -33q41 188 150 301q110 113 274 113q116 0 194 -55t78 -135t-54 -128q-54 -49 -163 -49 q-14 0 -55 4q-42 63 -100 63t-107 -44q-49 -45 -78 -119q186 -96 187 -332q0 -174 -180 -293t-472 -118q-178 -1 -305 28q-12 -12 -12 -26z" glyph-name="g" horiz-adv-x="1318" unicode="g"/><glyph d="M750 289q0 84 22 188q23 104 23 119q0 31 -25 31q-47 0 -79 -114q-50 -178 -50 -366q0 -61 10 -127q-139 -31 -241 -30q-317 0 -318 299q0 104 92 485t92 574q0 68 -8 118q137 31 240 31q160 1 240 -67t79 -195q1 -70 -35 -210t-87 -263q211 301 454 301q115 0 181 -57 q66 -58 67 -160q0 -102 -54 -326t-54 -332q0 -109 10 -168q-125 -37 -232 -36q-155 0 -241 78t-86 227z" glyph-name="h" horiz-adv-x="1300" unicode="h"/><glyph d="M831 1356q0 -126 -85 -184t-224 -58q-281 0 -280 217q0 129 91 189t218 59q280 0 280 -223zM207 993v35q176 33 296 33q121 0 187 -48t66 -157q0 -39 -56 -297t-57 -422q0 -68 8 -123q-139 -31 -241 -30q-317 0 -318 299q0 105 58 337t57 373z" glyph-name="i" horiz-adv-x="649" unicode="i"/><glyph d="M823 1356q0 -126 -85 -184t-224 -58q-281 0 -281 217q-1 129 91 189t219 59q280 0 280 -223zM-42 -512q-152 0 -255 52q-102 52 -102 163q0 49 20 104q33 -2 49 -2q166 0 247 65t116 212q10 41 78 318t86 403q18 125 18 166t-6 59q162 35 272 35q274 0 275 -209 q0 -43 -8 -84l-158 -772q-18 -94 -66 -181q-178 -329 -566 -329z" glyph-name="j" horiz-adv-x="634" unicode="j"/><glyph d="M1294 268q0 -133 -80 -214t-221 -81q-182 0 -255 135q-64 117 -64 279q0 84 6 127q-37 -184 -37 -310t8 -190q-139 -31 -241 -30q-317 0 -318 299q0 88 93 484t94 579q0 57 -11 114q137 29 248 29q172 0 245 -73q73 -72 73 -184t-18 -200t-64 -219q-45 -131 -54 -160 q174 150 174 291q0 41 -14 78q139 41 262 41t215 -54t92 -155q0 -160 -140 -238t-369 -81q94 -92 237 -93q45 1 102 15q37 -100 37 -189z" glyph-name="k" horiz-adv-x="1280" unicode="k"/><glyph d="M276 1341q0 68 -8 119q137 31 240 31q160 0 240 -68t80 -184q0 -115 -94 -517q-93 -402 -93 -585q0 -62 10 -123q-139 -31 -241 -30q-317 0 -318 299q0 104 92 485t92 573z" glyph-name="l" horiz-adv-x="647" unicode="l"/><glyph d="M203 989v35q160 37 270 37q268 0 268 -197q0 -31 -6 -61q199 260 424 260q119 0 178 -55t60 -142l-6 -61q95 123 207 191t226 67q114 0 180 -57q66 -58 67 -160q-1 -102 -55 -326t-54 -332t10 -168q-127 -37 -231 -36q-156 0 -242 78t-86 227q0 84 23 188t22 119 q0 31 -24 31q-45 1 -79 -103q-54 -163 -57 -364q0 -78 11 -140q-125 -37 -232 -36q-155 0 -241 78t-86 227q0 84 22 188q23 104 23 119q0 31 -25 31q-68 0 -98 -173t-29 -276q0 -103 8 -158q-139 -31 -241 -30q-317 0 -318 299q0 107 56 333t55 367z" glyph-name="m" horiz-adv-x="1968" unicode="m"/><glyph d="M203 989v35q160 37 270 37q268 0 268 -197q0 -31 -6 -61q199 260 424 260q115 0 181 -57q66 -58 67 -160q0 -102 -54 -326q-55 -224 -55 -332t11 -168q-125 -37 -232 -36q-155 0 -241 78t-86 227q0 84 22 188q23 104 23 119q0 31 -25 31q-59 0 -93 -160 q-34 -159 -34 -275t8 -172q-139 -31 -241 -30q-317 0 -318 299q0 107 56 333t55 367z" glyph-name="n" horiz-adv-x="1296" unicode="n"/><glyph d="M637 347q0 -54 46 -54t75 48q29 49 52 165q24 116 24 178t-52 61q-42 0 -68 -46t-52 -172t-25 -180zM1370 631q0 -311 -169 -479t-564 -168q-254 0 -396 108t-143 322q0 311 169 480t564 169q251 -1 395 -111t144 -321z" glyph-name="o" unicode="o"/><glyph d="M807 554q0 70 -31 71q-23 -1 -39 -19q-40 -47 -98 -325q10 -4 25 -5q61 0 102 104t41 174zM0 -145q0 119 92 525t92 504q0 97 -8 148q127 29 240 29q313 0 319 -254q184 254 416 254q262 0 262 -318t-174 -523q-92 -108 -260 -169t-401 -65q-29 -172 -29 -256t10 -144 q-139 -31 -242 -30q-317 0 -317 299z" glyph-name="p" horiz-adv-x="1325" unicode="p"/><glyph d="M848 768q-66 0 -107 -111t-41 -192q0 -45 35 -45q43 0 67 60t45 158t27 124q-12 6 -26 6zM1001 -453q-311 0 -311 283q0 152 103 430q-190 -276 -433 -276q-262 0 -262 319q0 259 113 441q124 201 407 278q152 41 350 41t441 -31l86 -10q-37 -172 -115 -460t-123 -490 t-45 -318q0 -115 31 -176q-141 -31 -242 -31z" glyph-name="q" horiz-adv-x="1331" unicode="q"/><glyph d="M211 983v35q162 37 272 37q266 0 267 -205q0 -63 -25 -141q88 162 201 255t218 93q104 1 164 -63t60 -163q0 -182 -133 -316t-309 -134q-94 0 -178 41q55 72 55 158q0 41 -25 41q-43 0 -85 -162t-42 -275t8 -170q-139 -31 -241 -30q-317 0 -318 299q0 107 56 333t55 367z " glyph-name="r" horiz-adv-x="1234" unicode="r"/><glyph d="M1325 825q0 -171 -288 -169q-138 0 -230 53q16 29 16 51t-15 38q-15 15 -40 15q-63 0 -63 -55q0 -41 55 -70q55 -30 133 -52t157 -52t134 -85q55 -56 55 -139q0 -196 -173 -286t-525 -90q-213 0 -352 63q-138 63 -138 169t79 158q79 50 209 50t239 -57q-35 -69 -5 -106 q14 -17 37 -17q74 0 74 75q0 43 -56 73t-136 52t-160 55t-136 99t-57 162q0 150 179 226t483 77q520 0 524 -238z" glyph-name="s" horiz-adv-x="1204" unicode="s"/><glyph d="M958 557q60 0 109 -41t49 -106q0 -182 -174 -314t-453 -133q-199 0 -298 81t-99 222q0 106 72 400t72 462q0 61 -11 138q135 31 240 30q160 0 240 -70t79 -198q209 0 308 12q26 -54 26 -118t-53 -117t-170 -53q-59 0 -145 22q-12 -59 -51 -214t-40 -222q0 -47 40 -47 q40 -1 86 63t69 189q44 14 104 14z" glyph-name="t" horiz-adv-x="1060" unicode="t"/><glyph d="M1296 57v-34q-160 -37 -270 -37q-268 0 -268 198q0 35 4 56q-190 -256 -422 -256q-248 0 -248 299q0 100 59 339q58 239 58 361l-2 45q139 33 248 33q155 0 225 -76t70 -227q0 -66 -23 -172t-23 -136t25 -30q47 0 78 108q49 172 49 371q0 72 -8 127q145 35 248 35 q311 0 311 -303q1 -106 -55 -333t-56 -368z" glyph-name="u" unicode="u"/><glyph d="M1073 1061q334 0 334 -303q0 -150 -60 -279q-61 -129 -159 -218t-222 -153q-242 -126 -495 -124q-182 0 -281 62q-98 62 -98 168t56 334q56 230 56 324t-14 154q113 33 218 33q164 0 260 -85t96 -237q0 -104 -40 -239t-40 -148q0 -23 18 -22q58 0 106 154t48 310t-35 234 q145 35 252 35z" glyph-name="v" horiz-adv-x="1284" unicode="v"/><glyph d="M860 184v2q-66 -131 -250 -181q-78 -22 -170 -21q-160 0 -254 63t-94 165t58 294q57 194 57 312t-17 208q113 33 218 33q164 0 260 -85t96 -237q0 -104 -40 -239t-40 -148q0 -23 18 -22q58 0 106 154t48 310t-35 234q145 35 250 35q326 0 326 -303q0 -128 -39 -268 t-39 -144q0 -18 16 -18q59 0 107 154t47 310q0 156 -35 234q145 35 252 35q334 0 334 -303q0 -184 -89 -337q-156 -268 -519 -387q-154 -50 -262 -50t-164 19q-90 31 -125 101q-21 43 -21 80z" glyph-name="w" horiz-adv-x="1943" unicode="w"/><glyph d="M1001 -16q-168 0 -255 92t-87 231q0 68 23 142q-115 -119 -115 -287q0 -68 25 -139q-130 -39 -268 -39t-228 76t-90 191q0 116 116 210t324 98q-180 19 -244 77t-63 152l13 168q0 43 -11 68q131 39 246 39q170 0 256 -92t86 -234q0 -66 -18 -129q111 117 110 279 q0 68 -24 135q131 39 268 39t227 -77q90 -76 90 -190t-112 -207t-316 -102q172 -20 234 -77t61 -150l-12 -168l10 -67q-131 -39 -246 -39z" glyph-name="x" horiz-adv-x="1234" unicode="x"/><glyph d="M1421 758v-13q-3 -125 -63 -354t-82 -325q-61 -268 -266 -423t-514 -155q-254 0 -380 80t-126 203q0 65 34 115t80 67q31 -70 107 -114t184 -44q182 0 289 118q106 118 164 415q-131 -344 -428 -344q-139 0 -226 63q-88 63 -88 167t56 324t55 320q0 100 -12 168 q113 33 217 33q164 0 260 -85t96 -237q0 -102 -34 -217t-33 -119q0 -18 20 -18q57 0 100 130q43 131 43 279t-38 234q145 35 251 35q334 0 334 -303z" glyph-name="y" horiz-adv-x="1320" unicode="y"/><glyph d="M666 10q-318 0 -586 -24q-41 111 -41 198q0 121 83 202t189 116q105 35 253 86t229 104q-147 -47 -283 -47t-225 65q-90 65 -90 185t79 192q121 -43 413 -43t517 13l72 4q31 -105 31 -197t-46 -168t-128 -124t-166 -80t-192 -73q-108 -40 -173 -79q207 59 338 59 q295 0 295 -258q0 -106 -78 -176q-173 45 -491 45z" glyph-name="z" horiz-adv-x="1202" unicode="z"/><glyph d="M758 -283q0 -127 -86 -213q-37 14 -121 15q-215 -6 -254 -6q-107 0 -202 53t-95 227q0 100 58 341t59 296q0 109 -80 172q86 27 140 109t75 183q50 250 108 420q33 93 113 153t205 61l188 -12q76 0 166 22q51 -62 51 -154t-61 -162t-205 -69q-98 0 -121 -68 q-10 -31 -19 -97q-34 -248 -136 -347q-51 -47 -127 -70q92 -68 92 -221q0 -92 -37 -238t-37 -165q0 -59 57 -60l111 11q78 0 118 -52t40 -129z" glyph-name="braceleft" horiz-adv-x="821" unicode="{"/><glyph d="M171 -514q-73 0 -122 41t-49 135t84 446t169 741q85 388 85 576q0 55 -4 80q76 29 145 29q166 0 166 -180q0 -98 -82 -452t-164 -739q-82 -386 -82 -564q1 -49 7 -86q-80 -27 -153 -27z" glyph-name="bar" horiz-adv-x="430" unicode="|"/><glyph d="M-33 -352q-1 92 61 162t205 69q98 0 121 68q10 31 20 97q36 254 136 347q51 47 127 70q-92 68 -92 221q0 92 37 238t36 165q0 59 -57 60l-110 -10q-78 0 -118 51t-40 129q0 127 86 213q35 -14 121 -15q215 7 254 7q104 1 193 -49q104 -58 104 -232q-1 -100 -59 -341 t-58 -296q0 -109 80 -172q-86 -27 -141 -108q-54 -82 -74 -184t-48 -214q-28 -113 -61 -206q-32 -93 -112 -153t-205 -61l-189 13q-76 0 -166 -23q-51 62 -51 154z" glyph-name="braceright" horiz-adv-x="937" unicode="}"/><glyph d="M1033 293q-140 0 -314 48t-258 48q-133 0 -283 -78q-57 86 -57 197q0 112 92 194t276 82q96 0 295 -49q200 -49 304 -49t180 59q74 -81 74 -189t-85 -186q-84 -78 -224 -77z" glyph-name="asciitilde" horiz-adv-x="1222" unicode="~"/><glyph d="M721 911q0 -113 -76 -166t-203 -53q-254 0 -254 197q0 117 82 170t197 53q254 0 254 -201zM317 -545q-317 0 -317 299q0 121 94 411t101 404q127 25 202 25q238 0 238 -205q0 -35 -44 -289t-44 -390t12 -224q-139 -31 -242 -31z" glyph-name="exclamdown" horiz-adv-x="618" unicode="¡"/><glyph d="M694 -389q-168 0 -168 170q0 84 35 209q-463 37 -463 424q0 276 139 445q139 170 508 200q31 165 7 301q76 29 145 29q166 0 166 -181q0 -74 -21 -155q148 -19 236 -77t88 -142q0 -62 -33 -104t-65 -54l-33 -10q-129 94 -301 94q-131 0 -206 -81t-75 -224 q0 -168 191 -168q96 1 186 25t131 48l41 27q39 -8 65 -44t25 -85q0 -114 -122 -180t-312 -84q-45 -191 -22 -356q-80 -27 -142 -27z" glyph-name="cent" horiz-adv-x="1247" unicode="¢"/><glyph d="M1022 1579q292 0 372 -179q15 -36 15 -73t-18 -76t-35 -55l-19 -16q-80 31 -143 30q-158 0 -238 -166h41q63 0 90 3q21 -45 21 -108t-51 -117t-162 -54h-18l-74 -326q66 -6 166 -6t184 27l29 8q49 -63 49 -186q0 -172 -95 -236q-96 -63 -266 -63l-415 22q-111 0 -185 -26 q-76 86 -76 196t56 312q55 204 69 294q-72 -4 -131 -10q-26 53 -26 118t53 118t170 53q91 281 235 399t402 117z" glyph-name="sterling" horiz-adv-x="1198" unicode="£"/><glyph d="M797 313q96 0 153 86q58 87 58 173t-39 120t-82 33q-93 0 -149 -86t-56 -172t37 -120t78 -34zM768 31q-186 0 -309 69q-94 -80 -191 -235q-106 12 -158 62t-53 122q0 154 222 266q-14 49 -15 109q0 182 68 307q-96 94 -269 178q-1 105 45 169t130 64t142 -51 q59 -52 101 -104q41 -51 49 -59q162 86 402 86q152 0 270 -60q74 66 168 211q106 -12 158 -61t53 -124q0 -75 -48 -129t-134 -110q23 -57 22 -120q0 -211 -100 -355q80 -68 225 -133q-2 -98 -47 -166t-133 -67q-135 0 -270 190q-142 -59 -328 -59z" glyph-name="currency" horiz-adv-x="1523" unicode="¤"/><glyph d="M1757 360q0 -133 -241 -133q-29 0 -132 9q-102 -78 -235 -121q-39 -147 -39 -268t20 -222q-131 -31 -267 -31t-226 66t-90 184t45 224q-190 37 -240 174q-94 -4 -202 -19q-48 53 -48 107q-1 125 250 125q6 31 15 53q-107 -4 -166 -16l-23 -7q-31 39 -31 101 q0 131 236 131h37q10 77 10 157t-10 156q150 31 250 31q334 0 334 -277q0 -110 -30 -222t-30 -118q0 -27 35 -26q45 0 84 125t39 267t-53 220q137 31 243 31q336 0 336 -299v-21l-2 -32q86 6 129 14q47 -53 47 -102q0 -127 -223 -132q-6 -18 -23 -51q116 5 170 23 q31 -39 31 -101z" glyph-name="yen" horiz-adv-x="1699" unicode="¥"/><glyph d="M168 -512q-168 0 -168 170q0 82 61 350t74 412q57 20 122 20t112 -34t47 -107q0 -25 -37 -194t-56 -295q-20 -126 -20 -198t4 -97q-80 -27 -139 -27zM374 582q-64 0 -105 38q-40 38 -40 107q1 69 55 299t54 387q0 59 -2 92q76 29 141 29q154 0 154 -180q-1 -102 -59 -354 t-58 -341q0 -26 2 -38q-78 -39 -142 -39z" glyph-name="brokenbar" horiz-adv-x="430" unicode="¦"/><glyph d="M1090 1102q0 61 -60 61t-61 -83q0 -48 57 -186t127 -276t127 -294q57 -158 57 -256q1 -223 -151 -378t-381 -186q96 78 158 204q61 126 61 262t-54 290t-121 283t-121 277t-54 249q0 169 137 275t333 106t322 -75q125 -75 125 -185t-87 -160q-87 -49 -221 -49t-216 45 q23 39 23 76zM516 -90q0 -37 20 -56t52 -20q143 0 -28 356q-93 195 -186 412t-93 344q0 203 157 338q158 135 367 148q-27 -13 -68 -52q-41 -38 -67 -78t-50 -109q-22 -69 -22 -157t54 -240q54 -151 121 -282t121 -288t54 -269q0 -205 -125 -337t-353 -132t-349 88t-121 213 t99 185t231 60t215 -44q-29 -43 -29 -80z" glyph-name="section" horiz-adv-x="1359" unicode="§"/><glyph d="M1436 1346q0 -117 -79 -171t-210 -55q-264 0 -264 203q0 123 85 178t206 55q262 1 262 -210zM823 1346q0 -117 -79 -171t-209 -55q-264 0 -265 203q0 123 85 178t206 55q262 1 262 -210z" glyph-name="dieresis" horiz-adv-x="1165" unicode="¨"/><glyph d="M975 1070q0 -50 -71 -84t-179 -34q-233 0 -233 172q0 127 70 195q71 68 245 67q100 0 156 -34q55 -35 55 -90t-49 -84t-105 -29t-96 18q20 41 20 66t-20 24q-25 -1 -39 -39t-14 -77q0 -68 79 -68t126 41l16 12q39 -6 39 -56zM1069 1184q0 150 -80 222q-81 71 -223 71 t-238 -88t-96 -241q0 -290 291 -290q147 0 247 88q99 88 99 238zM1253 1214q-1 -238 -153 -372t-375 -133q-223 0 -351 105t-128 304q0 240 157 374q158 134 373 134t346 -108t131 -304z" glyph-name="copyright" horiz-adv-x="1048" unicode="©"/><glyph d="M657 1366q-39 0 -63 -63t-23 -101q0 -38 21 -37q32 0 60 116q6 22 20 81q-8 4 -15 4zM633 1057v26q-115 -170 -258 -170q-152 0 -152 190q0 191 116 311t386 120q122 0 258 -16l49 -7q-15 -69 -32 -127q-60 -208 -60 -356q0 -49 6 -94q-82 -20 -145 -21q-168 1 -168 144z " glyph-name="ordfeminine" horiz-adv-x="763" unicode="ª"/><glyph d="M602 903q172 0 186 -178q-88 0 -183 -58t-165 -169q37 -56 107 -96t153 -42q-14 -197 -172 -196q-186 0 -300 151q-40 53 -59 89t-52 102q201 397 485 397zM1182 903q172 0 186 -178q-88 0 -183 -58t-165 -169q36 -56 106 -96t154 -42q-14 -197 -172 -196 q-186 0 -300 151q-40 53 -59 89t-53 102q201 397 486 397z" glyph-name="guillemotleft" horiz-adv-x="1239" unicode="«"/><glyph d="M131 539q0 113 67 157q68 44 192 45q124 0 301 -16t269 -16t164 26q57 -45 58 -147q0 -61 -33 -199t-12 -264q-73 -27 -143 -27t-117 42t-47 116t53 162q-66 -8 -121 -8l-359 18q-135 0 -225 -37q-47 70 -47 148z" glyph-name="logicalnot" horiz-adv-x="1091" unicode="¬"/><glyph d="M762 1292h-10q-10 -59 -29 -127q29 0 48 28q19 27 19 63t-28 36zM621 946q-106 0 -107 96q0 35 33 166t22 199q86 10 154 10q252 0 252 -145q0 -133 -121 -156q18 -53 80 -53q16 0 24 2q12 -25 13 -43q0 -76 -92 -76q-68 0 -113 50t-55 112q-20 -97 -11 -152 q-51 -10 -79 -10zM1061 1184q0 150 -80 222q-81 71 -223 71t-238 -88t-96 -241q0 -290 291 -290q147 0 247 88q99 88 99 238zM1245 1214q-1 -238 -153 -372t-376 -133q-224 0 -350 105q-128 105 -128 304q0 240 157 374q158 134 373 134t346 -108t131 -304z" glyph-name="registered" horiz-adv-x="1032" unicode="®"/><glyph glyph-name="macron" horiz-adv-x="0" unicode="¯"/><glyph d="M719 1180q0 53 -38 91t-91 38t-91 -38t-38 -91t38 -91t91 -38t91 38t38 91zM948 1180q0 -150 -104 -253t-254 -103t-253 102q-103 104 -104 254t103 254t254 104t254 -104t104 -254z" glyph-name="degree" horiz-adv-x="714" unicode="°"/><glyph d="M821 166q0 -62 -47 -106t-141 -44q-47 0 -143 12t-176 13q-78 0 -169 -27q-45 44 -45 108t47 111t134 48q45 -1 147 -13t183 -12t173 31q37 -59 37 -121zM381 467q0 57 16 127q-90 0 -180 -25q-45 43 -45 107t47 112t115 48t119 -7q6 39 6 83t-10 110q59 25 116 25 q133 0 133 -148q0 -31 -8 -88q90 4 166 31q35 -57 35 -120t-47 -107t-142 -44q-47 0 -69 2q-10 -66 -10 -117t6 -104q-61 -23 -115 -22q-133 0 -133 137z" glyph-name="plusminus" horiz-adv-x="772" unicode="±"/><glyph d="M672 1323q0 49 -51 49q-19 0 -33 -15t-14 -38t20 -41q-53 -47 -130 -47t-128 32t-51 85q0 90 89 139t249 49q358 0 358 -158q0 -82 -83 -134t-215 -86t-144 -40q123 31 215 31q168 0 168 -129q0 -37 -10 -65t-19 -35l-8 -9q-368 27 -613 4q-28 45 -28 113t44 111t107 60 t125 31q152 32 152 93z" glyph-name="uni00B2" horiz-adv-x="737" unicode="²"/><glyph d="M991 1298q0 -145 -168 -223l4 -2q3 -4 9 -7q58 -32 89 -98q11 -29 11 -59q0 -262 -418 -262q-168 0 -254 49t-86 129q0 79 60 127q30 -27 98 -44t133 -17q65 1 99 23t34 48t-12 37q-37 -8 -72 -8q-34 0 -66 25q-32 24 -32 62t16 73q147 0 195 37q47 37 47 123 q0 41 -33 41q-23 0 -41 -29t-18 -84v-16q-186 -50 -267 17q-45 38 -45 91q0 203 406 203q145 0 228 -59t83 -177z" glyph-name="uni00B3" horiz-adv-x="776" unicode="³"/><glyph d="M932 1459q0 -97 -82 -179t-191 -119t-197 -37t-140 20t-72 42l-19 20q258 158 258 355l-2 30q103 57 207 57t171 -45q67 -46 67 -144z" glyph-name="acute" horiz-adv-x="585" unicode="´"/><glyph d="M522 -352q-124 -160 -311 -160q-92 0 -162 74q-69 74 -69 232t107 597q108 438 108 592l-2 45q139 33 247 33q156 0 226 -76t69 -227q-1 -66 -23 -172t-22 -136t25 -30q47 0 78 108q49 172 49 371q0 72 -8 127q145 35 247 35q311 0 312 -303q1 -106 -55 -333t-56 -368 v-34q-160 -37 -270 -37q-268 0 -269 198q0 35 5 56q-72 -98 -167 -169t-169 -71q-16 0 -25 2q-8 -38 -8 -106t41 -139t102 -109z" glyph-name="uni00B5" horiz-adv-x="1286" unicode="µ"/><glyph d="M1419 -194q0 -173 64 -214q-13 -24 -61 -46t-101 -21q-90 0 -152 73q-61 73 -61 255t97 580t196 697l96 300l279 -25q-2 -8 -10 -32q-8 -25 -55 -191q-48 -166 -101 -361t-122 -519t-69 -496zM922 -494q-119 0 -198 78t-79 260q0 350 301 912q-104 -182 -244 -282 t-280 -99q-262 0 -262 319q0 340 236 549q237 209 689 209l375 -20q-96 -276 -202 -609q-107 -333 -130 -423q-22 -90 -70 -281q-48 -189 -48 -359t75 -219q-82 -35 -163 -35z" glyph-name="paragraph" horiz-adv-x="1529" unicode="¶"/><glyph d="M504 541q0 -84 -58 -123t-151 -39q-188 0 -189 145q0 88 62 128t147 40q189 1 189 -151z" glyph-name="periodcentered" horiz-adv-x="397" unicode="·"/><glyph d="M717 -311q0 -135 -117 -216t-321 -81q-350 0 -351 205q0 71 56 107t150 36q93 0 177 -47q-37 -27 -37 -73t43 -46q31 0 49 26q17 26 17 60q0 57 -87 90t-183 33h-95q35 113 53 167q19 54 27 79l316 20l-29 -104q137 -5 235 -63t97 -193z" glyph-name="cedilla" horiz-adv-x="790" unicode="¸"/><glyph d="M369 1087q0 76 37 207l-78 -16q-45 29 -45 109q0 79 63 113t240 34q86 0 126 -28t40 -91q0 -23 -33 -170t-33 -211t6 -102q-82 -18 -141 -19q-182 0 -182 174z" glyph-name="uni00B9" horiz-adv-x="514" unicode="¹"/><glyph d="M567 1092q27 0 43 28t30 90q14 64 13 103t-27 39t-41 -27t-29 -97t-16 -102q0 -34 27 -34zM965 1286q-1 -178 -99 -275t-325 -98q-147 1 -229 63t-83 185q1 177 99 275t325 98q143 0 227 -64t85 -184z" glyph-name="ordmasculine" horiz-adv-x="735" unicode="º"/><glyph d="M844 164q-172 0 -187 178q88 0 184 58q95 58 165 169q-37 55 -107 95t-154 43q14 197 173 196q121 0 222 -70q38 -28 78 -81t59 -89t52 -102q-201 -397 -485 -397zM264 164q-172 0 -186 178q88 0 183 58t165 169q-37 55 -107 95t-153 43q14 197 172 196q186 0 300 -151 q40 -53 60 -89t52 -102q-201 -397 -486 -397z" glyph-name="guillemotright" horiz-adv-x="1251" unicode="»"/><glyph d="M1231 203q25 53 61 116q37 63 41 74q-150 -111 -180 -194q25 0 78 4zM1485 -160q0 -58 10 -123q-70 -18 -135 -18q-201 0 -201 201q0 51 6 94q-166 -4 -295 -17q-45 68 -45 153q-1 85 57 156q58 70 129 112q196 115 216 200q88 10 180 10q219 0 219 -178q0 -68 -65 -223 q96 -25 96 -108t-51 -134l-107 15q-14 -82 -14 -140zM164 614q0 76 37 207l-78 -14q-45 29 -45 109t63 114t240 33q86 0 126 -28t40 -91q0 -23 -33 -171q-33 -149 -33 -213t6 -101q-84 -18 -141 -19q-182 0 -182 174zM461 -256q-104 0 -162 47q-57 47 -57 132q0 152 250 488 q104 140 209 283q256 348 270 549q41 4 55 4q203 0 203 -168q0 -151 -247 -496q-104 -143 -208 -291t-180 -296t-82 -250q-18 -2 -51 -2z" glyph-name="onequarter" horiz-adv-x="1652" unicode="¼"/><glyph d="M1276 -2q-129 0 -266 -12q-29 44 -29 112t44 111q43 43 107 60t126 31q151 33 151 93q0 49 -51 49q-20 0 -34 -15t-13 -38q0 -23 20 -41q-53 -47 -130 -47t-128 32t-51 85q0 90 89 139t249 49q358 0 358 -157q0 -83 -83 -135t-215 -86t-144 -40q123 31 215 31 q168 0 168 -129q0 -79 -29 -100l-8 -8q-217 16 -346 16zM238 614q0 76 36 207l-77 -14q-45 29 -45 109t63 114t240 33q86 0 126 -28t40 -91q0 -23 -33 -171q-33 -149 -33 -213t6 -101q-84 -18 -141 -19q-182 0 -182 174zM528 -256q-104 0 -161 47t-57 132q-1 149 249 488 q104 140 210 283q254 346 269 549q41 4 56 4q203 0 202 -168q0 -152 -246 -496q-104 -143 -208 -291t-180 -296t-82 -250q-18 -2 -52 -2z" glyph-name="onehalf" horiz-adv-x="1662" unicode="½"/><glyph d="M1444 203q25 53 61 116q37 63 41 74q-147 -104 -180 -194q25 0 78 4zM549 1075v-16q-187 -51 -266 18q-45 39 -45 90q0 205 403 205q147 0 230 -60t83 -175q0 -55 -22 -101q-37 -75 -146 -125l5 -2q4 -4 9 -7q99 -59 99 -157q0 -262 -418 -262q-168 0 -254 49t-86 130 q0 78 60 126q29 -27 97 -44t134 -17q65 0 99 23t34 48t-12 38q-37 -8 -71 -8t-67 24q-32 25 -32 63t16 72q147 0 195 37q47 37 47 123q0 43 -33 43q-23 0 -41 -30t-18 -85zM1698 -160q0 -58 10 -123q-74 -18 -135 -18q-201 0 -201 201q0 51 6 94q-166 -4 -295 -17 q-45 68 -45 153t58 156q58 70 128 112q194 113 214 200q92 10 159 10q242 0 242 -178q0 -61 -67 -223q98 -25 98 -109t-53 -133l-105 15q-14 -82 -14 -140zM729 -256q-104 0 -162 47q-57 47 -57 132q0 149 250 488q104 140 210 283q254 346 269 549q41 4 55 4 q203 0 203 -168q0 -151 -247 -496q-104 -143 -208 -291t-180 -296t-82 -250q-18 -2 -51 -2z" glyph-name="threequarters" horiz-adv-x="1918" unicode="¾"/><glyph d="M1227 1108q0 -127 -88 -184t-213 -58q-272 0 -273 217q0 121 83 179t218 57q273 0 273 -211zM479 -514q-500 0 -499 328q0 117 46 214t128 170t285 225q69 50 115 124t46 160q0 29 -2 43q98 38 207 38t187 -64t77 -164q0 -174 -208 -318q-87 -60 -173 -118 q-205 -137 -207 -247q0 -74 66 -74q96 0 96 158l-4 68q86 31 162 30q127 -1 207 -73t79 -187q0 -153 -173 -233t-435 -80z" glyph-name="questiondown" horiz-adv-x="1136" unicode="¿"/><glyph d="M1274 1516q-197 0 -317 82t-119 223q0 100 70 151t178 51t198 -51q-37 -47 -37 -110q0 -168 217 -328q-100 -18 -190 -18zM1022 988q0 28 -29 28q-55 0 -130 -146t-120 -340q82 0 131 -2q20 92 58 196t64 170t26 94zM848 293v41h-137q-6 -60 -6 -150t30 -172 q-133 -31 -248 -30q-190 0 -299 89t-108 269q0 123 56 250t137 231q81 103 163 199t145 188q62 92 70 164q301 78 588 78q211 0 295 -74t84 -231q0 -92 -49 -265t-99 -371q-50 -199 -51 -311q0 -112 13 -184q-154 -31 -254 -30q-330 0 -330 309z" glyph-name="Agrave" horiz-adv-x="1433" unicode="À"/><glyph d="M1704 1846q0 -98 -82 -179q-82 -82 -190 -119t-197 -37q-88 1 -141 21t-72 41l-18 20q258 158 258 355l-2 30q102 58 206 58t172 -46q66 -46 66 -144zM1022 988q0 28 -29 28q-55 0 -130 -146t-120 -340q82 0 131 -2q20 92 58 196t64 170t26 94zM848 293v41h-137 q-6 -60 -6 -150t30 -172q-133 -31 -248 -30q-190 0 -299 89t-108 269q0 123 56 250t137 231q81 103 163 199t145 188q62 92 70 164q301 78 588 78q211 0 295 -74t84 -231q0 -92 -49 -265t-99 -371q-50 -199 -51 -311q0 -112 13 -184q-154 -31 -254 -30q-330 0 -330 309z" glyph-name="Aacute" horiz-adv-x="1433" unicode="Á"/><glyph d="M1412 1489q-100 1 -141 67q-40 66 -40 148l4 51q-160 -55 -160 -182q0 -14 4 -39q-59 -39 -148 -39t-146 35q-56 34 -56 110t43 136q75 105 261 150q138 34 325 34l188 -8q-2 -25 -2 -64q0 -197 84 -258q0 -61 -58 -101t-158 -40zM1022 988q0 28 -29 28q-55 0 -130 -146 t-120 -340q82 0 131 -2q20 92 58 196t64 170t26 94zM848 293v41h-137q-6 -60 -6 -150t30 -172q-133 -31 -248 -30q-190 0 -299 89t-108 269q0 123 56 250t137 231q81 103 163 199t145 188q62 92 70 164q301 78 588 78q211 0 295 -74t84 -231q0 -92 -49 -265t-99 -371 q-50 -199 -51 -311q0 -112 13 -184q-154 -31 -254 -30q-330 0 -330 309z" glyph-name="Acircumflex" horiz-adv-x="1433" unicode="Â"/><glyph d="M1731 1786q0 -108 -84 -187q-85 -77 -225 -77t-298 48t-229 48q-121 0 -270 -78q-57 86 -57 196t91 194q92 83 277 83q96 0 278 -49t274 -49t169 59q74 -80 74 -188zM1022 988q0 28 -29 28q-55 0 -130 -146t-120 -340q82 0 131 -2q20 92 58 196t64 170t26 94zM848 293v41 h-137q-6 -60 -6 -150t30 -172q-133 -31 -248 -30q-190 0 -299 89t-108 269q0 123 56 250t137 231q81 103 163 199t145 188q62 92 70 164q301 78 588 78q211 0 295 -74t84 -231q0 -92 -49 -265t-99 -371q-50 -199 -51 -311q0 -112 13 -184q-154 -31 -254 -30q-330 0 -330 309 z" glyph-name="Atilde" horiz-adv-x="1433" unicode="Ã"/><glyph d="M1718 1733q0 -117 -79 -171t-209 -55q-264 0 -265 203q0 123 85 178t206 56q262 0 262 -211zM1106 1733q0 -117 -79 -171t-210 -55q-264 0 -264 203q0 123 85 178t206 56q262 0 262 -211zM1022 988q0 28 -29 28q-55 0 -130 -146t-120 -340q82 0 131 -2q20 92 58 196 t64 170t26 94zM848 293v41h-137q-6 -60 -6 -150t30 -172q-133 -31 -248 -30q-190 0 -299 89t-108 269q0 123 56 250t137 231q81 103 163 199t145 188q62 92 70 164q301 78 588 78q211 0 295 -74t84 -231q0 -92 -49 -265t-99 -371q-50 -199 -51 -311q0 -112 13 -184 q-154 -31 -254 -30q-330 0 -330 309z" glyph-name="Adieresis" horiz-adv-x="1433" unicode="Ä"/><glyph d="M1208 1534q39 0 61 44t21 93q0 86 -53 86q-37 0 -59 -46t-21 -95q0 -82 51 -82zM1022 988q0 28 -29 28q-55 0 -130 -146t-120 -340q82 0 131 -2q20 92 58 196t64 170t26 94zM1442 1423q176 -54 176 -268q0 -102 -49 -275t-99 -371q-50 -199 -51 -311q0 -112 13 -184 q-154 -31 -254 -30q-330 0 -330 309v41h-137q-6 -60 -6 -150t30 -172q-133 -31 -248 -30q-190 0 -299 89t-108 269q0 123 56 250t137 231q81 103 163 199t145 188q62 92 70 164q117 31 273 53q-90 49 -90 158q0 168 123 240q125 71 305 71t266 -45t86 -159q0 -195 -172 -267 z" glyph-name="Aring" horiz-adv-x="1433" unicode="Å"/><glyph d="M1022 984q0 32 -29 32q-55 0 -130 -146t-120 -340q85 0 134 -2q27 115 86 270q59 154 59 186zM1575 967h-19q-6 -29 -22 -86h35q143 0 227 22q41 -43 41 -145q0 -221 -289 -221q-53 0 -108 6q-16 -70 -23 -103q57 -6 167 -6t202 29l35 8q49 -63 49 -165q0 -173 -92 -249 q-72 -58 -271 -69q-73 -4 -227 -4q-277 0 -356 76q-78 76 -76 225v49h-137q-6 -60 -6 -150t30 -172q-133 -31 -248 -30q-190 0 -299 89t-108 269q0 123 56 250t137 231q81 103 163 199t145 188q62 92 70 164q209 50 347 64t339 14l428 -12q115 0 215 16q49 -63 50 -186 q0 -176 -117 -238t-338 -63z" glyph-name="AE" horiz-adv-x="1824" unicode="Æ"/><glyph d="M1233 -311q0 -135 -117 -216t-321 -81q-350 0 -351 205q0 71 56 107t150 36q93 0 177 -47q-37 -27 -37 -73t44 -46q31 0 48 26t17 60q0 57 -87 90t-183 33h-94q4 12 71 223q-202 48 -324 192t-122 394q0 358 195 596q99 120 267 190t398 70q228 0 380 -96t152 -257 t-120 -244t-276 -83q-154 0 -247 49q78 139 78 221t-53 80q-58 0 -108 -134t-50 -282q0 -307 254 -307q88 0 171 26t122 52l39 27q70 -66 70 -184t-124 -215q-125 -97 -397 -113l-10 -43q137 -5 235 -63t97 -193z" glyph-name="Ccedilla" horiz-adv-x="1390" unicode="Ç"/><glyph d="M973 1516q-197 0 -317 82t-119 223q0 100 70 151q71 51 179 51t197 -51q-37 -47 -37 -110q0 -168 217 -328q-102 -18 -190 -18zM1085 758q0 -221 -286 -221q-29 0 -90 4q-3 -21 -11 -55t-10 -44q66 -6 168 -6t207 27l35 8q49 -63 49 -165q0 -173 -92 -249 q-72 -58 -271 -69q-74 -4 -238 -4t-278 34q-112 34 -150 94t-38 168t91 466q91 359 91 548q0 70 -8 125q143 31 360 31l428 -12q115 0 215 16q49 -64 49 -164q1 -171 -83 -238q-85 -68 -250 -80q-68 -5 -164 -5l-18 -88q164 0 253 24q41 -43 41 -145z" glyph-name="Egrave" horiz-adv-x="1122" unicode="È"/><glyph d="M862 1511q-88 1 -141 21t-72 41l-18 20q258 158 258 355l-2 30q103 58 207 58t171 -46t67 -144t-83 -179q-83 -82 -191 -119t-196 -37zM1085 758q0 -221 -286 -221q-29 0 -90 4q-3 -21 -11 -55t-10 -44q66 -6 168 -6t207 27l35 8q49 -63 49 -165q0 -173 -92 -249 q-72 -58 -271 -69q-74 -4 -238 -4t-278 34q-112 34 -150 94t-38 168t91 466q91 359 91 548q0 70 -8 125q143 31 360 31l428 -12q115 0 215 16q49 -64 49 -164q1 -171 -83 -238q-85 -68 -250 -80q-68 -5 -164 -5l-18 -88q164 0 253 24q41 -43 41 -145z" glyph-name="Eacute" horiz-adv-x="1120" unicode="É"/><glyph d="M1018 1489q-100 1 -140 67t-40 148l4 51q-160 -55 -160 -182q0 -14 4 -39q-58 -39 -148 -39t-146 35q-56 34 -56 110t43 136q75 106 261 150q138 34 325 34l188 -8q-2 -25 -2 -64q0 -197 84 -258q0 -61 -58 -101q-59 -40 -159 -40zM1085 758q0 -221 -286 -221 q-29 0 -90 4q-3 -21 -11 -55t-10 -44q66 -6 168 -6t207 27l35 8q49 -63 49 -165q0 -173 -92 -249q-72 -58 -271 -69q-74 -4 -238 -4t-278 34q-112 34 -150 94t-38 168t91 466q91 359 91 548q0 70 -8 125q143 31 360 31l428 -12q115 0 215 16q49 -64 49 -164q1 -171 -83 -238 q-85 -68 -250 -80q-68 -5 -164 -5l-18 -88q164 0 253 24q41 -43 41 -145z" glyph-name="Ecircumflex" horiz-adv-x="1122" unicode="Ê"/><glyph d="M731 1733q0 -117 -79 -171t-210 -55q-264 0 -264 203q0 123 85 178t206 56q262 0 262 -211zM1343 1733q-1 -117 -79 -171t-209 -55q-264 0 -264 203q0 123 85 178t205 56q262 0 262 -211zM1085 758q0 -221 -286 -221q-29 0 -90 4q-3 -21 -11 -55t-10 -44q66 -6 168 -6 t207 27l35 8q49 -63 49 -165q0 -173 -92 -249q-72 -58 -271 -69q-74 -4 -238 -4t-278 34q-112 34 -150 94t-38 168t91 466q91 359 91 548q0 70 -8 125q143 31 360 31l428 -12q115 0 215 16q49 -64 49 -164q1 -171 -83 -238q-85 -68 -250 -80q-68 -5 -164 -5l-18 -88 q164 0 253 24q41 -43 41 -145z" glyph-name="Edieresis" horiz-adv-x="1122" unicode="Ë"/><glyph d="M606 1516q-196 0 -316 82t-120 223q0 100 71 151t179 51t196 -51q-37 -47 -36 -110q0 -168 217 -328q-100 -18 -191 -18zM80 281q0 106 91 465t91 548q0 70 -8 125q145 31 250 31q166 0 250 -68t84 -184t-94 -498t-93 -561q1 -70 13 -127q-143 -31 -252 -30 q-332 0 -332 299z" glyph-name="Igrave" horiz-adv-x="653" unicode="Ì"/><glyph d="M1014 1846q0 -98 -82 -179q-82 -82 -191 -119t-197 -37q-88 1 -141 21t-71 41l-19 20q258 158 258 355l-2 30q103 58 207 58t171 -46t67 -144zM80 281q0 106 91 465t91 548q0 70 -8 125q145 31 250 31q166 0 250 -68t84 -184t-94 -498t-93 -561q1 -70 13 -127 q-143 -31 -252 -30q-332 0 -332 299z" glyph-name="Iacute" horiz-adv-x="653" unicode="Í"/><glyph d="M808 1513q-100 0 -141 67q-40 67 -40 149l4 51q-160 -55 -160 -183q0 -14 4 -38q-57 -39 -147 -39t-147 34q-56 34 -56 111q0 76 43 136q44 60 108 94q134 71 318 83q76 6 160 7l188 -9q-2 -25 -2 -63q0 -197 84 -258q0 -61 -58 -101t-158 -41zM80 281q0 106 91 465 t91 548q0 70 -8 125q145 31 250 31q166 0 250 -68t84 -184t-94 -498t-93 -561q1 -70 13 -127q-143 -31 -252 -30q-332 0 -332 299z" glyph-name="Icircumflex" horiz-adv-x="649" unicode="Î"/><glyph d="M1135 1733q0 -117 -79 -171t-210 -55q-264 0 -264 203q0 123 85 178t205 56q263 0 263 -211zM522 1733q0 -117 -79 -171t-210 -55q-264 0 -264 203q0 123 85 178t206 56q262 0 262 -211zM86 281q0 106 91 465t91 548q0 70 -8 125q145 31 250 31q166 0 250 -68t84 -184 t-93 -498t-94 -561q1 -70 13 -127q-145 -31 -252 -30q-332 0 -332 299z" glyph-name="Idieresis" horiz-adv-x="653" unicode="Ï"/><glyph d="M799 309q76 0 136 88t90 209q60 242 60 342q1 100 -31 132q-32 30 -106 30q-23 -121 -49 -238q45 12 80 29q45 -69 45 -153t-55 -132t-142 -51l-47 -256h19zM131 718q0 85 54 132t139 49q53 231 53 395q0 70 -8 125q231 31 441 31t358 -36t230 -89t129 -135 q46 -82 58 -152t12 -161q1 -420 -239 -657t-727 -236q-111 0 -181 9t-132 39q-124 59 -123 249q0 96 51 309q-39 -10 -70 -25q-45 68 -45 153z" glyph-name="Eth" horiz-adv-x="1492" unicode="Ð"/><glyph d="M1559 1750q0 -108 -84 -186q-85 -78 -225 -77q-140 0 -298 48t-229 48q-121 0 -270 -78q-57 86 -57 197q0 112 91 194q92 82 277 82q98 0 279 -49t273 -49t169 59q74 -81 74 -189zM653 135q0 -51 11 -123q-143 -31 -252 -30q-332 0 -332 299q0 106 91 465t91 548 q0 70 -8 125q131 29 246 29q114 0 196 -42t129 -106q116 -156 129 -573q98 336 99 578q0 68 -11 114q143 31 250 31q166 0 250 -68t84 -184t-93 -498t-93 -561q0 -70 12 -127q-176 -29 -235 -28q-262 0 -375 160t-117 470q-9 -56 -23 -111t-23 -106t-13 -85t-8 -80t-5 -97z " glyph-name="Ntilde" horiz-adv-x="1441" unicode="Ñ"/><glyph d="M977 1516q-197 0 -317 82t-119 223q0 100 70 151q71 51 179 51t197 -51q-37 -47 -37 -110q0 -168 217 -328q-102 -18 -190 -18zM791 311q41 1 75 89t74 312q41 224 41 315t-45 91t-76 -83t-73 -316t-42 -321t46 -87zM758 -16q-281 0 -440 150t-158 444q0 422 230 646 t593 224q279 0 441 -144t161 -419q0 -437 -222 -669t-605 -232z" glyph-name="Ograve" horiz-adv-x="1480" unicode="Ò"/><glyph d="M1581 1846q0 -98 -82 -179q-83 -82 -191 -119t-196 -37q-88 1 -141 21t-72 41l-18 20q258 158 258 355l-2 30q103 58 207 58t170 -46t67 -144zM791 311q41 1 75 89t74 312q41 224 41 315t-45 91t-76 -83t-73 -316t-42 -321t46 -87zM758 -16q-281 0 -440 150t-158 444 q0 422 230 646t593 224q279 0 441 -144t161 -419q0 -437 -222 -669t-605 -232z" glyph-name="Oacute" horiz-adv-x="1480" unicode="Ó"/><glyph d="M1244 1483q-100 1 -141 67q-40 66 -40 148l4 51q-160 -55 -160 -182q0 -14 4 -39q-57 -39 -147 -39t-147 35q-56 34 -56 110t43 136q76 106 261 150q138 34 325 34l188 -8q-2 -25 -2 -64q0 -197 84 -258q0 -61 -58 -101t-158 -40zM791 311q41 1 75 89t74 312 q41 224 41 315t-45 91t-76 -83t-73 -316t-42 -321t46 -87zM758 -16q-281 0 -440 150t-158 444q0 422 230 646t593 224q279 0 441 -144t161 -419q0 -437 -222 -669t-605 -232z" glyph-name="Ocircumflex" horiz-adv-x="1480" unicode="Ô"/><glyph d="M1587 1755q0 -109 -84 -187t-224 -77q-140 0 -298 48t-229 48q-121 0 -271 -78q-57 86 -57 197t92 194t277 82q96 0 278 -49t274 -49t168 60q74 -80 74 -189zM791 311q41 1 75 89t74 312q41 224 41 315t-45 91t-76 -83t-73 -316t-42 -321t46 -87zM758 -16 q-281 0 -440 150t-158 444q0 422 230 646t593 224q279 0 441 -144t161 -419q0 -437 -222 -669t-605 -232z" glyph-name="Otilde" horiz-adv-x="1480" unicode="Õ"/><glyph d="M1622 1733q0 -117 -79 -171t-210 -55q-264 0 -264 203q0 123 85 178t206 56q262 0 262 -211zM1010 1733q0 -117 -79 -171t-210 -55q-264 0 -264 203q0 123 85 178t206 56q262 0 262 -211zM791 311q41 1 75 89t74 312q41 224 41 315t-45 91t-76 -83t-73 -316t-42 -321 t46 -87zM758 -16q-281 0 -440 150t-158 444q0 422 230 646t593 224q279 0 441 -144t161 -419q0 -437 -222 -669t-605 -232z" glyph-name="Odieresis" horiz-adv-x="1480" unicode="Ö"/><glyph d="M160 150q-72 0 -116 45t-44 128t53 151t152 134q-94 104 -205 172q0 74 62 133t132 59q115 1 199 -94q29 -34 66 -90q117 98 153 205q82 -12 147 -65t64 -127q0 -129 -188 -258q121 -143 237 -178q-4 -91 -55 -145t-124 -54t-109 22t-62 37q-45 29 -139 154 q-145 -113 -170 -223q-29 -6 -53 -6z" glyph-name="multiply" horiz-adv-x="872" unicode="×"/><glyph d="M981 1027q0 91 -45 91t-77 -84t-74 -315t-42 -319t48 -89q41 1 75 89t74 312q41 224 41 315zM646 -223q-66 0 -129 44q-62 44 -62 124q0 16 16 90q-311 129 -311 547t230 642t593 224q33 0 86 -4q25 88 31 158q37 6 76 6q205 0 204 -158q0 -39 -16 -100 q221 -145 221 -465q0 -431 -214 -661t-585 -238q-30 -76 -36 -168l-2 -29q-36 -12 -102 -12z" glyph-name="Oslash" horiz-adv-x="1480" unicode="Ø"/><glyph d="M911 1473q-197 -1 -317 81t-119 224q0 100 71 151q70 51 178 51t198 -51q-37 -45 -37 -110q0 -168 217 -328q-102 -18 -191 -18zM1268 1450q166 0 250 -68t84 -194q0 -88 -24 -198t-51 -214q-26 -104 -42 -175q-15 -71 -33 -131t-50 -132t-70 -120q-97 -123 -246 -178 q-149 -56 -405 -56q-255 0 -412 116t-156 351q0 94 70 395q71 301 71 467q0 55 -6 106q145 31 250 31q166 0 250 -68t84 -192t-74 -410t-74 -356t43 -70q71 0 143 182t115 409q43 225 43 331t-10 143q145 31 250 31z" glyph-name="Ugrave" horiz-adv-x="1409" unicode="Ù"/><glyph d="M1152 1999q104 0 172 -46q67 -45 67 -143t-82 -180t-191 -119t-197 -37t-141 21q-53 20 -71 41l-19 20q258 158 258 355l-2 31q102 57 206 57zM1268 1450q166 0 250 -68t84 -194q0 -88 -24 -198t-51 -214q-26 -104 -42 -175q-15 -71 -33 -131t-50 -132t-70 -120 q-97 -123 -246 -178q-149 -56 -405 -56q-255 0 -412 116t-156 351q0 94 70 395q71 301 71 467q0 55 -6 106q145 31 250 31q166 0 250 -68t84 -192t-74 -410t-74 -356t43 -70q71 0 143 182t115 409q43 225 43 331t-10 143q145 31 250 31z" glyph-name="Uacute" horiz-adv-x="1409" unicode="Ú"/><glyph d="M1188 1485q-100 1 -140 67t-40 148l4 51q-160 -55 -160 -182q0 -14 4 -39q-58 -39 -148 -39t-146 35q-56 34 -56 110t43 136q75 106 261 150q138 34 325 34l188 -8q-2 -25 -2 -64q0 -197 84 -258q0 -61 -58 -101q-59 -40 -159 -40zM1268 1450q166 0 250 -68t84 -194 q0 -88 -24 -198t-51 -214q-26 -104 -42 -175q-15 -71 -33 -131t-50 -132t-70 -120q-97 -123 -246 -178q-149 -56 -405 -56q-255 0 -412 116t-156 351q0 94 70 395q71 301 71 467q0 55 -6 106q145 31 250 31q166 0 250 -68t84 -192t-74 -410t-74 -356t43 -70q71 0 143 182 t115 409q43 225 43 331t-10 143q145 31 250 31z" glyph-name="Ucircumflex" horiz-adv-x="1409" unicode="Û"/><glyph d="M1559 1733q0 -117 -79 -171t-210 -55q-264 0 -264 203q0 123 85 178t205 56q263 0 263 -211zM946 1733q0 -117 -79 -171t-210 -55q-264 0 -264 203q0 123 85 178t206 56q262 0 262 -211zM1268 1450q166 0 250 -68t84 -194q0 -88 -24 -198t-51 -214q-26 -104 -42 -175 q-15 -71 -33 -131t-50 -132t-70 -120q-97 -123 -246 -178q-149 -56 -405 -56q-255 0 -412 116t-156 351q0 94 70 395q71 301 71 467q0 55 -6 106q145 31 250 31q166 0 250 -68t84 -192t-74 -410t-74 -356t43 -70q71 0 143 182t115 409q43 225 43 331t-10 143q145 31 250 31z " glyph-name="Udieresis" horiz-adv-x="1409" unicode="Ü"/><glyph d="M1054 1999q104 0 172 -46q66 -45 66 -143t-82 -180t-190 -119t-197 -37q-88 0 -141 21q-53 20 -72 41l-18 20q258 158 258 355l-2 31q102 57 206 57zM383 234q0 118 45 223q-254 47 -254 276q0 68 47 228t47 265t-12 193q150 31 250 31q334 0 334 -276q0 -109 -30 -222 t-30 -118q0 -27 35 -27q45 0 84 125t39 267t-53 220q139 31 243 31q336 0 336 -299q0 -250 -126 -412t-353 -235q-65 -254 -18 -490q-131 -30 -267 -30t-227 66q-90 66 -90 184z" glyph-name="Yacute" horiz-adv-x="1271" unicode="Ý"/><glyph d="M797 874q-12 -50 -38 -158t-40 -169q94 5 140 71t46 154q1 102 -108 102zM90 281q0 106 91 465t91 548q0 70 -8 125q131 29 250 29q299 0 330 -209q53 4 82 4q240 0 396 -115t157 -319q0 -256 -209 -425t-535 -169q-45 0 -69 2q-4 -53 -4 -101t12 -104q-145 -31 -252 -30 q-332 0 -332 299z" glyph-name="Thorn" horiz-adv-x="1320" unicode="Þ"/><glyph d="M-98 -57q141 1 198 69t109 238t153 536q-74 -2 -153 -10q-27 53 -27 121t56 118t221 50q68 166 155 264q186 207 609 207q247 0 371 -76t124 -200q0 -56 -32 -116t-73 -102q-106 -110 -106 -198q0 -101 171 -177q71 -32 143 -67t122 -95t50 -145q0 -186 -155 -281 t-495 -95q-213 0 -351 63t-138 169t79 158q79 50 209 50t238 -57q-18 -35 -18 -62t14 -44t37 -17q74 0 74 75q0 43 -47 75t-115 57q-69 25 -135 57t-113 96t-47 146t41 156t91 126q132 135 132 213q0 33 -19 55t-56 23q-130 0 -237 -337q-48 -155 -130 -485t-131 -458 q-86 -227 -212 -342q-127 -115 -307 -115t-262 64t-83 170q-1 57 24 123h21z" glyph-name="germandbls" horiz-adv-x="1957" unicode="ß"/><glyph d="M565 1434q0 100 71 151q70 51 178 51t198 -51q-37 -45 -37 -110q0 -168 217 -328q-102 -18 -191 -19q-197 0 -317 82t-119 224zM848 768q-66 0 -107 -111t-41 -192q0 -45 35 -45q54 0 93 151q23 93 46 191q-12 6 -26 6zM805 231q0 31 2 48q-197 -295 -447 -295 q-262 0 -262 319q0 259 113 441q124 201 407 278q152 41 350 41t441 -31l86 -10q-8 -31 -35 -132q-125 -468 -125 -710q1 -86 13 -162q-139 -35 -250 -34q-293 0 -293 247z" glyph-name="agrave" horiz-adv-x="1343" unicode="à"/><glyph d="M997 1124q-88 0 -141 20t-72 42l-18 20q258 158 258 355l-2 30q102 57 206 57t172 -45q66 -46 66 -144q0 -97 -82 -179t-190 -119t-197 -37zM848 768q-66 0 -107 -111t-41 -192q0 -45 35 -45q54 0 93 151q23 93 46 191q-12 6 -26 6zM805 231q0 31 2 48 q-197 -295 -447 -295q-262 0 -262 319q0 259 113 441q124 201 407 278q152 41 350 41t441 -31l86 -10q-8 -31 -35 -132q-125 -468 -125 -710q1 -86 13 -162q-139 -35 -250 -34q-293 0 -293 247z" glyph-name="aacute" horiz-adv-x="1343" unicode="á"/><glyph d="M1148 1126q-100 0 -141 67q-40 67 -40 148l4 52q-160 -55 -160 -183q0 -14 4 -39q-57 -39 -147 -39t-147 36q-56 34 -56 110t43 136q44 60 108 94q134 71 318 83q76 6 160 6l188 -8q-2 -25 -2 -63q0 -197 84 -258q0 -62 -58 -102t-158 -40zM848 768q-66 0 -107 -111 t-41 -192q0 -45 35 -45q54 0 93 151q23 93 46 191q-12 6 -26 6zM805 231q0 31 2 48q-197 -295 -447 -295q-262 0 -262 319q0 259 113 441q124 201 407 278q152 41 350 41t441 -31l86 -10q-8 -31 -35 -132q-125 -468 -125 -710q1 -86 13 -162q-139 -35 -250 -34 q-293 0 -293 247z" glyph-name="acircumflex" horiz-adv-x="1343" unicode="â"/><glyph d="M1489 1398q0 -108 -84 -186q-153 -142 -522 -29q-158 48 -230 48q-121 0 -270 -78q-57 87 -57 197t92 193t276 83q96 0 278 -49t275 -49q92 0 168 59q74 -81 74 -189zM848 768q-66 0 -107 -111t-41 -192q0 -45 35 -45q54 0 93 151q23 93 46 191q-12 6 -26 6zM805 231 q0 31 2 48q-197 -295 -447 -295q-262 0 -262 319q0 259 113 441q124 201 407 278q152 41 350 41t441 -31l86 -10q-8 -31 -35 -132q-125 -468 -125 -710q1 -86 13 -162q-139 -35 -250 -34q-293 0 -293 247z" glyph-name="atilde" horiz-adv-x="1343" unicode="ã"/><glyph d="M1542 1346q0 -117 -79 -171t-210 -55q-264 0 -264 203q0 123 85 178t206 55q262 1 262 -210zM930 1346q0 -117 -79 -171t-210 -55q-264 0 -264 203q0 123 85 178t206 55q262 1 262 -210zM848 768q-66 0 -107 -111t-41 -192q0 -45 35 -45q54 0 93 151q23 93 46 191 q-12 6 -26 6zM805 231q0 31 2 48q-197 -295 -447 -295q-262 0 -262 319q0 259 113 441q124 201 407 278q152 41 350 41t441 -31l86 -10q-8 -31 -35 -132q-125 -468 -125 -710q1 -86 13 -162q-139 -35 -250 -34q-293 0 -293 247z" glyph-name="adieresis" horiz-adv-x="1343" unicode="ä"/><glyph d="M985 1262q39 0 61 44t21 93q0 86 -53 86q-37 0 -59 -46t-21 -96q0 -81 51 -81zM1391 1417q0 -307 -445 -307q-160 0 -248 44t-88 157q0 167 124 239t304 72t267 -45q86 -45 86 -160zM848 768q-66 0 -107 -111t-41 -192q0 -45 35 -45q54 0 93 151q23 93 46 191 q-12 6 -26 6zM805 231q0 31 2 48q-197 -295 -447 -295q-262 0 -262 319q0 259 113 441q124 201 407 278q152 41 350 41t441 -31l86 -10q-8 -31 -35 -132q-125 -468 -125 -710q1 -86 13 -162q-139 -35 -250 -34q-293 0 -293 247z" glyph-name="aring" horiz-adv-x="1343" unicode="å"/><glyph d="M625 395q0 -49 45 -49q32 0 58 25q50 49 65 153q-80 0 -124 -40t-44 -89zM1534 689q0 56 -48 56t-84 -55t-48 -145q88 0 134 44t46 100zM209 793q0 111 136 191t415 79q219 0 356 -96q186 96 450 96t399 -86q136 -86 136 -223q0 -113 -93 -193q-176 -151 -499 -149 q-76 0 -161 14q16 -139 190 -139q96 -1 194 29t146 61l49 29q74 -45 74 -123q0 -141 -176 -221t-417 -78q-465 1 -572 264q-147 -264 -482 -264q-133 0 -210 66t-76 179q0 214 179 324q154 94 443 92q39 0 125 -4l2 18q0 94 -172 95q-98 0 -215 -29t-168 -61q-53 59 -53 129 z" glyph-name="ae" horiz-adv-x="1996" unicode="æ"/><glyph d="M1122 -311q0 -135 -116 -216t-322 -81q-350 0 -350 205q0 71 56 107t149 36t178 -47q-37 -27 -37 -73t43 -46q31 0 48 26t17 60q0 57 -87 90t-183 33h-94q16 57 70 215q-395 59 -396 416q0 154 38 268t125 202q175 179 622 179q252 0 388 -86t136 -222t-122 -208 t-267 -72t-232 45q48 98 48 162t-52 63q-57 0 -93 -98t-36 -192q0 -168 191 -168q96 1 186 33t133 65l41 31q41 -8 69 -42t27 -81q0 -125 -138 -205t-359 -98l-12 -45q137 -5 234 -63t97 -193z" glyph-name="ccedilla" horiz-adv-x="1288" unicode="ç"/><glyph d="M620 1636q108 0 197 -51q-37 -45 -37 -110q0 -168 217 -328q-100 -18 -190 -19q-197 0 -317 82t-119 224q0 100 70 151q71 51 179 51zM834 688q0 58 -52 57q-43 1 -67 -41t-49 -157q84 4 126 44q42 39 42 97zM1307 283q-1 -104 -97 -174q-175 -127 -532 -125 q-266 0 -423 110t-157 320q0 649 785 649q252 0 388 -86t136 -223q0 -113 -94 -193q-178 -151 -498 -149q-74 0 -160 14q14 -139 189 -139q96 -1 193 29t147 61l49 29q74 -45 74 -123z" glyph-name="egrave" unicode="è"/><glyph d="M1432 1459q0 -97 -82 -179t-191 -119t-197 -37t-141 20t-71 42l-19 20q258 158 258 355l-2 30q103 57 207 57t171 -45q67 -46 67 -144zM834 688q0 58 -52 57q-43 1 -67 -41t-49 -157q84 4 126 44q42 39 42 97zM1307 283q-1 -104 -97 -174q-175 -127 -532 -125 q-266 0 -423 110t-157 320q0 649 785 649q252 0 388 -86t136 -223q0 -113 -94 -193q-178 -151 -498 -149q-74 0 -160 14q14 -139 189 -139q96 -1 193 29t147 61l49 29q74 -45 74 -123z" glyph-name="eacute" horiz-adv-x="1304" unicode="é"/><glyph d="M1074 1100q-100 0 -141 66q-40 66 -40 149l4 51q-160 -55 -160 -182q0 -14 4 -39q-57 -39 -147 -39t-147 35q-56 35 -56 111t43 136q75 105 261 149q138 34 325 34l188 -8q-2 -25 -2 -64q0 -197 84 -258q0 -61 -58 -101t-158 -40zM834 688q0 58 -52 57q-43 1 -67 -41 t-49 -157q84 4 126 44q42 39 42 97zM1307 283q-1 -104 -97 -174q-175 -127 -532 -125q-266 0 -423 110t-157 320q0 649 785 649q252 0 388 -86t136 -223q0 -113 -94 -193q-178 -151 -498 -149q-74 0 -160 14q14 -139 189 -139q96 -1 193 29t147 61l49 29q74 -45 74 -123z " glyph-name="ecircumflex" unicode="ê"/><glyph d="M1423 1346q-1 -117 -79 -171t-209 -55q-264 0 -265 203q0 123 85 178t206 55q262 1 262 -210zM811 1346q0 -117 -79 -171t-210 -55q-264 0 -264 203q0 123 85 178t206 55q262 1 262 -210zM834 688q0 58 -52 57q-43 1 -67 -41t-49 -157q84 4 126 44q42 39 42 97zM1307 283 q-1 -104 -97 -174q-175 -127 -532 -125q-266 0 -423 110t-157 320q0 649 785 649q252 0 388 -86t136 -223q0 -113 -94 -193q-178 -151 -498 -149q-74 0 -160 14q14 -139 189 -139q96 -1 193 29t147 61l49 29q74 -45 74 -123z" glyph-name="edieresis" horiz-adv-x="1304" unicode="ë"/><glyph d="M362 1636q108 0 197 -51q-37 -45 -37 -110q0 -168 217 -328q-100 -18 -190 -19q-197 0 -317 82t-119 224q0 100 70 151q71 51 179 51zM207 993v35q176 33 296 33q121 0 187 -48t66 -157q0 -39 -56 -297t-57 -422q0 -68 8 -123q-139 -31 -241 -30q-317 0 -318 299 q0 105 58 337t57 373z" glyph-name="igrave" horiz-adv-x="649" unicode="ì"/><glyph d="M932 1459q0 -97 -82 -179t-191 -119t-197 -37t-140 20t-72 42l-19 20q258 158 258 355l-2 30q103 57 207 57t171 -45q67 -46 67 -144zM207 993v35q176 33 296 33q121 0 187 -48t66 -157q0 -39 -56 -297t-57 -422q0 -68 8 -123q-139 -31 -241 -30q-317 0 -318 299 q0 105 58 337t57 373z" glyph-name="iacute" horiz-adv-x="649" unicode="í"/><glyph d="M742 1126q-100 0 -141 67q-40 67 -40 148l4 52q-160 -55 -159 -183q0 -14 4 -39q-58 -39 -148 -39t-146 36q-56 34 -56 110t42 136q43 60 108 94q135 71 318 83q76 6 160 6l189 -8q-2 -25 -3 -63q0 -197 84 -258q0 -62 -58 -102t-158 -40zM207 993v35q176 33 296 33 q121 0 187 -48t66 -157q0 -39 -56 -297t-57 -422q0 -68 8 -123q-139 -31 -241 -30q-317 0 -318 299q0 105 58 337t57 373z" glyph-name="icircumflex" horiz-adv-x="649" unicode="î"/><glyph d="M1102 1346q0 -117 -79 -171t-210 -55q-264 0 -264 203q0 123 85 178t206 55q262 1 262 -210zM489 1346q-1 -117 -79 -171t-209 -55q-264 0 -264 203q0 123 85 178t205 55q262 1 262 -210zM207 993v35q176 33 296 33q121 0 187 -48t66 -157q0 -39 -56 -297t-57 -422 q0 -68 8 -123q-139 -31 -241 -30q-317 0 -318 299q0 105 58 337t57 373z" glyph-name="idieresis" horiz-adv-x="649" unicode="ï"/><glyph d="M676 387q0 -33 20 -59t68 -27t79 65q32 66 36 181q-91 0 -147 -42t-56 -118zM113 1266q0 141 155 216q156 74 377 74t371 -53q100 68 145 172q88 -18 134 -63t46 -103q0 -84 -86 -149q186 -182 187 -486q0 -497 -230 -713q-84 -81 -220 -129t-316 -48q-252 0 -411 102 t-159 296t138 288t346 94q154 0 295 -45v41q0 170 -62 270q-145 -86 -250 -215q-92 2 -145 46t-53 108q0 133 196 223q-33 4 -80 4t-119 -27t-104 -55l-32 -27q-123 61 -123 179z" glyph-name="eth" horiz-adv-x="1335" unicode="ð"/><glyph d="M1407 1398q0 -108 -84 -186q-153 -142 -522 -29q-158 48 -230 48q-121 0 -270 -78q-57 87 -57 197t92 193t276 83q96 0 278 -49t275 -49q92 0 168 59q74 -81 74 -189zM203 989v35q160 37 270 37q268 0 268 -197q0 -31 -6 -61q199 260 424 260q115 0 181 -57 q66 -58 67 -160q0 -102 -54 -326q-55 -224 -55 -332t11 -168q-125 -37 -232 -36q-155 0 -241 78t-86 227q0 84 22 188q23 104 23 119q0 31 -25 31q-59 0 -93 -160q-34 -159 -34 -275t8 -172q-139 -31 -241 -30q-317 0 -318 299q0 107 56 333t55 367z" glyph-name="ntilde" horiz-adv-x="1298" unicode="ñ"/><glyph d="M299 1434q0 100 71 151q70 51 178 51t197 -51q-37 -45 -36 -110q0 -168 217 -328q-102 -18 -191 -19q-197 0 -317 82t-119 224zM637 347q0 -54 46 -54t75 48q29 49 52 165q24 116 24 178t-52 61q-42 0 -68 -46t-52 -172t-25 -180zM1370 631q0 -311 -169 -479t-564 -168 q-254 0 -396 108t-143 322q0 311 169 480t564 169q251 -1 395 -111t144 -321z" glyph-name="ograve" unicode="ò"/><glyph d="M911 1124q-88 0 -141 20t-72 42l-18 20q258 158 258 355l-2 30q102 57 206 57t172 -45q66 -46 66 -144q0 -97 -82 -179t-190 -119t-197 -37zM637 347q0 -54 46 -54t75 48q29 49 52 165q24 116 24 178t-52 61q-42 0 -68 -46t-52 -172t-25 -180zM1370 631q0 -311 -169 -479 t-564 -168q-254 0 -396 108t-143 322q0 311 169 480t564 169q251 -1 395 -111t144 -321z" glyph-name="oacute" unicode="ó"/><glyph d="M1036 1126q-100 0 -140 67t-40 148l4 52q-160 -55 -160 -183q0 -14 5 -39q-57 -39 -147 -39t-147 36q-57 34 -57 110t43 136t108 94q136 71 318 83q76 6 160 6l188 -8q-2 -25 -2 -63q0 -197 84 -258q0 -62 -58 -102q-59 -40 -159 -40zM637 347q0 -54 46 -54t75 48 q29 49 52 165q24 116 24 178t-52 61q-42 0 -68 -46t-52 -172t-25 -180zM1370 631q0 -311 -169 -479t-564 -168q-254 0 -396 108t-143 322q0 311 169 480t564 169q251 -1 395 -111t144 -321z" glyph-name="ocircumflex" unicode="ô"/><glyph d="M543 1231q-121 0 -271 -78q-57 87 -57 197t92 193t277 83q96 0 278 -49t274 -49t169 59q73 -81 73 -189t-84 -186t-225 -78t-298 49q-157 48 -228 48zM637 347q0 -54 46 -54t75 48q29 49 52 165q24 116 24 178t-52 61q-42 0 -68 -46t-52 -172t-25 -180zM1370 631 q0 -311 -169 -479t-564 -168q-254 0 -396 108t-143 322q0 311 169 480t564 169q251 -1 395 -111t144 -321z" glyph-name="otilde" horiz-adv-x="1300" unicode="õ"/><glyph d="M1411 1346q0 -117 -79 -171t-210 -55q-264 0 -264 203q0 123 85 178t206 55q262 1 262 -210zM799 1346q0 -117 -79 -171t-210 -55q-264 0 -264 203q0 123 85 178t206 55q262 1 262 -210zM637 347q0 -54 46 -54t75 48q29 49 52 165q24 116 24 178t-52 61q-42 0 -68 -46 t-52 -172t-25 -180zM1370 631q0 -311 -169 -479t-564 -168q-254 0 -396 108t-143 322q0 311 169 480t564 169q251 -1 395 -111t144 -321z" glyph-name="odieresis" unicode="ö"/><glyph d="M829 889q0 -96 -66 -143q-67 -46 -173 -46q-219 0 -219 170q0 102 70 148q71 45 171 45q217 0 217 -174zM702 174q0 -96 -66 -142t-173 -46q-219 0 -219 170q0 102 70 147q71 45 171 45q217 0 217 -174zM948 547q0 -141 -192 -141q-46 0 -194 15t-250 15t-156 -35 q-43 53 -43 117t51 104q52 40 126 40t234 -16t247 -18q87 0 122 27q55 -33 55 -108z" glyph-name="divide" horiz-adv-x="868" unicode="÷"/><glyph d="M637 347q0 -54 46 -54t75 48q29 49 52 165q24 116 24 178t-52 61q-42 0 -68 -46t-52 -172t-25 -180zM496 -401q-98 0 -163 39t-65 112t22 127t26 67q5 13 21 46q15 33 17 39q-256 96 -256 395t166 468t553 171q90 238 96 352q37 6 76 6q205 0 205 -157q0 -96 -74 -252 q250 -104 250 -381q0 -305 -162 -472t-542 -175q-102 -260 -105 -381q-57 -4 -65 -4z" glyph-name="oslash" unicode="ø"/><glyph d="M362 1434q0 100 71 151t179 51t197 -51q-37 -45 -37 -110q0 -168 217 -328q-100 -18 -190 -19q-197 0 -317 82t-120 224zM1296 57v-34q-160 -37 -270 -37q-268 0 -268 198q0 35 4 56q-190 -256 -422 -256q-248 0 -248 299q0 100 59 339q58 239 58 361l-2 45 q139 33 248 33q155 0 225 -76t70 -227q0 -66 -23 -172t-23 -136t25 -30q47 0 78 108q49 172 49 371q0 72 -8 127q145 35 248 35q311 0 311 -303q1 -106 -55 -333t-56 -368z" glyph-name="ugrave" horiz-adv-x="1296" unicode="ù"/><glyph d="M1282 1459q0 -97 -82 -179t-190 -119t-197 -37q-88 0 -141 20t-72 42l-18 20q258 158 258 355l-2 30q102 57 206 57t172 -45q66 -46 66 -144zM1296 57v-34q-160 -37 -270 -37q-268 0 -268 198q0 35 4 56q-190 -256 -422 -256q-248 0 -248 299q0 100 59 339q58 239 58 361 l-2 45q139 33 248 33q155 0 225 -76t70 -227q0 -66 -23 -172t-23 -136t25 -30q47 0 78 108q49 172 49 371q0 72 -8 127q145 35 248 35q311 0 311 -303q1 -106 -55 -333t-56 -368z" glyph-name="uacute" horiz-adv-x="1296" unicode="ú"/><glyph d="M1036 1126q-100 0 -140 67t-40 148l4 52q-160 -55 -160 -183q0 -14 5 -39q-57 -39 -147 -39t-147 36q-57 34 -57 110t43 136t108 94q136 71 318 83q76 6 160 6l188 -8q-2 -25 -2 -63q0 -197 84 -258q0 -62 -58 -102q-59 -40 -159 -40zM1296 57v-34q-160 -37 -270 -37 q-268 0 -268 198q0 35 4 56q-190 -256 -422 -256q-248 0 -248 299q0 100 59 339q58 239 58 361l-2 45q139 33 248 33q155 0 225 -76t70 -227q0 -66 -23 -172t-23 -136t25 -30q47 0 78 108q49 172 49 371q0 72 -8 127q145 35 248 35q311 0 311 -303q1 -106 -55 -333t-56 -368 z" glyph-name="ucircumflex" horiz-adv-x="1294" unicode="û"/><glyph d="M1395 1346q0 -117 -79 -171t-210 -55q-264 0 -264 203q0 123 85 178t206 55q262 1 262 -210zM782 1346q0 -117 -79 -171t-209 -55q-264 0 -265 203q0 123 85 178t206 55q262 1 262 -210zM1296 57v-34q-160 -37 -270 -37q-268 0 -268 198q0 35 4 56q-190 -256 -422 -256 q-248 0 -248 299q0 100 59 339q58 239 58 361l-2 45q139 33 248 33q155 0 225 -76t70 -227q0 -66 -23 -172t-23 -136t25 -30q47 0 78 108q49 172 49 371q0 72 -8 127q145 35 248 35q311 0 311 -303q1 -106 -55 -333t-56 -368z" glyph-name="udieresis" horiz-adv-x="1296" unicode="ü"/><glyph d="M1309 1459q0 -97 -82 -179t-191 -119t-197 -37t-141 20t-71 42l-19 20q258 158 258 355l-2 30q102 57 206 57t172 -45q67 -46 67 -144zM1421 758v-13q-3 -125 -63 -354t-82 -325q-61 -268 -266 -423t-514 -155q-254 0 -380 80t-126 203q0 65 34 115t80 67 q31 -70 107 -114t184 -44q182 0 289 118q106 118 164 415q-131 -344 -428 -344q-139 0 -226 63q-88 63 -88 167t56 324t55 320q0 100 -12 168q113 33 217 33q164 0 260 -85t96 -237q0 -102 -34 -217t-33 -119q0 -18 20 -18q57 0 100 130q43 131 43 279t-38 234 q145 35 251 35q334 0 334 -303z" glyph-name="yacute" horiz-adv-x="1320" unicode="ý"/><glyph d="M811 554q0 70 -31 71q-41 0 -72 -94t-47 -165t-20 -85q12 -6 27 -7q61 0 102 104q41 106 41 176zM518 1495q320 0 320 -278q0 -142 -109 -424q188 268 426 268q262 0 262 -320q0 -408 -263 -601q-202 -150 -574 -154q-29 -154 -29 -252t8 -148q-135 -31 -240 -30 q-319 0 -319 299q0 121 71 403t141 596q71 315 71 516q0 33 -4 94q139 31 239 31z" glyph-name="thorn" horiz-adv-x="1320" unicode="þ"/><glyph d="M1415 1346q0 -117 -79 -171t-210 -55q-264 0 -264 203q0 123 85 178t206 55q262 1 262 -210zM803 1346q0 -117 -79 -171t-210 -55q-264 0 -264 203q0 123 85 178t206 55q262 1 262 -210zM1421 758v-13q-3 -125 -63 -354t-82 -325q-61 -268 -266 -423t-514 -155 q-254 0 -380 80t-126 203q0 65 34 115t80 67q31 -70 107 -114t184 -44q182 0 289 118q106 118 164 415q-131 -344 -428 -344q-139 0 -226 63q-88 63 -88 167t56 324t55 320q0 100 -12 168q113 33 217 33q164 0 260 -85t96 -237q0 -102 -34 -217t-33 -119q0 -18 20 -18 q57 0 100 130q43 131 43 279t-38 234q145 35 251 35q334 0 334 -303z" glyph-name="ydieresis" horiz-adv-x="1320" unicode="ÿ"/><glyph d="M1702 1659q0 -158 -242 -158q-47 0 -224 11t-302 11t-209 -18q-43 33 -43 113t67 124t181 44l516 -25q135 0 209 19q47 -39 47 -121zM1022 988q0 28 -29 28q-55 0 -130 -146t-120 -340q82 0 131 -2q20 92 58 196t64 170t26 94zM848 293v41h-137q-6 -60 -6 -150t30 -172 q-133 -31 -248 -30q-190 0 -299 89t-108 269q0 123 56 250t137 231q81 103 163 199t145 188q62 92 70 164q301 78 588 78q211 0 295 -74t84 -231q0 -92 -49 -265t-99 -371q-50 -199 -51 -311q0 -112 13 -184q-154 -31 -254 -30q-330 0 -330 309z" glyph-name="Amacron" horiz-adv-x="1433" unicode="Ā"/><glyph d="M520 1288q0 80 67 124t181 44q56 0 238 -12t298 -12t189 18q47 -39 47 -121q0 -158 -242 -158q-47 -1 -224 11t-302 12t-209 -18q-43 32 -43 112zM848 768q-66 0 -107 -111t-41 -192q0 -45 35 -45q54 0 93 151q23 93 46 191q-12 6 -26 6zM805 231q0 31 2 48 q-197 -295 -447 -295q-262 0 -262 319q0 259 113 441q124 201 407 278q152 41 350 41t441 -31l86 -10q-8 -31 -35 -132q-125 -468 -125 -710q1 -86 13 -162q-139 -35 -250 -34q-293 0 -293 247z" glyph-name="amacron" horiz-adv-x="1343" unicode="ā"/><glyph d="M1212 1489q-160 0 -248 44t-87 157q0 35 6 69h321q-4 -25 -4 -37q0 -82 51 -82q37 0 58 38q20 38 24 85h322q-23 -274 -443 -274zM1022 988q0 28 -29 28q-55 0 -130 -146t-120 -340q82 0 131 -2q20 92 58 196t64 170t26 94zM848 293v41h-137q-6 -60 -6 -150t30 -172 q-133 -31 -248 -30q-190 0 -299 89t-108 269q0 123 56 250t137 231q81 103 163 199t145 188q62 92 70 164q301 78 588 78q211 0 295 -74t84 -231q0 -92 -49 -265t-99 -371q-50 -199 -51 -311q0 -112 13 -184q-154 -31 -254 -30q-330 0 -330 309z" glyph-name="Abreve" horiz-adv-x="1433" unicode="Ă"/><glyph d="M694 1403q0 35 6 70h322q-4 -25 -4 -37q0 -82 51 -82q37 0 57 38t25 85h322q-23 -274 -443 -275q-162 0 -249 44t-87 157zM848 768q-66 0 -107 -111t-41 -192q0 -45 35 -45q54 0 93 151q23 93 46 191q-12 6 -26 6zM805 231q0 31 2 48q-197 -295 -447 -295 q-262 0 -262 319q0 259 113 441q124 201 407 278q152 41 350 41t441 -31l86 -10q-8 -31 -35 -132q-125 -468 -125 -710q1 -86 13 -162q-139 -35 -250 -34q-293 0 -293 247z" glyph-name="abreve" horiz-adv-x="1343" unicode="ă"/><glyph d="M1022 988q0 28 -29 28q-55 0 -130 -146t-120 -340q82 0 131 -2q20 92 58 196t64 170t26 94zM848 293v41h-137q-6 -60 -6 -150t30 -172q-133 -31 -248 -30q-190 0 -299 89t-108 269q0 123 56 250t137 231q81 103 163 199t145 188q62 92 70 164q301 78 588 78 q211 0 295 -74t84 -231q0 -92 -49 -265t-99 -371q-50 -199 -51 -311q0 -112 13 -184q-143 -29 -236 -30q-14 -35 -14 -68q0 -70 76 -108t180 -37t189 31t130 63l43 31q70 -14 70 -95q0 -133 -154 -222t-404 -89t-379 97q-130 97 -130 235t127 235q-82 76 -82 236z" glyph-name="Aogonek" horiz-adv-x="1433" unicode="Ą"/><glyph d="M848 768q-66 0 -107 -111t-41 -192q0 -45 35 -45q54 0 93 151q23 93 46 191q-12 6 -26 6zM1165 -510q-250 0 -380 97t-130 233q0 172 183 274q-33 52 -33 110t2 75q-197 -295 -447 -295q-262 0 -262 319q0 259 113 441q124 201 407 278q152 41 350 41t441 -31l86 -10 q-8 -31 -35 -132q-125 -468 -125 -710q0 -86 13 -162q-139 -35 -250 -34l-47 2q-16 -29 -17 -70q0 -70 76 -108t180 -37t190 31q85 30 130 63l43 31q70 -14 69 -95q0 -133 -154 -222t-403 -89z" glyph-name="aogonek" horiz-adv-x="1343" unicode="ą"/><glyph d="M1569 1846q0 -98 -82 -179q-82 -82 -191 -119t-197 -37q-88 1 -141 21t-71 41l-19 20q258 158 258 355l-2 30q102 58 206 58t172 -46q67 -46 67 -144zM1432 326q0 -138 -148 -240t-475 -102q-263 0 -444 134q-93 68 -149 190t-56 290t48 318q107 336 415 462 q169 70 397 70t380 -96t152 -257t-120 -244t-276 -83q-154 0 -247 49q78 139 78 221t-53 80q-58 0 -108 -134t-50 -282q0 -307 254 -307q88 0 171 26t122 52l39 27q70 -66 70 -174z" glyph-name="Cacute" horiz-adv-x="1390" unicode="Ć"/><glyph d="M1446 1459q0 -97 -82 -179t-190 -119t-198 -37q-88 0 -140 20t-72 42l-19 20q259 158 259 355l-3 30q103 57 207 57t171 -45q67 -46 67 -144zM678 -16q-580 0 -580 430q0 154 38 268t125 202q175 179 622 179q252 0 388 -86t136 -222t-122 -208t-267 -72t-232 45 q48 98 48 162t-52 63q-57 0 -93 -98t-36 -192q0 -168 191 -168q96 1 186 33t133 65l41 31q41 -8 69 -42t27 -81q0 -141 -176 -225t-446 -84z" glyph-name="cacute" horiz-adv-x="1288" unicode="ć"/><glyph d="M1432 326q0 -138 -148 -240t-475 -102q-263 0 -444 134q-93 68 -149 190t-56 290t48 318q107 336 415 462q169 70 397 70t380 -96t152 -257t-120 -244t-276 -83q-154 0 -247 49q78 139 78 221t-53 80q-58 0 -108 -134t-50 -282q0 -307 254 -307q88 0 171 26t122 52l39 27 q70 -66 70 -174zM1344 1513q-100 0 -141 67q-40 67 -40 149l4 51q-160 -55 -159 -183q0 -14 4 -38q-58 -39 -148 -39t-146 34t-56 111q0 76 43 136t107 94q134 71 318 83q76 6 160 7l189 -9q-2 -25 -2 -63q0 -197 84 -258q-1 -61 -59 -101t-158 -41z" glyph-name="Ccircumflex" horiz-adv-x="1390" unicode="Ĉ"/><glyph d="M1102 1126q-100 0 -140 67t-40 148l4 52q-160 -55 -160 -183q0 -14 4 -39q-58 -39 -148 -39t-146 36q-56 34 -56 110t43 136t107 94q134 71 319 83q76 6 160 6l188 -8q-2 -25 -2 -63q0 -197 84 -258q0 -62 -58 -102q-59 -40 -159 -40zM678 -16q-580 0 -580 430 q0 154 38 268t125 202q175 179 622 179q252 0 388 -86t136 -222t-122 -208t-267 -72t-232 45q48 98 48 162t-52 63q-57 0 -93 -98t-36 -192q0 -168 191 -168q96 1 186 33t133 65l41 31q41 -8 69 -42t27 -81q0 -141 -176 -225t-446 -84z" glyph-name="ccircumflex" horiz-adv-x="1288" unicode="ĉ"/><glyph d="M1432 326q0 -138 -148 -240t-475 -102q-263 0 -444 134q-93 68 -149 190t-56 290t48 318q107 336 415 462q169 70 397 70t380 -96t152 -257t-120 -244t-276 -83q-154 0 -247 49q78 139 78 221t-53 80q-58 0 -108 -134t-50 -282q0 -307 254 -307q88 0 171 26t122 52l39 27 q70 -66 70 -174zM1362 1743q0 -125 -85 -183t-224 -59q-281 0 -281 217q0 128 91 188t218 60q281 0 281 -223z" glyph-name="Cdotaccent" horiz-adv-x="1390" unicode="Ċ"/><glyph d="M1182 1356q0 -126 -85 -184t-225 -58q-281 0 -280 217q0 129 91 189t218 59q281 0 281 -223zM678 -16q-580 0 -580 430q0 154 38 268t125 202q175 179 622 179q252 0 388 -86t136 -222t-122 -208t-267 -72t-232 45q48 98 48 162t-52 63q-57 0 -93 -98t-36 -192 q0 -168 191 -168q96 1 186 33t133 65l41 31q41 -8 69 -42t27 -81q0 -141 -176 -225t-446 -84z" glyph-name="cdotaccent" horiz-adv-x="1288" unicode="ċ"/><glyph d="M1432 326q0 -138 -148 -240t-475 -102q-263 0 -444 134q-93 68 -149 190t-56 290t48 318q107 336 415 462q169 70 397 70t380 -96t152 -257t-120 -244t-276 -83q-154 0 -247 49q78 139 78 221t-53 80q-58 0 -108 -134t-50 -282q0 -307 254 -307q88 0 171 26t122 52l39 27 q70 -66 70 -174zM1371 1948q202 0 202 -155q0 -85 -65 -154q-66 -69 -174 -99q-187 -52 -404 -53l-154 6q2 23 2 55q0 217 -104 264q0 62 58 102t158 40t141 -67q40 -67 40 -148l-4 -51q160 55 160 182q0 14 -4 39q59 39 148 39z" glyph-name="Ccaron" horiz-adv-x="1390" unicode="Č"/><glyph d="M1216 1577q202 -1 203 -155q-1 -84 -65 -153t-172 -100q-186 -53 -406 -53l-153 6q2 23 2 56q0 217 -105 264q0 61 58 101t159 40q100 0 141 -66q40 -67 40 -149l-5 -51q160 55 160 182q0 14 -4 39q57 39 147 39zM678 -16q-580 0 -580 430q0 154 38 268t125 202 q175 179 622 179q252 0 388 -86t136 -222t-122 -208t-267 -72t-232 45q48 98 48 162t-52 63q-57 0 -93 -98t-36 -192q0 -168 191 -168q96 1 186 33t133 65l41 31q41 -8 69 -42t27 -81q0 -141 -176 -225t-446 -84z" glyph-name="ccaron" horiz-adv-x="1288" unicode="č"/><glyph d="M1176 1960q202 0 202 -154q0 -84 -64 -154q-64 -69 -174 -100q-186 -53 -405 -53l-153 6q2 23 2 56q0 217 -105 264q1 61 59 101t158 40t141 -66q40 -67 40 -149l-5 -51q160 55 160 182q0 14 -4 39q58 39 148 39zM834 1110q-16 -92 -78 -360t-90 -441q102 0 172 117 t118 405q36 199 -17 248q-31 31 -105 31zM695 1450q211 0 359 -36t230 -89t128 -135t58 -152t13 -161q0 -420 -240 -657t-727 -236q-110 0 -180 9t-133 39q-123 59 -123 249q0 106 91 465t91 548q0 70 -8 125q231 31 441 31z" glyph-name="Dcaron" horiz-adv-x="1378" unicode="Ď"/><glyph d="M1567 1280q0 132 93 194t224 62q289 0 289 -287q0 -203 -109 -339t-258 -136q-92 0 -180 57q63 57 101 115t45 90l6 29q-98 10 -155 64q-56 54 -56 151zM848 768q-66 0 -107 -111t-41 -192q0 -45 35 -45q25 0 38 16t21 28t16 36q7 23 13 40t14 48q7 30 12 52t13 60t15 62 q-12 6 -29 6zM803 229q0 31 2 47q-193 -293 -445 -292q-262 0 -262 319q0 409 264 603q94 69 242 112t336 45q31 184 31 269t-6 132q137 31 239 31q317 0 318 -262q0 -115 -94 -511t-93 -583q0 -72 8 -121q-139 -35 -249 -34q-291 0 -291 245z" glyph-name="dcaron" horiz-adv-x="1951" unicode="ď"/><glyph d="M799 309q76 0 136 88t90 209q60 242 60 342q1 100 -31 132q-32 30 -106 30q-23 -121 -49 -238q45 12 80 29q45 -69 45 -153t-55 -132t-142 -51l-47 -256h19zM131 718q0 85 54 132t139 49q53 231 53 395q0 70 -8 125q231 31 441 31t358 -36t230 -89t129 -135 q46 -82 58 -152t12 -161q1 -420 -239 -657t-727 -236q-111 0 -181 9t-132 39q-124 59 -123 249q0 96 51 309q-39 -10 -70 -25q-45 68 -45 153z" glyph-name="Dcroat" horiz-adv-x="1492" unicode="Đ"/><glyph d="M848 768q-66 0 -107 -111t-41 -192q0 -45 35 -45q25 0 38 16t21 28t16 36q7 23 13 40t14 48q7 30 12 52t13 60t15 62q-12 6 -29 6zM772 1214q0 62 47 114t152 58l-6 78q137 31 239 31q215 0 285 -125q39 -2 93 -2t116 4q20 -44 20 -108t-50 -118t-161 -56 q-6 -41 -89 -410t-83 -541q0 -72 8 -121q-139 -35 -249 -34q-291 0 -291 245q0 31 2 47q-193 -293 -445 -292q-262 0 -262 319q0 409 264 603q94 69 242 112t336 45l6 45q-66 -2 -147 -10q-27 54 -27 116z" glyph-name="dcroat" horiz-adv-x="1339" unicode="đ"/><glyph d="M262 1618q0 80 67 124t181 44l516 -25q135 0 209 19q47 -39 47 -121q0 -158 -242 -158l-503 23q-148 -1 -232 -19q-43 33 -43 113zM1085 758q0 -221 -286 -221q-29 0 -90 4q-3 -21 -11 -55t-10 -44q66 -6 168 -6t207 27l35 8q49 -63 49 -165q0 -173 -92 -249 q-72 -58 -271 -69q-74 -4 -238 -4t-278 34q-112 34 -150 94t-38 168t91 466q91 359 91 548q0 70 -8 125q143 31 360 31l428 -12q115 0 215 16q49 -64 49 -164q1 -171 -83 -238q-85 -68 -250 -80q-68 -5 -164 -5l-18 -88q164 0 253 24q41 -43 41 -145z" glyph-name="Emacron" horiz-adv-x="1122" unicode="Ē"/><glyph d="M385 1354q0 80 67 124t181 44q57 0 238 -12t297 -13q116 0 190 19q47 -39 47 -121q0 -158 -242 -158q-47 0 -224 11t-302 11t-209 -18q-43 33 -43 113zM834 688q0 58 -52 57q-43 1 -67 -41t-49 -157q84 4 126 44q42 39 42 97zM1307 283q-1 -104 -97 -174 q-175 -127 -532 -125q-266 0 -423 110t-157 320q0 649 785 649q252 0 388 -86t136 -223q0 -113 -94 -193q-178 -151 -498 -149q-74 0 -160 14q14 -139 189 -139q96 -1 193 29t147 61l49 29q74 -45 74 -123z" glyph-name="emacron" unicode="ē"/><glyph d="M770 1737q0 -82 51 -82q37 0 58 38q20 38 24 85h322q-23 -274 -443 -275q-160 0 -248 44t-88 157q0 35 7 70h321q-4 -25 -4 -37zM1085 758q0 -221 -286 -221q-29 0 -90 4q-3 -21 -11 -55t-10 -44q66 -6 168 -6t207 27l35 8q49 -63 49 -165q0 -173 -92 -249 q-72 -58 -271 -69q-74 -4 -238 -4t-278 34q-112 34 -150 94t-38 168t91 466q91 359 91 548q0 70 -8 125q143 31 360 31l428 -12q115 0 215 16q49 -64 49 -164q1 -171 -83 -238q-85 -68 -250 -80q-68 -5 -164 -5l-18 -88q164 0 253 24q41 -43 41 -145z" glyph-name="Ebreve" horiz-adv-x="1122" unicode="Ĕ"/><glyph d="M537 1403q0 35 6 70h321q-4 -25 -4 -37q0 -82 51 -82q37 0 58 38q20 38 24 85h322q-23 -274 -443 -275q-160 0 -248 44t-87 157zM834 688q0 58 -52 57q-43 1 -67 -41t-49 -157q84 4 126 44q42 39 42 97zM1307 283q-1 -104 -97 -174q-175 -127 -532 -125q-266 0 -423 110 t-157 320q0 649 785 649q252 0 388 -86t136 -223q0 -113 -94 -193q-178 -151 -498 -149q-74 0 -160 14q14 -139 189 -139q96 -1 193 29t147 61l49 29q74 -45 74 -123z" glyph-name="ebreve" unicode="ĕ"/><glyph d="M1159 1724q0 -125 -85 -183t-224 -58q-281 0 -281 217q0 129 91 188t219 60q280 -1 280 -224zM1085 758q0 -221 -286 -221q-29 0 -90 4q-3 -21 -11 -55t-10 -44q66 -6 168 -6t207 27l35 8q49 -63 49 -165q0 -173 -92 -249q-72 -58 -271 -69q-74 -4 -238 -4t-278 34 q-112 34 -150 94t-38 168t91 466q91 359 91 548q0 70 -8 125q143 31 360 31l428 -12q115 0 215 16q49 -64 49 -164q1 -171 -83 -238q-85 -68 -250 -80q-68 -5 -164 -5l-18 -88q164 0 253 24q41 -43 41 -145z" glyph-name="Edotaccent" horiz-adv-x="1122" unicode="Ė"/><glyph d="M1186 1356q0 -126 -85 -184t-224 -58q-281 0 -281 217q0 129 91 189t218 59q281 0 281 -223zM834 688q0 58 -52 57q-43 1 -67 -41t-49 -157q84 4 126 44q42 39 42 97zM1307 283q-1 -104 -97 -174q-175 -127 -532 -125q-266 0 -423 110t-157 320q0 649 785 649 q252 0 388 -86t136 -223q0 -113 -94 -193q-178 -151 -498 -149q-74 0 -160 14q14 -139 189 -139q96 -1 193 29t147 61l49 29q74 -45 74 -123z" glyph-name="edotaccent" unicode="ė"/><glyph d="M1085 758q0 -221 -286 -221q-29 0 -90 4q-3 -21 -11 -55t-10 -44q66 -6 168 -6t207 27l35 8q49 -63 49 -203t-85 -203q-85 -62 -267 -75q-16 -35 -17 -74q0 -70 76 -108t180 -37t190 31q85 30 128 63l45 31q70 -14 69 -95q0 -133 -154 -222t-403 -89q-250 0 -380 97 t-130 233q0 92 58 168q-221 12 -299 81t-78 193t91 484q91 359 91 548q0 70 -8 125q143 31 360 31l428 -12q115 0 215 16q49 -64 49 -164q1 -171 -83 -238q-85 -68 -250 -80q-68 -5 -164 -5l-18 -88q164 0 253 24q41 -43 41 -145z" glyph-name="Eogonek" horiz-adv-x="1101" unicode="Ę"/><glyph d="M834 688q0 58 -52 57q-43 1 -67 -41t-49 -157q84 4 126 44q42 39 42 97zM1483 -199q0 -133 -154 -222t-404 -89q-249 0 -379 97t-130 233q0 100 67 180q-182 37 -283 142t-102 272q0 649 785 649q252 0 388 -86t136 -223q0 -113 -94 -193q-178 -151 -498 -149 q-74 0 -160 14q14 -139 189 -139q96 -1 193 29t147 61l49 29q74 -45 74 -129t-72 -149q-129 -116 -424 -138q-16 -35 -16 -74q-1 -70 75 -108t180 -37t190 31q85 30 128 63l45 31q70 -14 70 -95z" glyph-name="eogonek" unicode="ę"/><glyph d="M1104 1954q90 0 146 -35t56 -120t-64 -153q-66 -68 -174 -100q-186 -53 -404 -53l-154 6q2 23 2 55q0 217 -104 265q0 61 58 101t158 40t140 -67t41 -148l-4 -51q160 55 160 182q-1 14 -5 39q58 39 148 39zM1085 758q0 -221 -286 -221q-29 0 -90 4q-3 -21 -11 -55 t-10 -44q66 -6 168 -6t207 27l35 8q49 -63 49 -165q0 -173 -92 -249q-72 -58 -271 -69q-74 -4 -238 -4t-278 34q-112 34 -150 94t-38 168t91 466q91 359 91 548q0 70 -8 125q143 31 360 31l428 -12q115 0 215 16q49 -64 49 -164q1 -171 -83 -238q-85 -68 -250 -80 q-68 -5 -164 -5l-18 -88q164 0 253 24q41 -43 41 -145z" glyph-name="Ecaron" horiz-adv-x="1122" unicode="Ě"/><glyph d="M1232 1589q90 0 145 -35q57 -36 57 -120t-65 -153t-173 -99q-183 -51 -405 -54l-154 7q2 23 2 55q0 217 -104 264q0 61 58 101t158 40t141 -66q40 -67 40 -149l-4 -51q160 55 159 182q0 14 -4 39q59 39 149 39zM834 688q0 58 -52 57q-43 1 -67 -41t-49 -157q84 4 126 44 q42 39 42 97zM1307 283q-1 -104 -97 -174q-175 -127 -532 -125q-266 0 -423 110t-157 320q0 649 785 649q252 0 388 -86t136 -223q0 -113 -94 -193q-178 -151 -498 -149q-74 0 -160 14q14 -139 189 -139q96 -1 193 29t147 61l49 29q74 -45 74 -123z" glyph-name="ecaron" unicode="ě"/><glyph d="M1256 1470q-100 0 -141 67q-40 67 -40 149l4 51q-160 -55 -159 -183q0 -14 4 -38q-58 -39 -148 -39q-90 1 -146 35t-56 110t42 136q43 60 108 94q135 71 318 83q76 6 160 7l189 -9q-2 -25 -2 -63q0 -197 84 -258q-1 -62 -59 -102t-158 -40zM1026 1448q236 0 405 -87 t169 -211t-124 -190q-122 -66 -272 -65q-150 0 -237 45q27 53 27 116t-40 62q-70 0 -120 -156t-52 -302q-1 -295 113 -293q47 -1 81 35t44 73l10 35q-44 4 -70 4t-65 -6q-14 57 -14 110q0 176 190 177q66 1 160 -11q93 -12 165 -12t173 19q-94 -444 -94 -658q0 -74 8 -121 q-106 -27 -191 -26q-213 0 -213 198q-147 -201 -407 -200q-201 0 -357 158t-155 450q0 174 48 324q106 336 414 462q168 70 404 70z" glyph-name="Gcircumflex" horiz-adv-x="1472" unicode="Ĝ"/><glyph d="M1092 1122q-100 0 -141 67q-40 67 -40 148l4 52q-160 -55 -159 -183q0 -14 4 -39q-58 -39 -148 -39t-146 35t-56 111t43 136t107 94q134 71 319 83q76 6 159 6l189 -8q-2 -25 -2 -63q0 -197 84 -258q-1 -62 -59 -102t-158 -40zM731 426q57 0 99 116t42 267q0 66 -47 65 q-49 0 -84 -78q-59 -132 -59 -288q0 -46 10 -64t39 -18zM1430 662q0 -184 -180 -304t-472 -120q-178 0 -305 28q-12 -12 -12 -26q0 -46 92 -66t222 -28t261 -26q132 -19 224 -86q92 -68 92 -178q0 -218 -222 -296q-196 -72 -523 -72t-487 54t-161 182q0 104 96 163t253 59 t306 -75q-57 -49 -57 -111q0 -34 16 -56t48 -22t58 32q26 30 26 86q0 103 -197 146q-82 16 -165 36t-140 66t-58 122q0 102 134 172q-152 100 -152 307q0 174 181 294t470 120q166 -1 356 -19t280 -18t190 18q24 -54 24 -116t-48 -107t-132 -45q-35 0 -53 4q35 -59 35 -118z " glyph-name="gcircumflex" horiz-adv-x="1318" unicode="ĝ"/><glyph d="M711 1704q0 35 6 70h321q-4 -25 -4 -37q0 -82 51 -82q37 0 58 38q20 38 24 85h322q-23 -274 -442 -275q-162 0 -249 44t-87 157zM1026 1448q236 0 405 -87t169 -211t-124 -190q-122 -66 -272 -65q-150 0 -237 45q27 53 27 116t-40 62q-70 0 -120 -156t-52 -302 q-1 -295 113 -293q47 -1 81 35t44 73l10 35q-44 4 -70 4t-65 -6q-14 57 -14 110q0 176 190 177q66 1 160 -11q93 -12 165 -12t173 19q-94 -444 -94 -658q0 -74 8 -121q-106 -27 -191 -26q-213 0 -213 198q-147 -201 -407 -200q-201 0 -357 158t-155 450q0 174 48 324 q106 336 414 462q168 70 404 70z" glyph-name="Gbreve" horiz-adv-x="1472" unicode="Ğ"/><glyph d="M866 1153q-162 0 -249 44t-87 157q0 35 7 69h321q-4 -25 -4 -37q0 -82 51 -81q37 0 58 37q20 38 24 85h322q-23 -274 -443 -274zM731 426q57 0 99 116t42 267q0 66 -47 65q-49 0 -84 -78q-59 -132 -59 -288q0 -46 10 -64t39 -18zM1430 662q0 -184 -180 -304t-472 -120 q-178 0 -305 28q-12 -12 -12 -26q0 -46 92 -66t222 -28t261 -26q132 -19 224 -86q92 -68 92 -178q0 -218 -222 -296q-196 -72 -523 -72t-487 54t-161 182q0 104 96 163t253 59t306 -75q-57 -49 -57 -111q0 -34 16 -56t48 -22t58 32q26 30 26 86q0 103 -197 146 q-82 16 -165 36t-140 66t-58 122q0 102 134 172q-152 100 -152 307q0 174 181 294t470 120q166 -1 356 -19t280 -18t190 18q24 -54 24 -116t-48 -107t-132 -45q-35 0 -53 4q35 -59 35 -118z" glyph-name="gbreve" horiz-adv-x="1318" unicode="ğ"/><glyph d="M1382 1722q0 -125 -85 -183t-224 -58q-281 0 -280 217q0 129 91 188t218 60q280 -1 280 -224zM1026 1448q236 0 405 -87t169 -211t-124 -190q-122 -66 -272 -65q-150 0 -237 45q27 53 27 116t-40 62q-70 0 -120 -156t-52 -302q-1 -295 113 -293q47 -1 81 35t44 73l10 35 q-44 4 -70 4t-65 -6q-14 57 -14 110q0 176 190 177q66 1 160 -11q93 -12 165 -12t173 19q-94 -444 -94 -658q0 -74 8 -121q-106 -27 -191 -26q-213 0 -213 198q-147 -201 -407 -200q-201 0 -357 158t-155 450q0 174 48 324q106 336 414 462q168 70 404 70z" glyph-name="Gdotaccent" horiz-adv-x="1472" unicode="Ġ"/><glyph d="M1223 1352q0 -126 -85 -184t-225 -58q-281 0 -280 217q0 129 91 189t218 59q281 0 281 -223zM731 426q57 0 99 116t42 267q0 66 -47 65q-49 0 -84 -78q-59 -132 -59 -288q0 -46 10 -64t39 -18zM1430 662q0 -184 -180 -304t-472 -120q-178 0 -305 28q-12 -12 -12 -26 q0 -46 92 -66t222 -28t261 -26q132 -19 224 -86q92 -68 92 -178q0 -218 -222 -296q-196 -72 -523 -72t-487 54t-161 182q0 104 96 163t253 59t306 -75q-57 -49 -57 -111q0 -34 16 -56t48 -22t58 32q26 30 26 86q0 103 -197 146q-82 16 -165 36t-140 66t-58 122 q0 102 134 172q-152 100 -152 307q0 174 181 294t470 120q166 -1 356 -19t280 -18t190 18q24 -54 24 -116t-48 -107t-132 -45q-35 0 -53 4q35 -59 35 -118z" glyph-name="gdotaccent" horiz-adv-x="1318" unicode="ġ"/><glyph d="M696 -208q0 79 65 121t154 42q199 0 199 -197q0 -139 -75 -232t-177 -93q-66 0 -125 39q89 81 105 159q-146 13 -146 161zM1026 1448q236 0 405 -87t169 -211t-124 -190q-122 -66 -272 -65q-150 0 -237 45q27 53 27 116t-40 62q-70 0 -120 -156t-52 -302 q-1 -295 113 -293q47 -1 81 35t44 73l10 35q-44 4 -70 4t-65 -6q-14 57 -14 110q0 176 190 177q66 1 160 -11q93 -12 165 -12t173 19q-94 -444 -94 -658q0 -74 8 -121q-106 -27 -191 -26q-213 0 -213 198q-147 -201 -407 -200q-201 0 -357 158t-155 450q0 174 48 324 q106 336 414 462q168 70 404 70z" glyph-name="Gcommaaccent" horiz-adv-x="1472" unicode="Ģ"/><glyph d="M694 1451q0 79 65 121t154 42q199 0 199 -197q0 -139 -75 -232t-177 -93q-66 -1 -125 38q89 81 105 160q-146 13 -146 161zM731 426q57 0 99 116t42 267q0 66 -47 65q-49 0 -84 -78q-59 -132 -59 -288q0 -46 10 -64t39 -18zM1430 662q0 -184 -180 -304t-472 -120 q-178 0 -305 28q-12 -12 -12 -26q0 -46 92 -66t222 -28t261 -26q132 -19 224 -86q92 -68 92 -178q0 -218 -222 -296q-196 -72 -523 -72t-487 54t-161 182q0 104 96 163t253 59t306 -75q-57 -49 -57 -111q0 -34 16 -56t48 -22t58 32q26 30 26 86q0 103 -197 146 q-82 16 -165 36t-140 66t-58 122q0 102 134 172q-152 100 -152 307q0 174 181 294t470 120q166 -1 356 -19t280 -18t190 18q24 -54 24 -116t-48 -107t-132 -45q-30 0 -53 4q35 -59 35 -118z" glyph-name="gcommaaccent" horiz-adv-x="1318" unicode="ģ"/><glyph d="M1135 1481q-100 0 -141 66q-40 67 -40 149l4 51q-160 -55 -159 -182q0 -14 4 -39q-57 -39 -147 -39t-147 35q-56 34 -56 110t43 136q76 106 261 150q138 34 324 34l189 -8q-2 -25 -2 -64q0 -197 84 -258q0 -61 -58 -101t-159 -40zM850 281q0 109 57 333h-184 q-72 -301 -72 -471q0 -74 13 -131q-143 -31 -252 -30q-332 0 -332 299q0 106 91 465t91 548q0 70 -8 125q145 31 250 31q166 0 250 -68t84 -180t-66 -393h184q76 299 76 487q0 72 -8 123q145 31 250 31q166 0 250 -68t84 -184t-94 -498t-93 -561q1 -70 13 -127 q-143 -31 -252 -30q-332 0 -332 299z" glyph-name="Hcircumflex" horiz-adv-x="1423" unicode="Ĥ"/><glyph d="M750 289q0 84 22 188q23 104 23 119q0 31 -25 31q-47 0 -79 -114q-50 -178 -50 -366q0 -61 10 -127q-139 -31 -241 -30q-317 0 -318 299q0 104 92 485t92 574q0 68 -8 118q137 31 201 31t74 -2q-4 25 -4 39q0 80 43 140q44 60 108 94q134 71 318 83q76 6 159 7l189 -9 q-2 -25 -2 -63q0 -197 84 -258q0 -62 -58 -102t-159 -40q-100 0 -141 67q-40 67 -40 149l4 51q-160 -55 -159 -183q0 -14 4 -38q-43 -27 -111 -37q49 -61 49 -145q1 -84 -35 -225q-36 -140 -87 -263q211 301 454 301q115 0 181 -57q66 -58 67 -160q0 -102 -54 -326t-54 -332 q0 -109 10 -168q-125 -37 -232 -36q-155 0 -241 78t-86 227z" glyph-name="hcircumflex" horiz-adv-x="1300" unicode="ĥ"/><glyph d="M772 809h184q34 131 54 244l-185 8q-8 -45 -53 -252zM850 281q0 109 57 333h-184q-72 -301 -72 -471q0 -74 13 -131q-143 -31 -252 -30q-332 0 -332 299q0 104 70 385t88 385l-97 -7q-27 45 -26 107q0 143 147 174q-4 61 -8 94q145 31 250 31q225 0 301 -127 q80 -4 227 -8q0 39 -8 104q145 31 250 31q238 0 307 -141q78 4 119 8q20 -45 20 -92q0 -131 -127 -172q-14 -87 -60 -273q-112 -452 -112 -641q1 -70 13 -127q-143 -31 -252 -30q-332 0 -332 299z" glyph-name="Hbar" horiz-adv-x="1423" unicode="Ħ"/><glyph d="M819 1053h-20q-39 -160 -94 -291q211 301 454 301q115 0 181 -57q66 -58 67 -160q0 -102 -54 -326q-55 -224 -55 -332t11 -168q-125 -37 -232 -36q-155 0 -241 78t-86 227q0 84 22 188q23 104 23 119q0 31 -25 31q-47 0 -79 -114q-50 -178 -50 -366q0 -61 10 -127 q-139 -31 -241 -30q-317 0 -318 299q0 102 69 390t87 388q-92 -4 -135 -8q-27 53 -27 115t45 112q45 51 145 60q0 70 -8 120q137 31 240 31q250 0 305 -168h109q63 0 90 2q20 -45 20 -107t-51 -117q-51 -54 -162 -54z" glyph-name="hbar" horiz-adv-x="1300" unicode="ħ"/><glyph d="M1116 1728q0 -108 -84 -186t-224 -78t-298 48t-229 49q-121 0 -271 -78q-57 87 -57 197t92 193t277 83q96 0 278 -49t274 -49t168 59q74 -81 74 -189zM86 281q0 106 91 465t91 548q0 70 -8 125q145 31 250 31q166 0 250 -68t84 -184t-93 -498t-94 -561q1 -70 13 -127 q-145 -31 -252 -30q-332 0 -332 299z" glyph-name="Itilde" horiz-adv-x="651" unicode="Ĩ"/><glyph d="M285 1231q-121 0 -271 -78q-57 87 -57 197t92 193t277 83q96 0 278 -49t274 -49t169 59q73 -81 73 -189t-84 -186t-224 -78t-298 49q-158 48 -229 48zM207 993v35q176 33 296 33q121 0 187 -48t66 -157q0 -39 -56 -297t-57 -422q0 -68 8 -123q-139 -31 -241 -30 q-317 0 -318 299q0 105 58 337t57 373z" glyph-name="itilde" horiz-adv-x="649" unicode="ĩ"/><glyph d="M33 1354q0 80 66 124q67 44 182 44q57 0 238 -12t297 -13q116 0 190 19q47 -39 47 -121q0 -158 -242 -158q-47 0 -224 11t-302 11t-209 -18q-43 33 -43 113zM207 993v35q176 33 296 33q121 0 187 -48t66 -157q0 -39 -56 -297t-57 -422q0 -68 8 -123q-139 -31 -241 -30 q-317 0 -318 299q0 105 58 337t57 373z" glyph-name="imacron" horiz-adv-x="649" unicode="ī"/><glyph d="M475 1483q-160 0 -248 44t-88 156q0 37 6 70h322q-4 -25 -4 -37q0 -82 51 -82q38 0 58 38t24 85h322q-23 -274 -443 -274zM76 281q0 106 91 465t91 548q0 70 -8 125q145 31 250 31q166 0 250 -68t84 -184t-94 -498t-93 -561q0 -70 12 -127q-143 -31 -251 -30 q-332 0 -332 299z" glyph-name="Ibreve" horiz-adv-x="653" unicode="Ĭ"/><glyph d="M1282 -193q0 -133 -154 -222t-404 -89t-379 97q-130 97 -130 233q0 94 59 172q-195 51 -194 283q0 106 91 465t91 548q0 70 -8 125q145 31 250 31q166 0 250 -68t84 -184t-94 -498t-93 -561q0 -70 13 -127q-33 -8 -50 -10q-20 -41 -20 -80q0 -70 76 -108t180 -37 q104 0 189 32t128 62l45 31q70 -14 70 -95z" glyph-name="Iogonek" horiz-adv-x="653" unicode="Į"/><glyph d="M831 1356q0 -126 -85 -184t-224 -58q-281 0 -280 217q0 129 91 189t218 59q280 0 280 -223zM207 993v35q176 33 296 33q121 0 187 -48t66 -157q0 -39 -56 -297t-57 -422q0 -68 8 -123q-8 -2 -112 -20q-18 -43 -19 -78q0 -70 76 -108t180 -37t190 31q85 30 128 63l45 31 q70 -14 69 -95q0 -133 -154 -222t-403 -89q-250 0 -380 97t-130 233q0 109 84 198q-133 68 -133 265q0 105 58 337t57 373z" glyph-name="iogonek" horiz-adv-x="649" unicode="į"/><glyph d="M840 1733q0 -125 -85 -183t-225 -59q-281 0 -280 217q0 129 91 188t218 60q281 0 281 -223zM254 1294q0 70 -8 125q145 31 250 31q166 0 250 -68t83 -184q0 -116 -93 -498t-93 -561q0 -70 12 -127q-143 -31 -252 -30q-332 0 -331 299q0 106 91 465t91 548z" glyph-name="Idotaccent" horiz-adv-x="653" unicode="İ"/><glyph d="M207 993v35q176 33 296 33q121 0 187 -48t66 -157q0 -39 -56 -297t-57 -422q0 -68 8 -123q-139 -31 -241 -30q-317 0 -318 299q0 105 58 337t57 373z" glyph-name="dotlessi" horiz-adv-x="649" unicode="ı"/><glyph d="M812 1464q-100 0 -141 67q-40 67 -40 148l4 52q-160 -55 -160 -183q0 -14 4 -39q-57 -39 -147 -39t-147 35q-56 35 -56 111t43 136t108 94q136 71 318 83q76 6 160 6l188 -8q-2 -25 -2 -63q0 -197 84 -258q0 -62 -58 -102t-158 -40zM-272 -57q141 1 198 69t119 271 q4 14 47 152q132 425 162 655q14 110 14 194t-8 135q145 31 250 31q166 0 250 -68t84 -194t-89 -490q-89 -362 -182 -655q-145 -457 -548 -457q-166 0 -254 67t-88 173q-1 56 24 117h21z" glyph-name="Jcircumflex" horiz-adv-x="659" unicode="Ĵ"/><glyph d="M736 1126q-100 0 -141 67q-40 67 -40 148l4 52q-160 -55 -160 -183q0 -14 4 -39q-57 -39 -147 -39t-146 36q-56 34 -56 110t42 136q43 60 108 94q136 71 318 83q76 6 160 6l188 -8q-2 -25 -2 -63q0 -197 84 -258q0 -62 -58 -102t-158 -40zM215 942q0 68 -6 86 q162 35 274 35q274 0 275 -203q0 -168 -168 -862q-47 -193 -190 -342q-161 -168 -443 -168q-151 0 -254 52q-102 52 -102 163q0 49 20 104q197 -1 286 59t126 216q10 41 41 168t50 211q19 85 55 249t36 232z" glyph-name="jcircumflex" horiz-adv-x="634" unicode="ĵ"/><glyph d="M80 281q0 106 91 465t91 548q0 70 -8 125q145 31 250 31q166 0 250 -68t84 -180t-64 -377q190 109 191 361q0 90 -27 196q131 53 246 54q156 0 248 -102t92 -253t-122 -243t-341 -101q336 -6 336 -291l-15 -217q0 -126 41 -192q-139 -51 -278 -51q-317 0 -318 276l13 225 q0 150 -99 199q-90 -365 -90 -545q1 -72 13 -129q-143 -31 -252 -30q-332 0 -332 299zM530 -208q0 79 65 121t155 42q199 0 198 -197q0 -184 -122 -279t-255 -7q89 81 105 159q-146 13 -146 161z" glyph-name="Kcommaaccent" horiz-adv-x="1368" unicode="Ķ"/><glyph d="M438 -208q0 79 65 121t154 42q199 0 199 -197q0 -139 -75 -232t-177 -93q-66 0 -125 39q89 81 105 159q-146 13 -146 161zM1294 268q0 -133 -80 -214t-221 -81q-182 0 -255 135q-64 117 -64 279q0 84 6 127q-37 -184 -37 -310t8 -190q-139 -31 -241 -30q-317 0 -318 299 q0 88 93 484t94 579q0 57 -11 114q137 29 248 29q172 0 245 -73q73 -72 73 -184t-18 -200t-64 -219q-45 -131 -54 -160q174 150 174 291q0 41 -14 78q139 41 262 41t215 -54t92 -155q0 -160 -140 -238t-369 -81q94 -92 237 -93q45 1 102 15q37 -100 37 -189z" glyph-name="kcommaaccent" horiz-adv-x="1296" unicode="ķ"/><glyph d="M1078 1972q104 0 172 -46q67 -46 67 -144t-82 -178q-82 -82 -191 -119t-197 -37q-89 0 -141 20t-71 41l-19 21q258 157 258 354l-2 31q102 57 206 57zM688 442q66 -6 166 -6t184 27l29 8q49 -63 49 -167t-22 -158q-22 -56 -60 -89q-37 -33 -128 -53t-308 -20 q-403 0 -480 128q-38 60 -38 168t91 466q91 359 91 548q0 70 -8 125q145 31 250 31q166 0 250 -68t84 -184t-67 -396t-83 -360z" glyph-name="Lacute" horiz-adv-x="1081" unicode="Ĺ"/><glyph d="M716 2060q104 0 172 -46q66 -46 66 -144t-82 -178q-82 -82 -190 -119t-197 -37q-88 0 -141 20t-72 41l-18 21q258 157 258 354l-2 31q102 57 206 57zM276 1341q0 68 -8 119q137 31 240 31q160 0 240 -68t80 -184q0 -115 -94 -517q-93 -402 -93 -585q0 -62 10 -123 q-139 -31 -241 -30q-317 0 -318 299q0 104 92 485t92 573z" glyph-name="lacute" horiz-adv-x="647" unicode="ĺ"/><glyph d="M332 -208q0 79 64 121q65 42 155 42q199 0 199 -197q0 -139 -75 -232t-177 -93q-66 0 -125 39q88 80 104 159q-145 13 -145 161zM688 442q66 -6 166 -6t184 27l29 8q49 -63 49 -167t-22 -158q-22 -56 -60 -89q-37 -33 -128 -53t-308 -20q-403 0 -480 128q-38 60 -38 168 t91 466q91 359 91 548q0 70 -8 125q145 31 250 31q166 0 250 -68t84 -184t-67 -396t-83 -360z" glyph-name="Lcommaaccent" horiz-adv-x="1081" unicode="Ļ"/><glyph d="M115 -208q0 79 64 121q65 42 155 42q199 0 198 -197q0 -139 -74 -232t-177 -93q-66 0 -125 39q88 80 104 159q-145 13 -145 161zM276 1341q0 68 -8 119q137 31 240 31q160 0 240 -68t80 -184q0 -115 -94 -517q-93 -402 -93 -585q0 -62 10 -123q-139 -31 -241 -30 q-317 0 -318 299q0 104 92 485t92 573z" glyph-name="lcommaaccent" horiz-adv-x="647" unicode="ļ"/><glyph d="M813 1552q0 132 93 194t224 62q289 0 289 -286q-1 -203 -109 -339t-257 -136q-93 0 -181 57q64 58 102 116t44 87l6 30q-98 11 -154 65t-57 150zM688 442q66 -6 166 -6t184 27l29 8q49 -63 49 -167t-22 -158q-22 -56 -60 -89q-37 -33 -128 -53t-308 -20q-403 0 -480 128 q-38 60 -38 168t91 466q91 359 91 548q0 70 -8 125q145 31 250 31q166 0 250 -68t84 -184t-67 -396t-83 -360z" glyph-name="Lcaron" horiz-adv-x="1081" unicode="Ľ"/><glyph d="M897 1280q0 132 93 194t224 62q289 0 289 -287q-1 -203 -109 -339t-257 -136q-93 0 -181 57q64 57 102 115t44 90l6 29q-98 10 -155 64q-56 54 -56 151zM276 1341q0 68 -8 119q137 31 240 31q160 0 240 -68t80 -184q0 -115 -94 -517q-93 -402 -93 -585q0 -62 10 -123 q-139 -31 -241 -30q-317 0 -318 299q0 104 92 485t92 573z" glyph-name="lcaron" horiz-adv-x="1282" unicode="ľ"/><glyph d="M844 442q66 -6 166 -6t184 27l29 8q49 -63 49 -167q0 -172 -82 -247q-65 -58 -253 -69q-71 -4 -236 -4t-277 34t-151 94q-38 60 -37 169q0 109 57 331q-68 -29 -98 -49q-82 39 -82 137q0 119 131 158q29 10 116 31q57 240 58 405q0 70 -8 125q145 31 249 31 q166 0 250 -68t84 -194q0 -53 -12 -121q113 43 164 80q78 -63 78 -150q0 -111 -142 -153q-14 -4 -37 -10q-24 -6 -58 -16t-58 -17q-64 -265 -84 -359z" glyph-name="Lslash" horiz-adv-x="1218" unicode="Ł"/><glyph d="M256 283q0 94 37 258q-82 -43 -109 -64q-40 17 -66 57t-26 87q0 106 119 153q10 4 151 51q78 330 78 516q0 68 -8 119q139 31 240 31q160 0 240 -68t79 -194q0 -66 -20 -174q72 35 119 71q88 -63 88 -158t-129 -147q-20 -8 -140 -49q-104 -465 -104 -635q0 -62 10 -123 q-139 -31 -242 -30q-317 0 -317 299z" glyph-name="lslash" horiz-adv-x="985" unicode="ł"/><glyph d="M1440 1846q0 -98 -82 -179q-82 -82 -191 -119t-197 -37q-88 1 -141 21t-71 41l-19 20q258 158 258 355l-2 30q103 58 207 58t171 -46t67 -144zM653 135q0 -51 11 -123q-143 -31 -252 -30q-332 0 -332 299q0 106 91 465t91 548q0 70 -8 125q131 29 246 29q114 0 196 -42 t129 -106q116 -156 129 -573q98 336 99 578q0 68 -11 114q143 31 250 31q166 0 250 -68t84 -184t-93 -498t-93 -561q0 -70 12 -127q-176 -29 -235 -28q-262 0 -375 160t-117 470q-9 -56 -23 -111t-23 -106t-13 -85t-8 -80t-5 -97z" glyph-name="Nacute" horiz-adv-x="1441" unicode="Ń"/><glyph d="M858 1124q-88 0 -141 20t-72 42l-18 20q258 158 258 355l-2 30q103 57 207 57t171 -45q67 -46 67 -144q0 -97 -83 -179t-191 -119t-196 -37zM203 989v35q160 37 270 37q268 0 268 -197q0 -31 -6 -61q199 260 424 260q115 0 181 -57q66 -58 67 -160q0 -102 -54 -326 q-55 -224 -55 -332t11 -168q-125 -37 -232 -36q-155 0 -241 78t-86 227q0 84 22 188q23 104 23 119q0 31 -25 31q-59 0 -93 -160q-34 -159 -34 -275t8 -172q-139 -31 -241 -30q-317 0 -318 299q0 107 56 333t55 367z" glyph-name="nacute" horiz-adv-x="1296" unicode="ń"/><glyph d="M530 -208q0 79 65 121t155 42q199 0 198 -197q0 -139 -75 -232t-177 -93q-66 0 -125 39q89 81 105 159q-146 13 -146 161zM653 135q0 -51 11 -123q-143 -31 -252 -30q-332 0 -332 299q0 106 91 465t91 548q0 70 -8 125q131 29 246 29q114 0 196 -42t129 -106 q116 -156 129 -573q98 336 99 578q0 68 -11 114q143 31 250 31q166 0 250 -68t84 -184t-93 -498t-93 -561q0 -70 12 -127q-176 -29 -235 -28q-262 0 -375 160t-117 470q-9 -56 -23 -111t-23 -106t-13 -85t-8 -80t-5 -97z" glyph-name="Ncommaaccent" horiz-adv-x="1441" unicode="Ņ"/><glyph d="M483 -208q0 79 65 121t154 42q199 0 199 -197q0 -139 -75 -232t-177 -93q-66 0 -125 39q89 81 105 159q-146 13 -146 161zM203 989v35q160 37 270 37q268 0 268 -197q0 -31 -6 -61q199 260 424 260q115 0 181 -57q66 -58 67 -160q0 -102 -54 -326q-55 -224 -55 -332 t11 -168q-125 -37 -232 -36q-155 0 -241 78t-86 227q0 84 22 188q23 104 23 119q0 31 -25 31q-59 0 -93 -160q-34 -159 -34 -275t8 -172q-139 -31 -241 -30q-317 0 -318 299q0 107 56 333t55 367z" glyph-name="ncommaaccent" horiz-adv-x="1296" unicode="ņ"/><glyph d="M1289 1944q202 0 202 -155q0 -85 -65 -154q-143 -152 -578 -152l-154 6q2 23 2 55q0 217 -104 264q0 62 58 102t158 40t141 -67q40 -67 40 -148l-4 -52q160 55 160 183q0 14 -4 39q59 39 148 39zM653 135q0 -51 11 -123q-143 -31 -252 -30q-332 0 -332 299q0 106 91 465 t91 548q0 70 -8 125q131 29 246 29q114 0 196 -42t129 -106q116 -156 129 -573q98 336 99 578q0 68 -11 114q143 31 250 31q166 0 250 -68t84 -184t-93 -498t-93 -561q0 -70 12 -127q-176 -29 -235 -28q-262 0 -375 160t-117 470q-9 -56 -23 -111t-23 -106t-13 -85t-8 -80 t-5 -97z" glyph-name="Ncaron" horiz-adv-x="1441" unicode="Ň"/><glyph d="M1168 1569q202 0 202 -155q0 -86 -64 -154t-174 -99q-186 -53 -405 -53l-154 6q2 23 2 55q0 217 -104 265q0 61 58 101q59 40 159 40t140 -67t40 -148l-4 -51q160 55 160 182q0 14 -4 39q58 39 148 39zM203 989v35q160 37 270 37q268 0 268 -197q0 -31 -6 -61 q199 260 424 260q115 0 181 -57q66 -58 67 -160q0 -102 -54 -326q-55 -224 -55 -332t11 -168q-125 -37 -232 -36q-155 0 -241 78t-86 227q0 84 22 188q23 104 23 119q0 31 -25 31q-59 0 -93 -160q-34 -159 -34 -275t8 -172q-139 -31 -241 -30q-317 0 -318 299q0 107 56 333 t55 367z" glyph-name="ncaron" horiz-adv-x="1296" unicode="ň"/><glyph d="M1292 1450q334 0 334 -268q0 -132 -94 -511q-94 -378 -203 -714q-150 -457 -549 -457q-166 0 -254 67t-88 173q0 56 25 117q16 -2 47 -2q256 0 256 370q0 121 -41 389q-9 -56 -23 -111t-32 -154t-17 -182q0 -83 11 -155q-143 -31 -252 -30q-332 0 -332 299q0 106 91 465 t91 548q0 70 -8 125q131 29 246 29q114 0 196 -42t129 -106q116 -156 129 -573q98 336 99 578q0 68 -11 114q143 31 250 31z" glyph-name="Eng" horiz-adv-x="1441" unicode="Ŋ"/><glyph d="M203 989v35q160 37 270 37q268 0 268 -197q0 -31 -6 -61q199 260 424 260q115 0 181 -57q66 -58 67 -158q0 -100 -61 -372t-132 -521q-129 -467 -583 -467q-174 0 -277 52q-102 52 -102 163q0 49 20 104q57 -4 78 -4q143 0 231 72q87 72 126 250q10 47 50 254t40 217 q0 31 -27 31q-66 1 -100 -183t-33 -292q0 -108 2 -134q-125 -27 -229 -26q-317 0 -318 297q0 107 56 333t55 367z" glyph-name="eng" horiz-adv-x="1296" unicode="ŋ"/><glyph d="M559 1606q0 80 67 124t181 44q57 0 239 -12t296 -13q116 0 190 18q47 -39 47 -120q0 -158 -242 -158q-47 0 -224 11t-302 11t-209 -18q-43 33 -43 113zM791 311q41 1 75 89t74 312q41 224 41 315t-45 91t-76 -83t-73 -316t-42 -321t46 -87zM758 -16q-281 0 -440 150 t-158 444q0 422 230 646t593 224q279 0 441 -144t161 -419q0 -437 -222 -669t-605 -232z" glyph-name="Omacron" horiz-adv-x="1480" unicode="Ō"/><glyph d="M381 1354q0 80 66 124q67 44 182 44q57 0 238 -12t297 -13q116 0 190 19q47 -39 47 -121q0 -158 -242 -158q-47 0 -224 11t-302 11t-209 -18q-43 33 -43 113zM637 347q0 -54 46 -54t75 48q29 49 52 165q24 116 24 178t-52 61q-42 0 -68 -46t-52 -172t-25 -180zM1370 631 q0 -311 -169 -479t-564 -168q-254 0 -396 108t-143 322q0 311 169 480t564 169q251 -1 395 -111t144 -321z" glyph-name="omacron" unicode="ō"/><glyph d="M991 1491q-160 0 -248 44t-88 157q0 37 7 69h321q-4 -25 -4 -37q0 -82 51 -82q38 0 58 38t24 85h322q-23 -274 -443 -274zM791 311q41 1 75 89t74 312q41 224 41 315t-45 91t-76 -83t-73 -316t-42 -321t46 -87zM758 -16q-281 0 -440 150t-158 444q0 422 230 646t593 224 q279 0 441 -144t161 -419q0 -437 -222 -669t-605 -232z" glyph-name="Obreve" horiz-adv-x="1480" unicode="Ŏ"/><glyph d="M494 1403q0 35 6 70h321q-4 -25 -4 -37q0 -82 51 -82q37 0 58 38q20 38 24 85h322q-23 -274 -443 -275q-163 0 -249 44t-86 157zM637 347q0 -54 46 -54t75 48q29 49 52 165q24 116 24 178t-52 61q-42 0 -68 -46t-52 -172t-25 -180zM1370 631q0 -311 -169 -479t-564 -168 q-254 0 -396 108t-143 322q0 311 169 480t564 169q251 -1 395 -111t144 -321z" glyph-name="obreve" unicode="ŏ"/><glyph d="M1541 2017q93 0 160 -47t66 -139q1 -162 -165 -255t-356 -93t-232 84q90 31 203 123q59 49 99 125t48 165q84 37 177 37zM920 2017q93 0 160 -47t67 -139q0 -162 -166 -255q-167 -93 -357 -93t-231 84q90 31 203 123q59 49 99 125t48 165q84 37 177 37zM791 311 q41 1 75 89t74 312q41 224 41 315t-45 91t-76 -83t-73 -316t-42 -321t46 -87zM758 -16q-281 0 -440 150t-158 444q0 422 230 646t593 224q279 0 441 -144t161 -419q0 -437 -222 -669t-605 -232z" glyph-name="Ohungarumlaut" horiz-adv-x="1480" unicode="Ő"/><glyph d="M1430 1657q93 0 160 -47t67 -140q0 -162 -166 -255q-167 -93 -357 -93t-231 84q90 31 203 123q59 49 99 125t48 166q84 37 177 37zM810 1657q93 0 160 -47t66 -140q0 -162 -166 -255t-356 -93t-231 84q91 31 213 132q121 101 137 282q84 37 177 37zM637 347q0 -54 46 -54 t75 48q29 49 52 165q24 116 24 178t-52 61q-42 0 -68 -46t-52 -172t-25 -180zM1370 631q0 -311 -169 -479t-564 -168q-254 0 -396 108t-143 322q0 311 169 480t564 169q251 -1 395 -111t144 -321z" glyph-name="ohungarumlaut" unicode="ő"/><glyph d="M989 1027q0 91 -45 91t-77 -84q-31 -84 -73 -315t-42 -319t47 -89q41 1 75 89t74 312q41 224 41 315zM2048 1284q0 -201 -134 -264q-115 -53 -327 -53h-37l-18 -88h29q133 0 225 24q41 -43 41 -145q0 -221 -287 -221q-29 0 -90 4l-11 -55q-7 -34 -9 -44q66 -6 169 -6 t205 27l35 8q49 -63 49 -165q0 -174 -92 -249q-72 -58 -270 -69q-74 -4 -195 -4h-565q-282 0 -440 150t-158 444q0 422 230 646t593 224l721 -14q182 0 287 20q49 -62 49 -170z" glyph-name="OE" horiz-adv-x="1861" unicode="Œ"/><glyph d="M1587 688q0 58 -51 57q-44 1 -68 -41t-49 -157q84 4 126 44q42 39 42 97zM637 347q0 -54 46 -54t75 48q29 49 52 165q24 116 24 178t-52 61q-42 0 -68 -46t-52 -172t-25 -180zM831 1063q209 0 349 -82q176 82 442 82t402 -86t136 -211t-94 -205q-179 -151 -497 -149 q-74 0 -160 14q14 -139 188 -139q95 -1 193 29t147 61l50 29q74 -45 73 -123q0 -104 -96 -174q-174 -127 -532 -125q-226 -1 -369 75q-168 -75 -424 -75t-398 108t-143 322q0 311 169 480t564 169z" glyph-name="oe" horiz-adv-x="2004" unicode="œ"/><glyph d="M1481 1846q0 -98 -82 -179q-82 -82 -191 -119t-197 -37q-88 1 -141 21t-71 41l-19 20q258 158 258 355l-2 30q102 58 206 58t172 -46q67 -46 67 -144zM942 947q0 111 -90 112l-27 -2q-33 -182 -90 -391q90 0 149 85q58 85 58 196zM651 174q0 -102 13 -162 q-143 -31 -252 -30q-332 0 -332 299q0 106 91 465t91 548q0 70 -8 125q262 31 477 31q786 0 787 -457q0 -205 -98 -325t-279 -158q27 -76 91 -121t157 -45q43 0 77 8q37 -59 37 -146q-1 -87 -69 -155q-68 -67 -214 -67t-264 79q-217 149 -262 424q-43 -211 -43 -313z" glyph-name="Racute" horiz-adv-x="1433" unicode="Ŕ"/><glyph d="M211 983v35q162 37 272 37q266 0 267 -205q0 -63 -25 -141q88 162 201 255t218 93q104 1 164 -63t60 -163q0 -182 -133 -316t-309 -134q-94 0 -178 41q55 72 55 158q0 41 -25 41q-43 0 -85 -162t-42 -275t8 -170q-139 -31 -241 -30q-317 0 -318 299q0 107 56 333t55 367z M1307 1459q0 -97 -82 -179t-191 -119t-197 -37t-141 20t-71 42l-19 20q258 158 258 355l-2 30q102 57 206 57t172 -45q67 -46 67 -144z" glyph-name="racute" horiz-adv-x="1234" unicode="ŕ"/><glyph d="M508 -208q0 79 64 121q65 42 155 42q199 0 199 -197q0 -139 -75 -232t-177 -93q-66 0 -125 39q88 80 104 159q-145 13 -145 161zM942 947q0 111 -90 112l-27 -2q-33 -182 -90 -391q90 0 149 85q58 85 58 196zM651 174q0 -102 13 -162q-143 -31 -252 -30q-332 0 -332 299 q0 106 91 465t91 548q0 70 -8 125q262 31 477 31q786 0 787 -457q0 -205 -98 -325t-279 -158q27 -76 91 -121t157 -45q43 0 77 8q37 -59 37 -146q-1 -87 -69 -155q-68 -67 -214 -67t-264 79q-217 149 -262 424q-43 -211 -43 -313z" glyph-name="Rcommaaccent" horiz-adv-x="1433" unicode="Ŗ"/><glyph d="M211 983v35q162 37 272 37q266 0 267 -205q0 -63 -25 -141q88 162 201 255t218 93q104 1 164 -63t60 -163q0 -182 -133 -316t-309 -134q-94 0 -178 41q55 72 55 158q0 41 -25 41q-43 0 -85 -162t-42 -275t8 -170q-139 -31 -241 -30q-317 0 -318 299q0 107 56 333t55 367z M444 -208q0 79 65 121t155 42q199 0 198 -197q0 -139 -75 -232t-177 -93q-66 0 -125 39q89 81 105 159q-146 13 -146 161z" glyph-name="rcommaaccent" horiz-adv-x="1234" unicode="ŗ"/><glyph d="M1296 1950q202 0 201 -155q-1 -85 -65 -154t-172 -99q-187 -52 -406 -53l-154 6q2 23 2 55q0 217 -104 265q0 61 58 101t158 40t141 -67q40 -67 40 -148l-4 -51q160 55 160 182q0 14 -4 39q59 39 149 39zM942 947q0 111 -90 112l-27 -2q-33 -182 -90 -391q90 0 149 85 q58 85 58 196zM651 174q0 -102 13 -162q-143 -31 -252 -30q-332 0 -332 299q0 106 91 465t91 548q0 70 -8 125q262 31 477 31q786 0 787 -457q0 -205 -98 -325t-279 -158q27 -76 91 -121t157 -45q43 0 77 8q37 -59 37 -146q-1 -87 -69 -155q-68 -67 -214 -67t-264 79 q-217 149 -262 424q-43 -211 -43 -313z" glyph-name="Rcaron" horiz-adv-x="1433" unicode="Ř"/><glyph d="M211 983v35q162 37 272 37q266 0 267 -205q0 -63 -25 -141q88 162 201 255t218 93q104 1 164 -63t60 -163q0 -182 -133 -316t-309 -134q-94 0 -178 41q55 72 55 158q0 41 -25 41q-43 0 -85 -162t-42 -275t8 -170q-139 -31 -241 -30q-317 0 -318 299q0 107 56 333t55 367z M1146 1579q90 0 145 -35q57 -36 57 -120t-65 -153t-173 -100q-186 -53 -405 -53l-154 6q2 23 2 56q0 217 -104 264q0 61 58 101t158 40t141 -66q40 -67 40 -149l-4 -51q160 55 159 182q0 14 -4 39q59 39 149 39z" glyph-name="rcaron" horiz-adv-x="1234" unicode="ř"/><glyph d="M874 1511q-88 1 -141 21t-71 41l-19 20q258 158 258 355l-2 30q103 58 207 58t171 -46t67 -144t-82 -179q-82 -82 -191 -119t-197 -37zM804 1163q-60 0 -60 -73t125 -150q126 -77 234 -171q54 -48 90 -122t36 -162q0 -502 -656 -501q-289 0 -431 85t-142 226 q0 113 99 173t231 60t215 -45q-29 -43 -29 -79t18 -56t41 -20q70 0 70 86q0 49 -49 90t-120 80q-70 39 -140 90t-119 141t-49 211q0 208 169 316t455 108t430 -72t144 -186t-87 -162q-87 -49 -221 -49t-216 45q23 39 22 76q0 61 -60 61z" glyph-name="Sacute" horiz-adv-x="1153" unicode="Ś"/><glyph d="M1313 1459q0 -97 -82 -179t-191 -119t-197 -37t-141 20t-71 42l-19 20q258 158 258 355l-2 30q102 57 206 57t172 -45q67 -46 67 -144zM1325 825q0 -171 -288 -169q-138 0 -230 53q16 29 16 51t-15 38q-15 15 -40 15q-63 0 -63 -55q0 -41 55 -70q55 -30 133 -52t157 -52 t134 -85q55 -56 55 -139q0 -196 -173 -286t-525 -90q-213 0 -352 63q-138 63 -138 169t79 158q79 50 209 50t239 -57q-35 -69 -5 -106q14 -17 37 -17q74 0 74 75q0 43 -56 73t-136 52t-160 55t-136 99t-57 162q0 150 179 226t483 77q520 0 524 -238z" glyph-name="sacute" horiz-adv-x="1204" unicode="ś"/><glyph d="M764 1556q0 -14 4 -38q-58 -39 -148 -39q-90 1 -146 35t-56 110t43 136t107 94q134 71 319 83q76 6 160 7l188 -9q-2 -25 -2 -63q0 -197 84 -258q-1 -62 -59 -102t-158 -40t-141 67q-40 67 -39 149l4 51q-160 -55 -160 -183zM804 1163q-60 0 -60 -73t125 -150 q126 -77 234 -171q54 -48 90 -122t36 -162q0 -502 -656 -501q-289 0 -431 85t-142 226q0 113 99 173t231 60t215 -45q-29 -43 -29 -79t18 -56t41 -20q70 0 70 86q0 49 -49 90t-120 80q-70 39 -140 90t-119 141t-49 211q0 208 169 316t455 108t430 -72t144 -186t-87 -162 q-87 -49 -221 -49t-216 45q23 39 22 76q0 61 -60 61z" glyph-name="Scircumflex" horiz-adv-x="1153" unicode="Ŝ"/><glyph d="M1086 1126q-100 0 -141 67q-40 67 -40 148l4 52q-160 -55 -159 -183q0 -14 4 -39q-58 -39 -148 -39t-146 36q-56 34 -56 110t42 136q43 60 108 94q135 71 318 83q76 6 160 6l189 -8q-2 -25 -2 -63q0 -197 84 -258q-1 -62 -59 -102t-158 -40zM1325 825q0 -171 -288 -169 q-138 0 -230 53q16 29 16 51t-15 38q-15 15 -40 15q-63 0 -63 -55q0 -41 55 -70q55 -30 133 -52t157 -52t134 -85q55 -56 55 -139q0 -196 -173 -286t-525 -90q-213 0 -352 63q-138 63 -138 169t79 158q79 50 209 50t239 -57q-35 -69 -5 -106q14 -17 37 -17q74 0 74 75 q0 43 -56 73t-136 52t-160 55t-136 99t-57 162q0 150 179 226t483 77q520 0 524 -238z" glyph-name="scircumflex" horiz-adv-x="1204" unicode="ŝ"/><glyph d="M1022 -311q0 -135 -117 -216t-321 -81q-350 0 -351 205q1 71 57 107t149 36t177 -47q-36 -27 -36 -73t43 -46q31 0 48 26t17 60q0 57 -87 90t-183 33h-94q29 98 67 213q-197 26 -294 104t-97 193t99 175t231 60t215 -45q-29 -43 -29 -79t18 -56t41 -20q70 0 70 86 q0 49 -49 90t-120 80q-70 39 -140 90t-119 141t-49 211q0 208 169 316t455 108t430 -72t144 -186t-87 -162q-87 -49 -221 -49t-216 45q23 39 22 76q0 61 -60 61t-60 -73t125 -150q126 -77 234 -171q54 -48 90 -122t36 -162q-1 -450 -527 -495l-12 -45q136 -5 234 -63 t98 -193z" glyph-name="Scedilla" horiz-adv-x="1153" unicode="Ş"/><glyph d="M1325 825q0 -170 -288 -170q-138 0 -230 54q16 29 16 51t-15 38q-15 15 -40 15q-63 0 -63 -55q0 -41 55 -70q55 -30 133 -52t157 -52t134 -85q55 -56 55 -139q0 -325 -506 -368l-12 -47q137 -5 234 -63t97 -193t-116 -216q-117 -81 -322 -81q-350 0 -350 205q0 71 56 107 t150 36q93 0 177 -47q-37 -27 -37 -73t43 -46q31 0 48 26t18 60q0 57 -87 90t-183 33h-95q37 119 68 207q-166 16 -268 76t-102 159t78 149q79 50 209 50t239 -57q-35 -69 -5 -106q14 -17 37 -17q74 0 74 75q0 43 -56 73t-136 52t-160 55t-136 99t-57 162q0 150 179 226 t483 77q520 0 524 -238z" glyph-name="scedilla" horiz-adv-x="1204" unicode="ş"/><glyph d="M1174 1944q202 0 202 -155q0 -85 -64 -154t-174 -99q-187 -52 -405 -53l-153 6q2 23 2 55q0 217 -105 264q1 62 59 102t158 40t140 -67t40 -148l-4 -52q160 55 160 183q0 14 -4 39q58 39 148 39zM804 1163q-60 0 -60 -73t125 -150q126 -77 234 -171q54 -48 90 -122 t36 -162q0 -502 -656 -501q-289 0 -431 85t-142 226q0 113 99 173t231 60t215 -45q-29 -43 -29 -79t18 -56t41 -20q70 0 70 86q0 49 -49 90t-120 80q-70 39 -140 90t-119 141t-49 211q0 208 169 316t455 108t430 -72t144 -186t-87 -162q-87 -49 -221 -49t-216 45 q23 39 22 76q0 61 -60 61z" glyph-name="Scaron" horiz-adv-x="1167" unicode="Š"/><glyph d="M1098 1589q202 -1 202 -155q0 -84 -64 -153t-174 -99q-183 -51 -405 -54l-153 7q2 23 2 55q0 217 -105 264q1 61 59 101t158 40t141 -66q40 -67 40 -149l-4 -51q160 55 159 182q0 14 -4 39q58 39 148 39zM1325 825q0 -171 -288 -169q-138 0 -230 53q16 29 16 51t-15 38 q-15 15 -40 15q-63 0 -63 -55q0 -41 55 -70q55 -30 133 -52t157 -52t134 -85q55 -56 55 -139q0 -196 -173 -286t-525 -90q-213 0 -352 63q-138 63 -138 169t79 158q79 50 209 50t239 -57q-35 -69 -5 -106q14 -17 37 -17q74 0 74 75q0 43 -56 73t-136 52t-160 55t-136 99 t-57 162q0 150 179 226t483 77q520 0 524 -238z" glyph-name="scaron" horiz-adv-x="1206" unicode="š"/><glyph d="M453 -208q0 79 64 121q65 42 155 42q199 0 198 -197q0 -139 -74 -232t-178 -93q-65 0 -124 39q88 80 104 159q-145 13 -145 161zM991 211q0 -120 10 -197q-145 -31 -249 -30q-166 0 -250 68t-84 191q0 124 60 366q60 241 77 323q-45 4 -98 4t-119 -12l-23 -4 q-57 102 -57 222t92 214t260 94q113 0 322 -15q208 -15 320 -15t210 22q62 -66 62 -202t-84 -236t-264 -99l-37 2q-14 -70 -81 -323t-67 -373z" glyph-name="Tcommaaccent" horiz-adv-x="1325" unicode="Ţ"/><glyph d="M541 -72q199 0 198 -196q0 -139 -74 -233q-75 -93 -178 -93q-66 0 -125 39q43 39 70 79t31 60l4 21q-145 13 -145 161q0 78 64 120q65 42 155 42zM958 557q60 0 109 -41t49 -106q0 -182 -174 -314t-453 -133q-199 0 -298 81t-99 222q0 106 72 400t72 462q0 61 -11 138 q135 31 240 30q160 0 240 -70t79 -198q209 0 308 12q26 -54 26 -118t-53 -117t-170 -53q-59 0 -145 22q-12 -59 -51 -214t-40 -222q0 -47 40 -47q40 -1 86 63t69 189q44 14 104 14z" glyph-name="tcommaaccent" horiz-adv-x="1060" unicode="ţ"/><glyph d="M725 1540q0 217 -104 264q0 62 58 102t158 40q101 0 141 -67t40 -148l-4 -52q160 55 160 183q-1 14 -5 39q59 39 149 39t145 -36q57 -34 57 -119t-65 -154t-173 -99q-187 -52 -405 -53l-154 6q2 23 2 55zM991 211q0 -120 10 -197q-145 -31 -249 -30q-166 0 -250 68 t-84 191q0 124 60 366q60 241 77 323q-45 4 -98 4t-119 -12l-23 -4q-57 102 -57 222t92 214t260 94q113 0 322 -15q208 -15 320 -15t210 22q62 -66 62 -202t-84 -236t-264 -99l-37 2q-14 -70 -81 -323t-67 -373z" glyph-name="Tcaron" horiz-adv-x="1325" unicode="Ť"/><glyph d="M1094 1286q0 132 93 194t224 62q289 0 289 -287q0 -203 -109 -339t-258 -136q-92 1 -180 58q63 57 101 115t44 87l7 31q-99 11 -155 65t-56 150zM958 557q60 0 109 -41t49 -106q0 -182 -174 -314t-453 -133q-199 0 -298 81t-99 222q0 106 72 400t72 462q0 61 -11 138 q135 31 240 30q160 0 240 -70t79 -198q209 0 308 12q26 -54 26 -118t-53 -117t-170 -53q-59 0 -145 22q-12 -59 -51 -214t-40 -222q0 -47 40 -47q40 -1 86 63t69 189q44 14 104 14z" glyph-name="tcaron" horiz-adv-x="1478" unicode="ť"/><glyph d="M991 150q0 -59 10 -136q-145 -31 -249 -30q-166 0 -250 68t-84 180q0 114 45 305q-84 -4 -121 -9q-27 47 -27 114q1 67 51 120t162 55q10 37 27 115q-45 4 -98 4t-119 -12l-23 -4q-57 102 -57 222t92 214t260 94q113 0 322 -15q208 -15 320 -15t210 22q62 -66 62 -202 t-84 -236t-264 -99l-37 2l-25 -108q88 0 127 2q21 -41 21 -107t-50 -120t-170 -54q-51 -219 -51 -370z" glyph-name="Tbar" horiz-adv-x="1325" unicode="Ŧ"/><glyph d="M836 721q64 0 92 2q20 -45 20 -109t-50 -116q-50 -53 -161 -54q-35 0 -63 5q-14 -80 -14 -119t36 -39q31 0 66 34t55 91q148 64 226 1q36 -30 36 -85q-1 -137 -161 -253t-429 -116q-199 0 -298 81t-99 222q0 84 23 191l-86 -6q-25 49 -25 113t41 113q41 50 135 60 q56 242 56 347t-11 182q135 31 240 30q160 0 240 -70t79 -198q209 0 308 12q26 -54 26 -118t-53 -117t-170 -53q-59 -1 -145 22l-13 -51q35 -2 99 -2z" glyph-name="tbar" horiz-adv-x="1060" unicode="ŧ"/><glyph d="M1583 1748q0 -108 -84 -186t-224 -77q-140 0 -298 48t-229 48q-121 0 -271 -78q-57 86 -57 197q0 112 92 194t276 82q96 0 278 -49t275 -49q92 0 168 59q74 -81 74 -189zM1268 1450q166 0 250 -68t84 -194q0 -88 -24 -198t-51 -214q-26 -104 -42 -175q-15 -71 -33 -131 t-50 -132t-70 -120q-97 -123 -246 -178q-149 -56 -405 -56q-255 0 -412 116t-156 351q0 94 70 395q71 301 71 467q0 55 -6 106q145 31 250 31q166 0 250 -68t84 -192t-74 -410t-74 -356t43 -70q71 0 143 182t115 409q43 225 43 331t-10 143q145 31 250 31z" glyph-name="Utilde" horiz-adv-x="1409" unicode="Ũ"/><glyph d="M1401 1398q0 -108 -84 -186q-83 -78 -225 -78t-298 49q-156 48 -229 48q-121 0 -270 -78q-57 87 -57 197t92 193t276 83q98 0 278 -49t274 -49q93 0 169 59q74 -81 74 -189zM1296 57v-34q-160 -37 -270 -37q-268 0 -268 198q0 35 4 56q-190 -256 -422 -256 q-248 0 -248 299q0 100 59 339q58 239 58 361l-2 45q139 33 248 33q155 0 225 -76t70 -227q0 -66 -23 -172t-23 -136t25 -30q47 0 78 108q49 172 49 371q0 72 -8 127q145 35 248 35q311 0 311 -303q1 -106 -55 -333t-56 -368z" glyph-name="utilde" horiz-adv-x="1296" unicode="ũ"/><glyph d="M1477 1661q0 -158 -242 -158q-47 0 -224 11t-302 11t-209 -18q-43 33 -43 113t66 124q67 44 182 44l516 -25q135 0 209 19q47 -39 47 -121zM1268 1450q166 0 250 -68t84 -194q0 -88 -24 -198t-51 -214q-26 -104 -42 -175q-15 -71 -33 -131t-50 -132t-70 -120 q-97 -123 -246 -178q-149 -56 -405 -56q-255 0 -412 116t-156 351q0 94 70 395q71 301 71 467q0 55 -6 106q145 31 250 31q166 0 250 -68t84 -192t-74 -410t-74 -356t43 -70q71 0 143 182t115 409q43 225 43 331t-10 143q145 31 250 31z" glyph-name="Umacron" horiz-adv-x="1409" unicode="Ū"/><glyph d="M348 1354q0 80 67 124t181 44q56 0 238 -12t298 -13q116 0 189 19q47 -39 47 -121q0 -158 -242 -158l-503 23q-148 -1 -232 -19q-43 33 -43 113zM1296 57v-34q-160 -37 -270 -37q-268 0 -268 198q0 35 4 56q-190 -256 -422 -256q-248 0 -248 299q0 100 59 339 q58 239 58 361l-2 45q139 33 248 33q155 0 225 -76t70 -227q0 -66 -23 -172t-23 -136t25 -30q47 0 78 108q49 172 49 371q0 72 -8 127q145 35 248 35q311 0 311 -303q1 -106 -55 -333t-56 -368z" glyph-name="umacron" horiz-adv-x="1296" unicode="ū"/><glyph d="M948 1491q-162 0 -249 44t-87 157q0 37 6 69h322q-4 -25 -4 -37q0 -82 51 -82q37 0 57 38t25 85h322q-23 -274 -443 -274zM1268 1450q166 0 250 -68t84 -194q0 -88 -24 -198t-51 -214q-26 -104 -42 -175q-15 -71 -33 -131t-50 -132t-70 -120q-97 -123 -246 -178 q-149 -56 -405 -56q-255 0 -412 116t-156 351q0 94 70 395q71 301 71 467q0 55 -6 106q145 31 250 31q166 0 250 -68t84 -192t-74 -410t-74 -356t43 -70q71 0 143 182t115 409q43 225 43 331t-10 143q145 31 250 31z" glyph-name="Ubreve" horiz-adv-x="1409" unicode="Ŭ"/><glyph d="M506 1370q0 35 6 70h322q-4 -25 -5 -37q0 -82 52 -82q37 0 57 38t25 85h321q-23 -274 -442 -275q-162 0 -249 44t-87 157zM1296 57v-34q-160 -37 -270 -37q-268 0 -268 198q0 35 4 56q-190 -256 -422 -256q-248 0 -248 299q0 100 59 339q58 239 58 361l-2 45 q139 33 248 33q155 0 225 -76t70 -227q0 -66 -23 -172t-23 -136t25 -30q47 0 78 108q49 172 49 371q0 72 -8 127q145 35 248 35q311 0 311 -303q1 -106 -55 -333t-56 -368z" glyph-name="ubreve" horiz-adv-x="1298" unicode="ŭ"/><glyph d="M1016 1630q38 0 60 44t22 93q0 86 -54 86q-36 0 -58 -46t-21 -95q0 -82 51 -82zM1421 1786q0 -307 -444 -307q-162 0 -249 44t-87 156q0 168 124 240t304 72t266 -45t86 -160zM1268 1450q166 0 250 -68t84 -194q0 -88 -24 -198t-51 -214q-26 -104 -42 -175 q-15 -71 -33 -131t-50 -132t-70 -120q-97 -123 -246 -178q-149 -56 -405 -56q-255 0 -412 116t-156 351q0 94 70 395q71 301 71 467q0 55 -6 106q145 31 250 31q166 0 250 -68t84 -192t-74 -410t-74 -356t43 -70q71 0 143 182t115 409q43 225 43 331t-10 143q145 31 250 31z " glyph-name="Uring" horiz-adv-x="1409" unicode="Ů"/><glyph d="M840 1262q38 0 60 44t22 93q0 86 -54 86q-36 0 -58 -46t-22 -96q1 -81 52 -81zM1245 1417q0 -307 -444 -307q-162 0 -249 44t-87 157q0 167 124 239t304 72t266 -45t86 -160zM1296 57v-34q-160 -37 -270 -37q-268 0 -268 198q0 35 4 56q-190 -256 -422 -256 q-248 0 -248 299q0 100 59 339q58 239 58 361l-2 45q139 33 248 33q155 0 225 -76t70 -227q0 -66 -23 -172t-23 -136t25 -30q47 0 78 108q49 172 49 371q0 72 -8 127q145 35 248 35q311 0 311 -303q1 -106 -55 -333t-56 -368z" glyph-name="uring" horiz-adv-x="1298" unicode="ů"/><glyph d="M1496 2044q93 0 160 -47t66 -139q0 -162 -166 -255t-356 -93t-231 83q91 31 213 132q121 101 137 282q84 37 177 37zM875 2044q93 0 160 -47t67 -139q0 -162 -166 -255t-356 -93t-232 83q90 31 203 123q59 49 99 125t48 166q84 37 177 37zM1268 1450q166 0 250 -68 t84 -194q0 -88 -24 -198t-51 -214q-26 -104 -42 -175q-15 -71 -33 -131t-50 -132t-70 -120q-97 -123 -246 -178q-149 -56 -405 -56q-255 0 -412 116t-156 351q0 94 70 395q71 301 71 467q0 55 -6 106q145 31 250 31q166 0 250 -68t84 -192t-74 -410t-74 -356t43 -70 q71 0 143 182t115 409q43 225 43 331t-10 143q145 31 250 31z" glyph-name="Uhungarumlaut" horiz-adv-x="1409" unicode="Ű"/><glyph d="M1379 1657q93 0 160 -47t67 -140q0 -162 -166 -255t-356 -93t-232 84q90 31 203 123q59 49 99 125t48 166q84 37 177 37zM759 1657q93 0 160 -47t66 -140q0 -162 -166 -255q-167 -93 -357 -93t-231 84q93 32 203 123q132 110 148 291q84 37 177 37zM1296 57v-34 q-160 -37 -270 -37q-268 0 -268 198q0 35 4 56q-190 -256 -422 -256q-248 0 -248 299q0 100 59 339q58 239 58 361l-2 45q139 33 248 33q155 0 225 -76t70 -227q0 -66 -23 -172t-23 -136t25 -30q47 0 78 108q49 172 49 371q0 72 -8 127q145 35 248 35q311 0 311 -303 q1 -106 -55 -333t-56 -368z" glyph-name="uhungarumlaut" unicode="ű"/><glyph d="M1583 -199q1 -133 -153 -222t-404 -89t-380 97t-130 233q0 90 59 172q-205 24 -333 140t-129 319q-1 137 71 421t72 424q0 72 -8 123q145 31 250 31q166 0 250 -68t84 -192t-74 -410t-74 -356t43 -70q71 0 143 182t115 409q43 225 43 331t-10 143q145 31 250 31 q166 0 250 -68t84 -194q0 -88 -24 -198t-51 -214t-45 -186q-71 -314 -204 -435t-360 -155q-23 -43 -23 -84q0 -70 76 -108q77 -38 181 -37t188 31t130 63l43 31q70 -14 70 -95z" glyph-name="Uogonek" horiz-adv-x="1409" unicode="Ų"/><glyph d="M1296 57v-34q-100 -25 -206 -35q-16 -33 -17 -72q0 -70 76 -108q77 -38 181 -37t189 31t128 63l45 31q70 -14 69 -95q1 -133 -153 -222t-404 -89t-380 97t-130 233t117 229q-53 47 -53 135q0 35 4 56q-190 -256 -422 -256q-248 0 -248 299q0 100 59 339q58 239 58 361 l-2 45q139 33 248 33q155 0 225 -76t70 -227q0 -66 -23 -172t-23 -136t25 -30q47 0 78 108q49 172 49 371q0 72 -8 127q145 35 248 35q311 0 311 -303q1 -106 -55 -333t-56 -368z" glyph-name="uogonek" unicode="ų"/><glyph d="M1506 1499q-100 0 -141 67q-40 67 -40 148l4 51q-160 -55 -160 -182q0 -14 5 -39q-58 -39 -148 -39t-146 35t-56 111t42 136q75 105 261 149q138 34 325 34l188 -8q-2 -25 -2 -64q0 -197 84 -258q0 -61 -58 -101t-158 -40zM1237 1450q338 0 338 -285q0 -147 -50 -318 q-49 -171 -99 -288t-50 -147t31 -31q57 0 133 145q76 144 132 366t57 415q0 57 -7 112q137 31 248 31q350 0 350 -299q0 -339 -169 -634q-189 -332 -509 -462q-176 -71 -390 -71t-214 145l2 25q-246 -170 -581 -170q-184 0 -282 69q-97 70 -97 250q0 74 50 242 q50 167 99 369q74 303 37 505q129 31 246 31q338 0 338 -262q0 -209 -120 -593q-40 -128 -40 -171t31 -43q53 -1 120 149t113 367q47 217 47 395q0 76 -8 127q135 31 244 31z" glyph-name="Wcircumflex" horiz-adv-x="2136" unicode="Ŵ"/><glyph d="M1297 1126q-100 0 -141 67q-40 67 -40 148l4 52q-160 -55 -159 -183q0 -14 4 -39q-59 -39 -149 -39t-145 36q-57 34 -57 110t43 136t108 94q135 71 318 83q76 6 160 6l189 -8q-2 -25 -2 -63q-1 -197 83 -258q0 -62 -58 -102t-158 -40zM860 184v2q-66 -131 -250 -181 q-78 -22 -170 -21q-160 0 -254 63t-94 165t58 294q57 194 57 312t-17 208q113 33 218 33q164 0 260 -85t96 -237q0 -104 -40 -239t-40 -148q0 -23 18 -22q58 0 106 154t48 310t-35 234q145 35 250 35q326 0 326 -303q0 -128 -39 -268t-39 -144q0 -18 16 -18q59 0 107 154 t47 310q0 156 -35 234q145 35 252 35q334 0 334 -303q0 -184 -89 -337q-156 -268 -519 -387q-154 -50 -262 -50t-164 19q-90 31 -125 101q-21 43 -21 80z" glyph-name="wcircumflex" horiz-adv-x="1955" unicode="ŵ"/><glyph d="M700 1559q0 -14 5 -39q-57 -39 -147 -39t-147 35q-57 34 -57 110t43 136q76 106 261 150q128 32 325 34l188 -9q-2 -25 -2 -63q0 -197 84 -258q0 -62 -58 -102q-59 -40 -159 -40t-140 68q-40 66 -40 148l4 51q-160 -55 -160 -182zM383 234q0 118 45 223q-254 47 -254 276 q0 68 47 228t47 265t-12 193q150 31 250 31q334 0 334 -276q0 -109 -30 -222t-30 -118q0 -27 35 -27q45 0 84 125t39 267t-53 220q139 31 243 31q336 0 336 -299q0 -250 -126 -412t-353 -235q-65 -254 -18 -490q-131 -30 -267 -30t-227 66q-90 66 -90 184z" glyph-name="Ycircumflex" horiz-adv-x="1271" unicode="Ŷ"/><glyph d="M1051 1126q-100 0 -141 67q-40 67 -40 148l4 52q-160 -55 -159 -183q0 -14 4 -39q-59 -39 -149 -39t-145 36q-56 34 -56 110t43 136q44 60 108 94q134 71 318 83q76 6 159 6l189 -8q-2 -25 -2 -63q0 -197 84 -258q0 -62 -58 -102t-159 -40zM1421 758v-13 q-3 -125 -63 -354t-82 -325q-61 -268 -266 -423t-514 -155q-254 0 -380 80t-126 203q0 65 34 115t80 67q31 -70 107 -114t184 -44q182 0 289 118q106 118 164 415q-131 -344 -428 -344q-139 0 -226 63q-88 63 -88 167t56 324t55 320q0 100 -12 168q113 33 217 33 q164 0 260 -85t96 -237q0 -102 -34 -217t-33 -119q0 -18 20 -18q57 0 100 130q43 131 43 279t-38 234q145 35 251 35q334 0 334 -303z" glyph-name="ycircumflex" horiz-adv-x="1320" unicode="ŷ"/><glyph d="M1438 1733q0 -117 -79 -171t-210 -55q-264 0 -264 203q0 123 85 178t206 56q262 0 262 -211zM825 1733q0 -117 -79 -171t-209 -55q-264 0 -265 203q0 123 85 178t206 56q262 0 262 -211zM383 234q0 118 45 223q-254 47 -254 276q0 68 47 228t47 265t-12 193 q150 31 250 31q334 0 334 -276q0 -109 -30 -222t-30 -118q0 -27 35 -27q45 0 84 125t39 267t-53 220q139 31 243 31q336 0 336 -299q0 -250 -126 -412t-353 -235q-65 -254 -18 -490q-131 -30 -267 -30t-227 66q-90 66 -90 184z" glyph-name="Ydieresis" horiz-adv-x="1271" unicode="Ÿ"/><glyph d="M1076 2003q104 0 172 -46q67 -45 67 -143t-82 -180t-191 -118t-197 -37q-89 0 -141 20t-71 41l-19 21q258 157 258 354l-2 31q102 57 206 57zM683 4q-245 0 -587 -18q-39 118 -39 226t45 203t111 159q172 168 539 290q-57 -4 -84 -4q-221 0 -329 97t-108 235t72 272 q203 -37 498 -37t536 19l76 6q29 -100 29 -209t-47 -212t-117 -176q-181 -189 -616 -345q96 18 176 18q202 0 310 -99t108 -231t-82 -223q-246 29 -491 29z" glyph-name="Zacute" horiz-adv-x="1226" unicode="Ź"/><glyph d="M1225 1459q0 -97 -82 -179t-191 -119t-197 -37t-141 20t-71 42l-19 20q258 158 258 355l-2 30q102 57 206 57t172 -45q67 -46 67 -144zM666 10q-318 0 -586 -24q-41 111 -41 198q0 121 83 202t189 116q105 35 253 86t229 104q-147 -47 -283 -47t-225 65q-90 65 -90 185 t79 192q121 -43 413 -43t517 13l72 4q31 -105 31 -197t-46 -168t-128 -124t-166 -80t-192 -73q-108 -40 -173 -79q207 59 338 59q295 0 295 -258q0 -106 -78 -176q-173 45 -491 45z" glyph-name="zacute" horiz-adv-x="1202" unicode="ź"/><glyph d="M1237 1743q0 -125 -85 -183t-224 -59q-281 0 -281 217q0 128 91 188t218 60q281 0 281 -223zM683 4q-245 0 -587 -18q-39 118 -39 226t45 203t111 159q172 168 539 290q-57 -4 -84 -4q-221 0 -329 97t-108 235t72 272q203 -37 498 -37t536 19l76 6q29 -100 29 -209 t-47 -212t-117 -176q-181 -189 -616 -345q96 18 176 18q202 0 310 -99t108 -231t-82 -223q-246 29 -491 29z" glyph-name="Zdotaccent" horiz-adv-x="1226" unicode="Ż"/><glyph d="M1149 1356q0 -126 -85 -184t-224 -58q-281 0 -281 217q0 129 91 189t218 59q281 0 281 -223zM666 10q-318 0 -586 -24q-41 111 -41 198q0 121 83 202t189 116q105 35 253 86t229 104q-147 -47 -283 -47t-225 65q-90 65 -90 185t79 192q121 -43 413 -43t517 13l72 4 q31 -105 31 -197t-46 -168t-128 -124t-166 -80t-192 -73q-108 -40 -173 -79q207 59 338 59q295 0 295 -258q0 -106 -78 -176q-173 45 -491 45z" glyph-name="zdotaccent" horiz-adv-x="1202" unicode="ż"/><glyph d="M1246 1946q202 0 202 -155q0 -85 -65 -154q-143 -152 -578 -152l-154 6q2 23 2 55q0 217 -104 264q0 62 58 102q59 40 159 40t140 -67t40 -148l-4 -51q160 55 160 182q0 14 -4 39q59 39 148 39zM683 4q-245 0 -587 -18q-39 118 -39 226t45 203t111 159q172 168 539 290 q-57 -4 -84 -4q-221 0 -329 97t-108 235t72 272q203 -37 498 -37t536 19l76 6q29 -100 29 -209t-47 -212t-117 -176q-181 -189 -616 -345q96 18 176 18q202 0 310 -99t108 -231t-82 -223q-246 29 -491 29z" glyph-name="Zcaron" horiz-adv-x="1222" unicode="Ž"/><glyph d="M1088 1638q202 0 202 -154q0 -85 -64 -154q-64 -70 -174 -100q-187 -52 -405 -52l-153 6q2 23 2 55q0 217 -105 264q1 61 59 101t158 41q100 0 140 -67t40 -148l-4 -52q160 55 160 183q0 13 -4 38q58 39 148 39zM666 10q-318 0 -586 -24q-41 111 -41 198q0 121 83 202 t189 116q105 35 253 86t229 104q-147 -47 -283 -47t-225 65q-90 65 -90 185t79 192q121 -43 413 -43t517 13l72 4q31 -105 31 -197t-46 -168t-128 -124t-166 -80t-192 -73q-108 -40 -173 -79q207 59 338 59q295 0 295 -258q0 -106 -78 -176q-173 45 -491 45z" glyph-name="zcaron" horiz-adv-x="1202" unicode="ž"/><glyph d="M885 768h-35q-40 -159 -98 -468q-58 -308 -102 -415q-92 -225 -212 -302q-149 -95 -379 -95q-166 0 -254 67t-88 173q0 55 25 116q55 -12 102 -12q129 0 202 85t122 275t85 360q36 171 50 230q-84 -4 -125 -8q-26 53 -26 118t53 118t170 53q55 172 126 278t197 172 t310 66t287 -75t103 -168t-71 -156q-78 31 -143 30q-150 0 -240 -166h43q63 0 90 3q21 -45 21 -108t-51 -117t-162 -54z" glyph-name="florin" horiz-adv-x="925" unicode="ƒ"/><glyph d="M1821 1801q0 -97 -82 -179t-191 -119t-197 -37t-141 20t-71 42l-19 20q258 158 258 355l-2 30q102 57 206 57t172 -45q67 -46 67 -144zM737 1589q39 0 61 44t21 93q0 86 -53 86q-36 0 -58 -46t-22 -95q0 -82 51 -82zM1143 1745q0 -307 -445 -307q-162 0 -248 44t-88 156 q0 168 124 240t304 72t267 -45q86 -45 86 -160zM1022 988q0 28 -29 28q-55 0 -130 -146t-120 -340q82 0 131 -2q20 92 58 196t64 170t26 94zM848 293v41h-137q-6 -60 -6 -150t30 -172q-133 -31 -248 -30q-190 0 -299 89t-108 269q0 123 56 250t137 231q81 103 163 199 t145 188q62 92 70 164q301 78 588 78q211 0 295 -74t84 -231q0 -92 -49 -265t-99 -371q-50 -199 -51 -311q0 -112 13 -184q-154 -31 -254 -30q-330 0 -330 309z" glyph-name="Aringacute" horiz-adv-x="1433" unicode="Ǻ"/><glyph d="M1747 1459q0 -97 -82 -179q-83 -82 -191 -119t-196 -37t-141 20t-72 42l-18 20q258 158 258 355l-2 30q103 57 207 57t170 -45q66 -46 67 -144zM655 1262q39 0 61 44t21 93q0 86 -53 86q-36 0 -58 -46t-22 -96q0 -81 51 -81zM1061 1417q0 -307 -445 -307q-162 0 -248 44 t-87 157q-1 167 123 239t304 72t267 -45q86 -45 86 -160zM848 768q-66 0 -107 -111t-41 -192q0 -45 35 -45q54 0 93 151q23 93 46 191q-12 6 -26 6zM805 231q0 31 2 48q-197 -295 -447 -295q-262 0 -262 319q0 259 113 441q124 201 407 278q152 41 350 41t441 -31l86 -10 q-8 -31 -35 -132q-125 -468 -125 -710q1 -86 13 -162q-139 -35 -250 -34q-293 0 -293 247z" glyph-name="aringacute" horiz-adv-x="1343" unicode="ǻ"/><glyph d="M1241 1511q-88 1 -141 21t-72 41l-18 20q258 158 258 355l-2 30q102 58 206 58t172 -46q66 -46 66 -144t-82 -179q-82 -82 -190 -119t-197 -37zM1022 984q0 32 -29 32q-55 0 -130 -146t-120 -340q85 0 134 -2q27 115 86 270q59 154 59 186zM1575 967h-19q-6 -29 -22 -86 h35q143 0 227 22q41 -43 41 -145q0 -221 -289 -221q-53 0 -108 6q-16 -70 -23 -103q57 -6 167 -6t202 29l35 8q49 -63 49 -165q0 -173 -92 -249q-72 -58 -271 -69q-73 -4 -227 -4q-277 0 -356 76q-78 76 -76 225v49h-137q-6 -60 -6 -150t30 -172q-133 -31 -248 -30 q-190 0 -299 89t-108 269q0 123 56 250t137 231q81 103 163 199t145 188q62 92 70 164q209 50 347 64t339 14l428 -12q115 0 215 16q49 -63 50 -186q0 -176 -117 -238t-338 -63z" glyph-name="AEacute" horiz-adv-x="1824" unicode="Ǽ"/><glyph d="M1942 1459q0 -97 -82 -179t-191 -119t-197 -37t-141 20t-71 42l-19 20q258 158 258 355l-2 30q103 57 207 57t171 -45q67 -46 67 -144zM625 395q0 -49 45 -49q32 0 58 25q50 49 65 153q-80 0 -124 -40t-44 -89zM1534 689q0 56 -48 56t-84 -55t-48 -145q88 0 134 44 t46 100zM209 793q0 111 136 191t415 79q219 0 356 -96q186 96 450 96t399 -86q136 -86 136 -223q0 -113 -93 -193q-176 -151 -499 -149q-76 0 -161 14q16 -139 190 -139q96 -1 194 29t146 61l49 29q74 -45 74 -123q0 -141 -176 -221t-417 -78q-465 1 -572 264 q-147 -264 -482 -264q-133 0 -210 66t-76 179q0 214 179 324q154 94 443 92q39 0 125 -4l2 18q0 94 -172 95q-98 0 -215 -29t-168 -61q-53 59 -53 129z" glyph-name="aeacute" horiz-adv-x="1996" unicode="ǽ"/><glyph d="M981 1027q0 91 -45 91t-77 -84t-74 -315t-42 -319t48 -89q41 1 75 89t74 312q41 224 41 315zM1585 885q0 -431 -214 -661t-585 -238q-30 -76 -36 -168l-2 -29q-36 -12 -102 -12t-129 44q-62 44 -62 124q0 16 16 90q-311 129 -311 547t230 642t593 224q33 0 86 -4 q25 88 31 158q37 6 81 6t91 -13q129 119 129 258l-2 31q103 58 207 58t171 -46t66 -133q0 -155 -147 -247t-318 -99q-8 -45 -14 -67q221 -145 221 -465z" glyph-name="Oslashacute" horiz-adv-x="1480" unicode="Ǿ"/><glyph d="M637 347q0 -54 46 -54t75 48q29 49 52 165q24 116 24 178t-52 61q-42 0 -68 -46t-52 -172t-25 -180zM268 -242q0 81 86 271q-256 96 -256 395t166 468t553 171q63 131 66 250q37 6 81 6t80 -10q156 131 156 282l-2 31q102 57 206 57t172 -46q67 -46 66 -132 q0 -158 -154 -251t-325 -95q0 -47 -9 -69t-34 -74q250 -104 250 -381q0 -305 -163 -472t-541 -175q-103 -260 -105 -381h-10q-37 -4 -55 -4q-98 0 -163 39t-65 120z" glyph-name="oslashacute" unicode="ǿ"/><glyph d="M344 -212q0 79 65 121t154 42q199 0 199 -197q0 -139 -75 -232t-177 -93q-66 0 -125 39q88 80 104 159q-145 13 -145 161zM804 1163q-60 0 -60 -73t125 -150q126 -77 234 -171q54 -48 90 -122t36 -162q0 -502 -656 -501q-289 0 -431 85t-142 226q0 113 99 173t231 60 t215 -45q-29 -43 -29 -79t18 -56t41 -20q70 0 70 86q0 49 -49 90t-120 80q-70 39 -140 90t-119 141t-49 211q0 208 169 316t455 108t430 -72t144 -186t-87 -162q-87 -49 -221 -49t-216 45q23 39 22 76q0 61 -60 61z" glyph-name="Scommaaccent" horiz-adv-x="1153" unicode="Ș"/><glyph d="M393 -208q0 79 65 121t154 42q199 0 199 -197q0 -139 -75 -232t-177 -93q-66 0 -125 39q89 81 105 159q-146 13 -146 161zM1325 825q0 -171 -288 -169q-138 0 -230 53q16 29 16 51t-15 38q-15 15 -40 15q-63 0 -63 -55q0 -41 55 -70q55 -30 133 -52t157 -52t134 -85 q55 -56 55 -139q0 -196 -173 -286t-525 -90q-213 0 -352 63q-138 63 -138 169t79 158q79 50 209 50t239 -57q-35 -69 -5 -106q14 -17 37 -17q74 0 74 75q0 43 -56 73t-136 52t-160 55t-136 99t-57 162q0 150 179 226t483 77q520 0 524 -238z" glyph-name="scommaaccent" horiz-adv-x="1204" unicode="ș"/><glyph d="M936 1126q-100 0 -140 67t-40 148l4 52q-160 -55 -160 -183q0 -14 4 -39q-57 -39 -147 -39t-147 35q-56 35 -56 111t43 136t107 94q134 71 319 83q76 6 160 6l188 -8q-2 -25 -2 -63q0 -197 84 -258q0 -62 -58 -102q-59 -40 -159 -40z" glyph-name="circumflex" horiz-adv-x="899" unicode="ˆ"/><glyph d="M998 1638q202 0 202 -154q0 -85 -64 -154q-64 -70 -174 -100q-187 -52 -405 -52l-154 6q2 23 3 55q0 217 -105 264q0 61 58 101q59 40 159 41q100 0 140 -67t40 -148l-4 -52q160 55 160 183q0 13 -4 38q58 39 148 39z" glyph-name="caron" horiz-adv-x="899" unicode="ˇ"/><glyph d="M188 1403q0 35 7 70h321q-4 -25 -4 -37q0 -82 51 -82q37 0 58 38q20 38 24 85h322q-23 -274 -443 -275q-160 0 -248 44t-88 157z" glyph-name="breve" horiz-adv-x="509" unicode="˘"/><glyph d="M872 1356q0 -126 -85 -184t-224 -58q-281 0 -280 217q0 129 91 189t218 59q280 0 280 -223z" glyph-name="dotaccent" horiz-adv-x="628" unicode="˙"/><glyph d="M633 1262q39 0 61 44t21 93q0 86 -53 86q-37 0 -59 -46t-21 -96q0 -81 51 -81zM1038 1417q0 -307 -444 -307q-160 0 -248 44t-88 157q0 167 124 239t304 72t266 -45t86 -160z" glyph-name="ring" horiz-adv-x="780" unicode="˚"/><glyph d="M356 -84q0 -70 76 -108t180 -37t190 31q85 30 128 63l45 31q70 -14 69 -95q0 -133 -154 -222t-403 -89t-379 97t-131 233q1 90 61 171t173 128l180 -99q-35 -55 -35 -104z" glyph-name="ogonek" horiz-adv-x="1071" unicode="˛"/><glyph d="M1444 1398q0 -108 -84 -186q-153 -142 -522 -29q-158 48 -230 48q-121 0 -270 -78q-57 87 -57 197t92 193t276 83q97 0 279 -49t274 -49t168 59q74 -81 74 -189z" glyph-name="tilde" horiz-adv-x="1183" unicode="˜"/><glyph d="M1406 1657q93 0 160 -47t66 -140q0 -162 -166 -255t-356 -93t-231 84q91 31 213 132q121 101 137 282q84 37 177 37zM785 1657q93 0 160 -47t67 -140q0 -162 -166 -255t-356 -93t-232 84q90 31 203 123q59 49 99 125t48 166q84 37 177 37z" glyph-name="hungarumlaut" horiz-adv-x="1368" unicode="˝"/><glyph d="M369 1354q0 80 66 124q67 44 181 44q56 0 238 -12t298 -13q116 0 189 19q47 -39 48 -121q0 -158 -242 -158q-47 0 -224 11t-302 11t-209 -18q-43 33 -43 113z" glyph-name="uni0304" horiz-adv-x="737" unicode="̄"/><glyph d="M813 1819q0 100 71 151q70 51 178 51t198 -51q-37 -45 -37 -110q0 -168 217 -328q-100 -18 -191 -19q-197 0 -317 82t-119 224zM1237 1450q338 0 338 -285q0 -147 -50 -318q-49 -171 -99 -288t-50 -147t31 -31q57 0 133 145q76 144 132 366t57 415q0 57 -7 112 q137 31 248 31q350 0 350 -299q0 -339 -169 -634q-189 -332 -509 -462q-176 -71 -390 -71t-214 145l2 25q-246 -170 -581 -170q-184 0 -282 69q-97 70 -97 250q0 74 50 242q50 167 99 369q74 303 37 505q129 31 246 31q338 0 338 -262q0 -209 -120 -593q-40 -128 -40 -171 t31 -43q53 -1 120 149t113 367q47 217 47 395q0 76 -8 127q135 31 244 31z" glyph-name="Wgrave" horiz-adv-x="2136" unicode="Ẁ"/><glyph d="M912 1636q108 0 198 -51q-37 -45 -37 -110q0 -168 217 -328q-102 -18 -190 -19q-197 0 -317 82t-119 224q0 100 70 151t178 51zM860 184v2q-66 -131 -250 -181q-78 -22 -170 -21q-160 0 -254 63t-94 165t58 294q57 194 57 312t-17 208q113 33 218 33q164 0 260 -85 t96 -237q0 -104 -40 -239t-40 -148q0 -23 18 -22q58 0 106 154t48 310t-35 234q145 35 250 35q326 0 326 -303q0 -128 -39 -268t-39 -144q0 -18 16 -18q59 0 107 154t47 310q0 156 -35 234q145 35 252 35q334 0 334 -303q0 -184 -89 -337q-156 -268 -519 -387 q-154 -50 -262 -50t-164 19q-90 31 -125 101q-21 43 -21 80z" glyph-name="wgrave" horiz-adv-x="1955" unicode="ẁ"/><glyph d="M1378 1509q-88 1 -141 21t-72 41l-18 20q258 158 258 355l-2 30q103 58 207 58t171 -46t67 -144t-83 -180t-191 -118q-108 -37 -196 -37zM1237 1450q338 0 338 -285q0 -147 -50 -318q-49 -171 -99 -288t-50 -147t31 -31q57 0 133 145q76 144 132 366t57 415q0 57 -7 112 q137 31 248 31q350 0 350 -299q0 -339 -169 -634q-189 -332 -509 -462q-176 -71 -390 -71t-214 145l2 25q-246 -170 -581 -170q-184 0 -282 69q-97 70 -97 250q0 74 50 242q50 167 99 369q74 303 37 505q129 31 246 31q338 0 338 -262q0 -209 -120 -593q-40 -128 -40 -171 t31 -43q53 -1 120 149t113 367q47 217 47 395q0 76 -8 127q135 31 244 31z" glyph-name="Wacute" horiz-adv-x="2136" unicode="Ẃ"/><glyph d="M1530 1459q0 -97 -82 -179t-191 -119t-197 -37t-140 20t-72 42l-19 20q258 158 258 355l-2 30q103 57 207 57t171 -45q67 -46 67 -144zM860 184v2q-66 -131 -250 -181q-78 -22 -170 -21q-160 0 -254 63t-94 165t58 294q57 194 57 312t-17 208q113 33 218 33 q164 0 260 -85t96 -237q0 -104 -40 -239t-40 -148q0 -23 18 -22q58 0 106 154t48 310t-35 234q145 35 250 35q326 0 326 -303q0 -128 -39 -268t-39 -144q0 -18 16 -18q59 0 107 154t47 310q0 156 -35 234q145 35 252 35q334 0 334 -303q0 -184 -89 -337q-156 -268 -519 -387 q-154 -50 -262 -50t-164 19q-90 31 -125 101q-21 43 -21 80z" glyph-name="wacute" horiz-adv-x="1955" unicode="ẃ"/><glyph d="M1886 1708q0 -117 -79 -171t-210 -54q-264 0 -264 203q0 123 85 178t206 55q262 0 262 -211zM1274 1708q0 -117 -79 -171t-210 -54q-264 0 -264 203q0 123 85 178t206 55q262 0 262 -211zM1237 1450q338 0 338 -285q0 -147 -50 -318q-49 -171 -99 -288t-50 -147t31 -31 q57 0 133 145q76 144 132 366t57 415q0 57 -7 112q137 31 248 31q350 0 350 -299q0 -339 -169 -634q-189 -332 -509 -462q-176 -71 -390 -71t-214 145l2 25q-246 -170 -581 -170q-184 0 -282 69q-97 70 -97 250q0 74 50 242q50 167 99 369q74 303 37 505q129 31 246 31 q338 0 338 -262q0 -209 -120 -593q-40 -128 -40 -171t31 -43q53 -1 120 149t113 367q47 217 47 395q0 76 -8 127q135 31 244 31z" glyph-name="Wdieresis" horiz-adv-x="2136" unicode="Ẅ"/><glyph d="M1778 1346q0 -117 -79 -171t-210 -55q-264 0 -264 203q0 123 85 178t206 55q262 1 262 -210zM1165 1346q0 -117 -79 -171t-209 -55q-264 0 -265 203q0 123 85 178t206 55q262 1 262 -210zM860 184v2q-66 -131 -250 -181q-78 -22 -170 -21q-160 0 -254 63t-94 165t58 294 q57 194 57 312t-17 208q113 33 218 33q164 0 260 -85t96 -237q0 -104 -40 -239t-40 -148q0 -23 18 -22q58 0 106 154t48 310t-35 234q145 35 250 35q326 0 326 -303q0 -128 -39 -268t-39 -144q0 -18 16 -18q59 0 107 154t47 310q0 156 -35 234q145 35 252 35q334 0 334 -303 q0 -184 -89 -337q-156 -268 -519 -387q-154 -50 -262 -50t-164 19q-90 31 -125 101q-21 43 -21 80z" glyph-name="wdieresis" horiz-adv-x="1955" unicode="ẅ"/><glyph d="M862 1481q-196 0 -316 82t-120 223q0 100 71 151t179 51t196 -51q-37 -45 -36 -110q0 -168 217 -328q-102 -18 -191 -18zM383 234q0 118 45 223q-254 47 -254 276q0 68 47 228t47 265t-12 193q150 31 250 31q334 0 334 -276q0 -109 -30 -222t-30 -118q0 -27 35 -27 q45 0 84 125t39 267t-53 220q139 31 243 31q336 0 336 -299q0 -250 -126 -412t-353 -235q-65 -254 -18 -490q-131 -30 -267 -30t-227 66q-90 66 -90 184z" glyph-name="Ygrave" horiz-adv-x="1271" unicode="Ỳ"/><glyph d="M346 1434q0 100 71 151t179 51t197 -51q-37 -45 -37 -110q0 -168 217 -328q-100 -18 -191 -19q-196 0 -316 82t-120 224zM1421 758v-13q-3 -125 -63 -354t-82 -325q-61 -268 -266 -423t-514 -155q-254 0 -380 80t-126 203q0 65 34 115t80 67q31 -70 107 -114t184 -44 q182 0 289 118q106 118 164 415q-131 -344 -428 -344q-139 0 -226 63q-88 63 -88 167t56 324t55 320q0 100 -12 168q113 33 217 33q164 0 260 -85t96 -237q0 -102 -34 -217t-33 -119q0 -18 20 -18q57 0 100 130q43 131 43 279t-38 234q145 35 251 35q334 0 334 -303z" glyph-name="ygrave" horiz-adv-x="1320" unicode="ỳ"/><glyph d="M973 569q0 -242 -254 -241q-69 0 -181 12t-182 12t-153 -30q-57 86 -57 196t66 178q67 68 173 68q105 0 235 -15t182 -15t97 22q74 -59 74 -187z" glyph-name="endash" horiz-adv-x="933" unicode="–"/><glyph d="M1460 569q0 -242 -344 -241q-121 0 -348 17t-358 17t-215 -40q-57 86 -58 186q0 140 84 198q85 58 241 58t390 -20t344 -21q110 0 190 33q74 -59 74 -187z" glyph-name="emdash" horiz-adv-x="1398" unicode="—"/><glyph d="M825 1030q0 -133 -93 -194t-224 -62q-289 0 -289 287q0 203 109 339t258 136q92 0 180 -57q-63 -57 -101 -115t-44 -90l-7 -29q98 -10 154 -64t57 -151z" glyph-name="quoteleft" horiz-adv-x="636" unicode="‘"/><glyph d="M254 1280q0 132 93 194t224 62q289 0 289 -287q0 -203 -108 -339t-258 -136q-93 0 -181 57q63 57 101 115t45 90l6 29q-98 10 -155 64q-56 54 -56 151z" glyph-name="quoteright" horiz-adv-x="638" unicode="’"/><glyph d="M664 168q0 -203 -109 -339t-258 -136q-92 0 -180 57q63 58 101 116t44 89l6 29q-98 10 -154 64t-57 151q-1 133 93 194t225 62q289 0 289 -287z" glyph-name="quotesinglbase" horiz-adv-x="653" unicode="‚"/><glyph d="M1491 1030q0 -133 -93 -194t-224 -62q-289 0 -289 287q0 203 108 339q109 136 258 136q93 0 181 -57q-64 -57 -102 -115t-44 -90l-6 -29q98 -10 154 -64t57 -151zM860 1030q0 -133 -93 -194t-224 -62q-289 0 -289 287q0 203 108 339q109 136 259 136q92 0 180 -57 q-63 -57 -101 -115t-45 -90l-6 -29q99 -10 155 -64t56 -151z" glyph-name="quotedblleft" horiz-adv-x="1294" unicode="“"/><glyph d="M891 1280q0 132 93 194t224 62q289 0 289 -287q-1 -203 -109 -339t-258 -136q-92 0 -180 57q64 57 102 115t44 90l6 29q-98 10 -155 64q-56 54 -56 151zM248 1280q0 132 93 194t224 62q289 0 289 -287q0 -203 -109 -339t-258 -136q-92 0 -180 57q63 57 101 115t45 90 l6 29q-98 10 -155 64q-56 54 -56 151z" glyph-name="quotedblright" horiz-adv-x="1277" unicode="”"/><glyph d="M66 199q0 133 93 194t224 62q289 0 289 -287q0 -203 -109 -339t-258 -136q-92 0 -180 57q63 58 101 116t44 89l6 29q-98 10 -154 64t-56 151zM729 199q0 133 93 194t225 62q289 0 288 -287q-1 -203 -109 -339t-257 -136q-93 0 -181 57q64 58 102 116t44 89l6 29 q-98 10 -155 64q-56 54 -56 151z" glyph-name="quotedblbase" horiz-adv-x="1329" unicode="„"/><glyph d="M374 -514q-72 0 -122 41q-49 41 -49 122t36 247t102 437q67 271 99 423q-119 0 -233 -33q-55 51 -55 133t57 139t166 58q39 0 121 -9q46 255 26 379q76 29 146 29q166 0 166 -180q0 -72 -37 -250q113 6 202 39q43 -68 43 -148t-57 -134t-176 -54q-29 0 -78 4 q-16 -78 -87 -375t-97 -473q-27 -175 -27 -253t6 -115q-80 -27 -152 -27z" glyph-name="dagger" horiz-adv-x="886" unicode="†"/><glyph d="M707 1452q166 0 165 -180q0 -72 -36 -250q113 6 202 39q43 -68 43 -148t-57 -134t-176 -54q-29 0 -78 4q-68 -283 -104 -450q111 6 200 38q43 -67 43 -147t-57 -134t-176 -54q-27 0 -72 4q-45 -256 -45 -346t6 -127q-81 -27 -153 -27t-121 41t-49 132t61 353 q-104 0 -229 -32q-56 51 -56 133t58 139t166 57l129 -10l108 457q-125 0 -233 -33q-56 51 -56 133t58 139t166 58q39 0 121 -9q46 255 26 379q76 29 146 29z" glyph-name="daggerdbl" horiz-adv-x="929" unicode="‡"/><glyph d="M1008 541q0 -183 -126 -271t-335 -88q-418 0 -418 322q0 278 297 351q78 19 164 19q418 1 418 -333z" glyph-name="bullet" horiz-adv-x="925" unicode="•"/><glyph d="M2144 221q0 -133 -91 -196t-243 -64q-303 0 -303 234q1 141 99 204t235 64q303 0 303 -242zM1419 221q0 -133 -91 -196t-243 -64q-303 0 -303 234q0 141 98 204t236 64q303 0 303 -242zM694 221q0 -133 -91 -196t-243 -64q-303 0 -303 234q1 141 99 204t235 64 q303 0 303 -242z" glyph-name="ellipsis" horiz-adv-x="2127" unicode="…"/><glyph d="M2254 162q26 0 43 28t31 92t13 103q0 39 -27 39t-42 -27t-29 -96q-15 -69 -15 -104t26 -35zM2652 358q0 -180 -98 -277t-326 -97q-147 0 -229 62t-82 187q0 177 98 275t326 98q143 0 227 -64t84 -184zM1490 162q26 0 43 28t31 92t13 103q0 39 -27 39t-42 -27t-29 -96 q-15 -69 -15 -104t26 -35zM1888 358q0 -180 -98 -277t-326 -97q-147 0 -229 62t-82 187q0 177 98 275t326 98q143 0 227 -64t84 -184zM503 618q26 0 43 29q16 29 30 93t14 102q0 39 -27 39t-42 -27t-29 -96q-14 -68 -14 -104t25 -36zM901 815q0 -180 -98 -277t-326 -98 q-147 0 -229 62t-82 188q0 178 98 276t326 97q143 1 227 -63t84 -185zM709 -256q-104 0 -162 47q-123 101 15 348q73 131 177 271t210 284q256 348 270 549q41 4 55 4q203 0 203 -168q0 -151 -247 -496q-104 -143 -208 -291t-180 -296t-82 -250q-18 -2 -51 -2z" glyph-name="perthousand" horiz-adv-x="2613" unicode="‰"/><glyph d="M590 47q-124 0 -241 97q-112 97 -243 366q117 231 271 384t340 153q115 -1 165 -61t60 -179q-119 -1 -249 -79t-224 -228q51 -76 145 -130t209 -57q-23 -266 -233 -266z" glyph-name="guilsinglleft" horiz-adv-x="780" unicode="‹"/><glyph d="M299 47q-115 1 -165 61t-60 179q119 0 249 79t224 228q-51 76 -145 130t-209 56q23 266 233 267q190 0 335 -206q76 -109 148 -257q-117 -231 -271 -384t-339 -153z" glyph-name="guilsinglright" horiz-adv-x="815" unicode="›"/><glyph d="M219 -256q-104 0 -162 47q-57 47 -57 132q0 149 250 488q104 140 210 283q254 346 269 549q41 4 55 4q203 0 203 -168q0 -151 -247 -496q-104 -143 -208 -291t-180 -296t-82 -250q-18 -2 -51 -2z" glyph-name="fraction" horiz-adv-x="796" unicode="⁄"/><glyph d="M795 487q20 -2 90 -2t139 15l23 4q25 -29 24 -72q0 -94 -174 -94l-66 2q39 -53 145 -53q106 1 195 25q90 24 132 48l40 27q39 -8 65 -44t26 -85q0 -98 -98 -163q-170 -113 -517 -111q-524 0 -575 352q-33 -2 -107 -10q-37 37 -37 71q0 80 142 90l2 35l-90 -12 q-25 29 -25 72q0 82 145 92q123 389 750 389q209 1 346 -61t137 -168q0 -61 -32 -104q-33 -42 -66 -54l-33 -10q-128 94 -282 94t-230 -86q98 0 199 14q37 -37 37 -72q0 -94 -193 -94q-45 0 -106 6z" glyph-name="Euro" horiz-adv-x="1386" unicode="€"/><glyph d="M997 735q-174 -1 -174 139q0 66 46 248t46 277q0 23 -4 63q66 14 125 15q154 0 209 -74t55 -197q0 -33 -5 -94t-5 -80q150 199 150 387l-2 33q92 25 204 25q174 0 175 -131q1 -53 -47 -246t-48 -255t7 -93q-78 -16 -127 -17q-168 0 -168 152q0 57 36 162l11 32 q-80 -131 -80 -241q0 -33 14 -70q-41 -33 -123 -33q-154 0 -153 189q0 70 24 168q-55 -178 -55 -234t27 -96q-49 -29 -138 -29zM887 1348q0 -66 -41 -114t-129 -48l-17 2q-6 -31 -38 -152t-33 -180q0 -60 4 -104q-82 -14 -121 -15q-164 0 -164 127q0 62 30 178t38 156 q-10 2 -35 2l-82 -8q-29 52 -29 110t45 103t127 45l303 -14q61 0 113 12q29 -34 29 -100z" glyph-name="trademark" horiz-adv-x="1595" unicode="™"/><glyph d="M156 546q0 98 59 158t153 60t201 -14t153 -14t105 20q66 -51 66 -166q0 -215 -225 -215l-283 14q-78 0 -178 -20q-51 79 -51 177z" glyph-name="minus" horiz-adv-x="802" unicode="−"/><glyph d="M164 733q0 147 98 239t264 91q209 0 359 -176q150 176 358 176q166 0 264 -91t99 -239q0 -96 -37 -174t-94 -127q-107 -92 -237 -164q-241 -135 -353 -284q-57 76 -141 144t-158 109q-76 42 -155 94t-136 101t-94 127t-37 174z" glyph-name="uni2764" horiz-adv-x="1505" unicode="❤"/><glyph d="M752 322q0 188 -43 292q-12 -57 -37 -172q-25 -116 -40 -188t-42 -202t-27 -201t35 -70q59 0 107 177q47 176 47 364zM1729 -155q0 -65 34 -64q59 0 106 177q46 176 46 366t-41 290q-16 -74 -47 -208t-65 -290q-34 -155 -33 -271zM1630 -512q-465 0 -465 387 q0 100 27 230q27 129 75 319t74 328q-80 -25 -172 -25t-190 12q180 -143 180 -452q0 -375 -178 -587t-516 -212q-465 0 -465 387q0 129 68 415t134 594q67 308 66 490l-4 86q128 31 264 31t216 -68t79 -194q0 -25 -6 -68t-10 -74l-6 -30q141 -8 263 -8t339 18q31 172 31 269 t-4 124q137 31 239 31q160 0 240 -68t80 -194q0 -66 -17 -148l-6 -26q102 -11 266 -11t252 23q16 -59 17 -115q0 -231 -291 -231q-31 0 -49 2q164 -145 163 -436q0 -375 -178 -587t-516 -212z" glyph-name="uniFB00" horiz-adv-x="2330" unicode="ﬀ"/><glyph d="M563 -152q0 -68 35 -67q59 0 105 177q47 176 47 366t-41 290q-12 -70 -79 -366t-67 -400zM1915 324q0 190 -41 290q-12 -68 -79 -360t-66 -406q0 -68 34 -67q59 0 106 177q46 176 46 366zM3113 1356q0 -126 -85 -184t-224 -58q-281 0 -281 217q0 129 91 189t218 59 q281 0 281 -223zM3037 856q0 -39 -56 -297t-56 -422q0 -68 8 -123q-139 -31 -242 -30q-317 0 -317 299q0 112 42 278t50 209q-151 -33 -336 -20q195 -139 194 -463q0 -375 -178 -587t-516 -212q-465 0 -465 387q0 118 38 281t76 325t56 246q-61 -18 -151 -18t-189 14 q164 -145 164 -436q0 -375 -178 -587t-516 -212q-465 0 -465 387q0 119 68 406t134 599q67 312 66 494q0 59 -4 86q139 31 240 31q160 0 240 -68t79 -194q0 -51 -22 -174q305 -23 600 2q33 186 33 281t-4 122q137 31 239 31q160 0 240 -68t80 -194q0 -60 -17 -139l-6 -27 q127 -10 387 -10l455 10q111 0 170 -46t59 -161z" glyph-name="uniFB03" horiz-adv-x="2930" unicode="ﬃ"/><glyph d="M1178 1538q436 0 436 -219q0 -107 -98 -173t-224 -67q-126 0 -237 80q31 27 51 71t20 86t-41 42q-31 0 -57 -67t-63 -255q66 4 122 23q27 -51 27 -132t-58 -155t-153 -74h-12q-190 -844 -191 -1093q0 -53 7 -86q-139 -31 -242 -31q-317 0 -318 299q0 139 183 934 q-61 -2 -144 -21q-35 84 -34 156q0 205 256 205q86 477 770 477z" glyph-name="glyph360" horiz-adv-x="860"/><glyph d="M614 399q0 -25 14 -39t34 -14q60 0 84 68q9 25 14 37q4 13 9 41t7 32q-72 0 -117 -37t-45 -88zM57 229q0 213 182 324q154 94 441 92l125 -4q2 14 2 21q0 98 -137 98q-88 0 -197 -40t-162 -89q-98 27 -98 123t62 159q100 102 365 137q97 13 198 13q282 0 412 -80 t130 -213q0 -31 -45 -251q-70 -344 -28 -501q-141 -31 -244 -30q-272 0 -299 202q-160 -207 -445 -206q-111 0 -187 68t-75 177z" glyph-name="glyph361" horiz-adv-x="1298"/><glyph d="M815 1356q0 -126 -85 -184t-224 -58q-281 0 -281 217q0 129 91 189t219 59q280 0 280 -223zM-266 -254q0 -45 53 -45q107 0 180 203q72 203 125 463q10 49 32 146t32 151t30 157q20 104 19 145q0 41 -4 62q162 35 274 35q274 0 275 -203q0 -47 -168 -862 q-58 -298 -262 -404t-601 -106q-256 0 -389 63t-133 173t111 179q110 69 264 69t281 -70q-49 -25 -84 -72t-35 -84z" glyph-name="j.aalt" horiz-adv-x="618"/><glyph d="M657 387q66 25 98 78t31 104q0 51 -22 52q-33 0 -62 -71t-45 -163zM1708 -240q0 -108 -101 -190t-311 -82q-129 0 -217 43t-130 112q-43 69 -65 151t-31 166q-9 83 -23 152q-29 154 -134 154q-29 0 -55 -8q-4 -70 -4 -128t8 -116q-137 -31 -242 -30q-317 0 -317 299 q0 88 93 484t93 579q0 57 -10 114q135 29 246 29q315 0 315 -272q0 -150 -137 -558q88 185 209 291t230 106t169 -62q60 -64 60 -163q0 -330 -404 -448q126 -32 214 -199q36 -68 76 -134q92 -151 249 -150q76 0 133 34l20 11q66 -77 66 -185z" glyph-name="k.swash" horiz-adv-x="1243"/><glyph d="M63 340q0 90 34 166t83 119q99 87 180 112l35 13q-8 4 -21 10t-47 32q-131 100 -128 261q0 397 669 397q250 0 410 -88t160 -234q0 -120 -102 -198t-234 -78q-131 0 -230 63q29 51 29 123q0 94 -70 95q-35 0 -61 -34q-26 -33 -25 -103q-1 -70 53 -118t107 -55l51 -8 q18 -33 18 -79t-53 -84q-54 -40 -135 -40q-33 0 -77 11q-55 -57 -56 -125q0 -133 215 -133q109 1 195 39t197 122q66 -72 65 -178q0 -150 -155 -258t-475 -106q-320 0 -476 95t-156 261z" glyph-name="E.aalt" horiz-adv-x="1255"/><glyph d="M29 -208q0 79 64 121q65 42 155 42q199 0 198 -197q0 -139 -74 -232t-177 -93q-66 0 -125 39q88 80 104 159q-145 13 -145 161z" glyph-name="glyph387" horiz-adv-x="512"/><glyph d="M82 281q0 106 91 465t91 548q0 70 -8 125q145 31 250 31q166 0 250 -68t84 -184t-94 -498t-93 -561q1 -70 13 -127q-145 -31 -252 -30q-332 0 -332 299zM29 1594q0 80 66 123q67 44 181 44q56 0 238 -12t298 -12t189 18q47 -39 48 -121q0 -158 -242 -157q-47 0 -224 11 t-302 11t-209 -18q-43 33 -43 113z" glyph-name="glyph388" horiz-adv-x="653"/><glyph d="M135 1403q0 35 6 70h322q-4 -25 -4 -37q0 -82 51 -82q38 0 58 38t24 85h321q-23 -274 -442 -275q-160 0 -248 44t-88 157zM207 993v35q176 33 296 33q121 0 187 -48t66 -157q0 -39 -56 -297t-57 -422q0 -68 8 -123q-139 -31 -241 -30q-317 0 -318 299q0 105 58 337 t57 373z" glyph-name="glyph389" horiz-adv-x="649"/><glyph d="M731 426q57 0 99 116t42 267q0 66 -47 65q-49 0 -84 -78q-59 -132 -59 -288q0 -46 10 -64t39 -18zM1430 662q0 -184 -180 -304t-472 -120q-178 0 -305 28q-12 -12 -12 -26q0 -46 92 -66t222 -28t261 -26q132 -19 224 -86q92 -68 92 -178q0 -218 -222 -296 q-196 -72 -523 -72t-487 54t-161 182q0 104 96 163t253 59t306 -75q-57 -49 -57 -111q0 -34 16 -56t48 -22t58 32q26 30 26 86q0 103 -197 146q-82 16 -165 36t-140 66t-58 122q0 102 134 172q-152 100 -152 307q0 174 181 294t470 120q166 -1 356 -19t280 -18t190 18 q24 -54 24 -116t-48 -107t-132 -45q-35 0 -53 4q35 -59 35 -118z" glyph-name="g.aalt" horiz-adv-x="1318"/><glyph d="M2482 457q25 0 43 18t19 43q0 25 -18 43q-18 19 -44 19q-25 0 -43 -18t-18 -44q0 -25 18 -43t43 -18zM2482 442q-32 0 -54 23t-22 53t23 54q23 22 53 22t54 -23q22 -23 22 -53t-22 -54q-22 -22 -54 -22zM2470 518h16q14 0 15 12q0 12 -15 13h-16v-25zM2470 504v-23h-16 v76h32q31 0 31 -25q0 -18 -16 -24l16 -27h-18l-15 23h-14zM1214 80q-74 -68 -214 -68t-209 43v170q51 -39 129 -39t114 18q37 18 43 38l8 18q-23 -31 -116 -31q-190 0 -191 152v16h-92l4 -125q38 0 51 11l7 2v-152q-37 -35 -138 -35q-150 0 -149 131l4 168h-55v170l247 82 l9 -59h338q-4 -209 -5 -217q0 -53 33 -54q31 0 31 54l-4 217h217q12 -118 12 -280t-74 -230zM1722 1174q-51 0 -86 36q-34 36 -34 86q0 51 34 87q35 36 86 36t86 -36t35 -87q0 -50 -35 -86t-86 -36zM1225 965v170l237 73l8 -61h353q16 -129 16 -477h-233q0 225 4 295h-117 l4 -129q4 -4 23 -5l34 9v-148q-14 -35 -127 -35q-160 0 -159 131l4 177h-47zM2091 350h80q2 6 2 17q0 39 -41 39t-41 -56zM2134 98q-120 0 -188 67t-68 181q0 260 252 260q106 0 168 -62t61 -171l-10 -74h-246q0 -15 22 -32t75 -17t98 31v-150q-43 -33 -164 -33zM1591 381 q-47 0 -47 -62l8 -55q28 0 54 22q25 22 24 52q0 43 -39 43zM1587 12h-260q0 240 16 512l7 66h159q14 -104 15 -154q29 170 159 170q72 0 116 -60t44 -182q1 -122 -67 -194t-193 -72q4 -31 4 -86zM950 817q49 1 49 59t-49 58q-43 0 -43 -58t43 -59zM1198 670h-156l-18 118 q-25 -131 -152 -131q-182 0 -182 230q0 133 64 201t207 67q238 0 237 -229v-256zM2676 817q48 1 48 59t-48 58t-48 -58t48 -59zM2675 1155q141 1 194 -67t53 -184t-62 -182t-184 -65q-122 0 -185 66q-62 66 -62 178q0 254 246 254zM651 670h-237q0 231 16 551l6 77h195 q20 -280 20 -628zM1886 670q0 336 17 436l6 41h155q12 -86 13 -152l4 21q42 139 163 139q80 0 114 -48t36 -159l4 -278h-229l4 192q0 51 -33 51t-33 -51l11 -192h-232z" glyph-name="glyph392" horiz-adv-x="3332"/></font>
</defs>
</svg>
